<svg width="18" height="18" viewBox="0 0 18 18" fill="none" xmlns="http://www.w3.org/2000/svg">
<path opacity="0.9" d="M9.002 4.384C6.448 4.384 4.388 6.444 4.388 8.998C4.388 11.552 6.448 13.612 9.002 13.612C11.556 13.612 13.616 11.552 13.616 8.998C13.616 6.444 11.556 4.384 9.002 4.384ZM9.002 11.998C7.352 11.998 6.002 10.652 6.002 8.998C6.002 7.344 7.348 5.998 9.002 5.998C10.656 5.998 12.002 7.344 12.002 8.998C12.002 10.652 10.652 11.998 9.002 11.998ZM14.881 4.195C14.881 4.794 14.399 5.271 13.805 5.271C13.206 5.271 12.729 4.79 12.729 4.195C12.729 3.601 13.21 3.119 13.805 3.119C14.399 3.119 14.881 3.601 14.881 4.195ZM17.937 5.288C17.868 3.846 17.539 2.569 16.483 1.517C15.431 0.465 14.154 0.136 12.713 0.063C11.227 -0.021 6.773 -0.021 5.288 0.063C3.85 0.132 2.573 0.461 1.517 1.513C0.461 2.565 0.136 3.842 0.063 5.283C-0.021 6.769 -0.021 11.223 0.063 12.708C0.132 14.15 0.461 15.427 1.517 16.479C2.573 17.531 3.846 17.86 5.287 17.933C6.773 18.017 11.227 18.017 12.712 17.933C14.154 17.864 15.431 17.535 16.483 16.479C17.535 15.427 17.864 14.15 17.937 12.709C18.021 11.223 18.021 6.773 17.937 5.288ZM16.017 14.303C15.704 15.09 15.097 15.696 14.307 16.013C13.122 16.483 10.311 16.375 9.002 16.375C7.692 16.375 4.878 16.479 3.697 16.013C2.91 15.7 2.304 15.093 1.987 14.303C1.517 13.118 1.625 10.307 1.625 8.998C1.625 7.688 1.521 4.874 1.987 3.693C2.3 2.906 2.907 2.3 3.697 1.983C4.882 1.513 7.693 1.621 9.002 1.621C10.312 1.621 13.126 1.517 14.307 1.983C15.094 2.296 15.7 2.903 16.017 3.693C16.487 4.878 16.379 7.689 16.379 8.998C16.379 10.308 16.487 13.122 16.017 14.303Z" fill="white"/>
</svg>
