<svg width="18" height="16" viewBox="0 0 18 16" fill="none" xmlns="http://www.w3.org/2000/svg">
<g clip-path="url(#clip0_263_649)">
<path opacity="0.9" d="M16.15 4.143C16.161 4.303 16.161 4.463 16.161 4.623C16.161 9.5 12.45 15.12 5.665 15.12C3.575 15.12 1.633 14.515 0 13.464C0.297 13.499 0.582 13.51 0.89 13.51C2.615 13.51 4.203 12.927 5.47 11.934C3.849 11.9 2.49 10.837 2.022 9.375C2.25 9.41 2.478 9.432 2.718 9.432C3.05 9.432 3.381 9.387 3.689 9.307C2 8.963 0.731 7.478 0.731 5.686V5.64C1.222 5.914 1.793 6.085 2.398 6.108C1.405 5.445 0.754 4.315 0.754 3.036C0.754 2.35 0.936 1.722 1.256 1.174C3.072 3.412 5.802 4.874 8.863 5.034C8.806 4.76 8.772 4.474 8.772 4.189C8.772 2.156 10.416 0.5 12.46 0.5C13.522 0.5 14.481 0.945 15.155 1.665C15.989 1.505 16.788 1.197 17.496 0.775C17.222 1.631 16.64 2.35 15.875 2.807C16.617 2.727 17.337 2.522 17.999 2.237C17.496 2.967 16.87 3.618 16.15 4.143Z" fill="white"/>
</g>
<defs>
<clipPath id="clip0_263_649">
<rect width="18" height="15" fill="white" transform="translate(0 0.5)"/>
</clipPath>
</defs>
</svg>
