<svg width="32" height="32" viewBox="0 0 32 32" fill="none" xmlns="http://www.w3.org/2000/svg">
<path fill-rule="evenodd" clip-rule="evenodd" d="M23.8756 1.35225C23.5578 0.844486 23.0896 0.448432 22.5362 0.219218C21.9828 -0.00999654 21.3717 -0.0609659 20.7879 0.0734061L16.6449 1.02505C16.2203 1.12264 15.7791 1.12264 15.3546 1.02505L11.2116 0.0734061C10.6278 -0.0609659 10.0167 -0.00999654 9.46329 0.219218C8.90987 0.448432 8.44168 0.844486 8.1239 1.35225L5.86576 4.95606C5.63534 5.32473 5.32427 5.6358 4.95559 5.86853L1.35179 8.12667C0.8449 8.44417 0.449426 8.9116 0.220261 9.46407C-0.00890362 10.0165 -0.0603918 10.6267 0.0729433 11.2097L1.02459 15.3573C1.12182 15.7812 1.12182 16.2215 1.02459 16.6454L0.0729433 20.7907C-0.06091 21.3741 -0.00968094 21.9847 0.219509 22.5376C0.448698 23.0906 0.844462 23.5584 1.35179 23.876L4.95559 26.1342C5.32427 26.3646 5.63534 26.6757 5.86807 27.0443L8.12621 30.6481C8.776 31.6874 10.0157 32.2012 11.2116 31.927L15.3546 30.9753C15.7791 30.8778 16.2203 30.8778 16.6449 30.9753L20.7902 31.927C21.3736 32.0608 21.9842 32.0096 22.5372 31.7804C23.0901 31.5512 23.5579 31.1555 23.8756 30.6481L26.1337 27.0443C26.3641 26.6757 26.6752 26.3646 27.0439 26.1342L30.65 23.876C31.1573 23.5579 31.5529 23.0896 31.7817 22.5362C32.0105 21.9828 32.0611 21.3719 31.9265 20.7884L30.9772 16.6454C30.8796 16.2208 30.8796 15.7796 30.9772 15.355L31.9288 11.2097C32.0629 10.6266 32.012 10.0161 31.7833 9.46319C31.5545 8.91027 31.1592 8.44233 30.6523 8.12436L27.0462 5.86623C26.678 5.63538 26.3669 5.32422 26.136 4.95606L23.8756 1.35225ZM22.7165 10.8618C22.8591 10.5997 22.8944 10.2926 22.8151 10.005C22.7357 9.71743 22.548 9.47184 22.2912 9.31989C22.0345 9.16795 21.7289 9.12151 21.4386 9.19034C21.1483 9.25917 20.8961 9.4379 20.7349 9.68893L14.7094 19.8874L11.071 16.4034C10.9631 16.2926 10.8339 16.2047 10.6912 16.1448C10.5486 16.085 10.3953 16.0545 10.2406 16.0552C10.0859 16.0558 9.93293 16.0877 9.79079 16.1487C9.64865 16.2098 9.52027 16.2989 9.4133 16.4107C9.30634 16.5224 9.22297 16.6546 9.16819 16.7993C9.1134 16.944 9.08832 17.0982 9.09443 17.2528C9.10054 17.4074 9.13772 17.5591 9.20376 17.699C9.26979 17.8389 9.36333 17.9641 9.47878 18.0671L14.1656 22.558C14.291 22.678 14.4419 22.768 14.6071 22.8215C14.7722 22.8749 14.9472 22.8903 15.1192 22.8666C15.2911 22.8429 15.4554 22.7807 15.5999 22.6845C15.7444 22.5884 15.8654 22.4609 15.9537 22.3115L22.7165 10.8618Z" fill="#323232"/>
</svg>
