<svg width="23" height="24" viewBox="0 0 23 24" fill="none" xmlns="http://www.w3.org/2000/svg">
<path fill-rule="evenodd" clip-rule="evenodd" d="M11.0939 4.23364H2.66681C1.1934 4.23364 0 5.49904 0 7.05779V21.1759C0 22.736 1.1934 24 2.66681 24H17.3342C18.8077 24 20.0011 22.736 20.0011 21.1759V10.842L14.7821 16.3676C14.3264 16.855 13.7328 17.1917 13.0807 17.333L9.50584 18.0904C7.17238 18.5837 5.11627 16.4063 5.58296 13.9368L6.29767 10.1513C6.42701 9.46859 6.74436 8.84055 7.20971 8.34853L11.0939 4.23364Z" fill="#323232"/>
<path fill-rule="evenodd" clip-rule="evenodd" d="M22.4625 1.75615C22.3277 1.41484 22.1301 1.10185 21.8798 0.833433C21.6338 0.570925 21.3371 0.360922 21.0078 0.216068C20.6833 0.0735751 20.3328 0 19.9784 0C19.624 0 19.2735 0.0735751 18.949 0.216068C18.6197 0.360922 18.323 0.570925 18.077 0.833433L17.3489 1.60414L21.1518 5.63102L21.8798 4.85898C22.1327 4.5926 22.3307 4.27907 22.4625 3.93626C22.7372 3.23552 22.7372 2.4569 22.4625 1.75615ZM19.2677 7.62713L15.4635 3.59891L9.09382 10.3459C8.99984 10.4461 8.93646 10.571 8.91114 10.706L8.19644 14.4928C8.1031 14.9862 8.51512 15.4209 8.98048 15.3222L12.5567 14.5662C12.6868 14.5372 12.8052 14.4698 12.8967 14.3728L19.2677 7.62713Z" fill="#323232"/>
</svg>
