<svg width="84" height="84" viewBox="0 0 84 84" fill="none" xmlns="http://www.w3.org/2000/svg">
<circle cx="42" cy="42" r="42" fill="#FFD16C"/>
<path d="M23.1954 21.924L21.5386 21.0864L23.1954 20.1558L24.4104 18.6667L25.8463 20.1558L27.2822 21.0864L25.8463 21.924L24.4104 23.6923L23.1954 21.924Z" fill="#FFB954" stroke="#333333" stroke-width="2"/>
<path d="M23.1954 62.5945L21.5386 61.6373L23.1954 60.5736L24.4104 58.8718L25.8463 60.5736L27.2822 61.6373L25.8463 62.5945L24.4104 64.6154L23.1954 62.5945Z" fill="#FFB954" stroke="#333333" stroke-width="2"/>
<path d="M61.9644 51.1073L60.3076 50.15L61.9644 49.0864L63.1794 47.3846L64.6153 49.0864L66.0512 50.15L64.6153 51.1073L63.1794 53.1282L61.9644 51.1073Z" fill="#FFB954" stroke="#333333" stroke-width="2"/>
<path d="M39.2256 62.4615L21.5386 38.6362M39.2256 62.4615L57.436 38.6362M39.2256 62.4615L31.8996 38.6362M39.2256 62.4615L46.6563 38.6362M21.5386 38.6362L27.504 27.9999M21.5386 38.6362H57.436M27.504 27.9999L31.8996 38.6362M27.504 27.9999H39.2256M51.2612 27.9999L57.436 38.6362M51.2612 27.9999H39.3826M51.2612 27.9999L46.6563 38.6362M31.8996 38.6362L39.2256 27.9999M39.3826 27.9999L46.6563 38.6362M39.3826 27.9999H39.2256" stroke="#333333" stroke-width="2"/>
</svg>
