<svg width="84" height="84" viewBox="0 0 84 84" fill="none" xmlns="http://www.w3.org/2000/svg">
<circle cx="42" cy="42" r="42" fill="#FFD16C"/>
<path d="M38.6605 30.6593C42.194 26.3787 47.8477 20.4342 55.6215 27.5682C57.9773 30.025 61.3695 37.0787 56.0927 45.6386C50.8159 54.1986 42.5866 59.1919 39.1316 60.6186C34.4987 58.6371 25.846 52.5922 22.1705 48.4919C17.6946 43.4986 14.6322 35.6519 20.7571 28.0431C26.8819 20.4342 35.598 26.8556 38.6605 30.6593ZM38.6605 30.6593V35.6519" stroke="#333333" stroke-width="2"/>
<path d="M38.969 58.8866V53.6907" stroke="#333333" stroke-width="2"/>
<path d="M38.9434 55.2337C39.6319 55.7078 46.5372 55.6686 45.8487 50.4529C45.2979 46.2804 41.4883 46.8178 39.6524 47.608V41.6811C37.7399 42.6294 33.7314 43.5777 32.997 39.7845C32.079 35.043 38.5049 35.2801 38.5049 35.2801V30.3093" stroke="#333333" stroke-width="2"/>
<path d="M57.1545 14.7217V19.9176" stroke="#333333" stroke-width="2"/>
<path d="M61.4846 22.5155L64.0826 19.0516" stroke="#333333" stroke-width="2"/>
<path d="M64.0825 26.8453H69.2784" stroke="#333333" stroke-width="2"/>
<path d="M27.7114 63.2165V68.4124" stroke="#333333" stroke-width="2"/>
<path d="M23.3814 60.6185L19.9175 65.8144" stroke="#333333" stroke-width="2"/>
<path d="M20.7835 58.0206L15.5876 58.8866" stroke="#333333" stroke-width="2"/>
</svg>
