<svg width="84" height="84" viewBox="0 0 84 84" fill="none" xmlns="http://www.w3.org/2000/svg">
<circle cx="42" cy="42" r="42" fill="#FFD16C"/>
<path d="M22.2693 44.2066C22.8287 47.6406 26.0851 55.1138 31.7707 58.2919C37.5011 61.4951 42.0525 63.8974 42.0525 63.8974L53.2117 57.3807C53.2117 57.3807 61.0258 52.9073 61.0258 43.0217V28.4694C60.6976 29.7547 45.0103 24.4133 41.9154 20.8205C35.664 25.57 26.2133 27.7699 22.2693 28.2761V44.2066ZM22.2693 44.2066C22.2649 44.1795 22.2607 44.1527 22.2566 44.1262M35.6092 39.6252H34.0464V49.1519C34.0464 52.7416 38.9862 56.4575 42.2444 55.9724C42.2444 55.9724 49.9215 54.3432 49.9215 48.9033V39.6252H35.6092ZM35.6092 39.6252V33.5779C36.347 29.0597 39.2827 28.8284 42.4363 28.8284C45.5899 28.8284 48.057 30.1538 48.057 34.0473V37.5266" stroke="#333333" stroke-width="2"/>
<path d="M42.9449 46.3987H41.0555C40.8373 46.1735 40.7053 45.8713 40.7053 45.5443C40.7053 44.8663 41.2729 44.2949 42.0002 44.2949C42.7275 44.2949 43.2951 44.8663 43.2951 45.5443C43.2951 45.8713 43.1631 46.1735 42.9449 46.3987ZM42.5601 47.7261L42.5826 49.0385H41.364V47.7059C41.5664 47.7632 41.78 47.7938 42.0002 47.7938C42.1929 47.7938 42.3805 47.7704 42.5601 47.7261Z" fill="#FFB954" stroke="#333333"/>
</svg>
