<svg width="84" height="84" viewBox="0 0 84 84" fill="none" xmlns="http://www.w3.org/2000/svg">
<circle cx="42" cy="42" r="42" fill="#FFD16C"/>
<path d="M19.3845 47.7231L22.6446 49.7778L31.111 36.598L28.3375 34.1425" stroke="#333333" stroke-width="2"/>
<path d="M35.2737 38.0513C31.5221 32.884 29.9666 29.8262 29.4358 23.7138C35.0542 22.5451 37.7184 21.2784 41.6192 17.9487C45.6586 20.815 48.3455 22.0967 54.0056 23.7138C53.4429 29.6264 52.4508 32.5793 49.2845 37.0988M37.558 29.9802L40.5531 33.2888L46.3402 27.5739" stroke="#333333" stroke-width="2"/>
<path d="M55.3419 34.1425L52.3303 36.3334L61.2648 49.7778" stroke="#333333" stroke-width="2"/>
<path d="M53.5909 38.8966C50.0214 39.1946 48.1297 38.9593 44.889 38.0513C41.611 38.5096 39.8429 39.0204 36.7872 40.289L32.7864 45.212C35.3122 47.1613 36.9541 46.765 40.238 43.7202C41.3882 43.8031 43.8388 43.8694 44.4389 43.4715L56.2415 51.1295C57.3199 53.3449 56.9464 54.3187 54.091 55.4558M54.091 55.605C53.9475 57.992 53.3332 58.7493 50.9403 58.6881C49.8491 61.1262 49.0226 61.7213 47.2395 61.6717C46.0323 63.5436 45.1588 64.0541 43.0886 63.5613L40.238 61.6717" stroke="#333333" stroke-width="2"/>
<path d="M47.3047 61.5043L41.7207 58.1539" stroke="#333333" stroke-width="2"/>
<path d="M50.6551 58.7122L44.5127 54.245" stroke="#333333" stroke-width="2"/>
<path d="M54.0057 55.3618L46.188 50.3362" stroke="#333333" stroke-width="2"/>
<path d="M56.2393 51.453C57.3516 51.0221 59.8023 49.8605 60.7065 48.6609" stroke="#333333" stroke-width="2"/>
<path d="M61.2649 49.7778L64.6153 47.5442" stroke="#333333" stroke-width="2"/>
<path d="M23.2932 48.6609C23.7332 49.5606 24.9075 51.4902 26.0852 52.0114" stroke="#333333" stroke-width="2"/>
<rect x="0.205958" y="1.02732" width="2.75327" height="8.92603" rx="1.37664" transform="matrix(0.838948 0.544211 -0.564338 0.825544 29.0529 48.8349)" fill="#FFB954" stroke="#333333" stroke-width="1.5"/>
<rect x="0.205958" y="1.02732" width="2.75327" height="8.92603" rx="1.37664" transform="matrix(0.838948 0.544211 -0.564338 0.825544 36.1893 53.4642)" fill="#FFB954" stroke="#333333" stroke-width="1.5"/>
<rect x="0.205958" y="1.02732" width="2.75327" height="7.32203" rx="1.37664" transform="matrix(0.838948 0.544211 -0.564338 0.825544 39.3051 56.441)" fill="#FFB954" stroke="#333333" stroke-width="1.5"/>
<rect x="0.205958" y="1.02732" width="2.75327" height="10.3295" rx="1.37664" transform="matrix(0.838948 0.544211 -0.564338 0.825544 33.0172 50.5702)" fill="#FFB954" stroke="#333333" stroke-width="1.5"/>
</svg>
