<svg width="26" height="27" viewBox="0 0 26 27" fill="none" xmlns="http://www.w3.org/2000/svg">
<path d="M15.8571 18.5714L23.2857 26M22.0476 0V7.42857M18.3333 3.71429H25.7619M9.66667 21.0476C10.8048 21.0476 11.9318 20.8235 12.9833 20.3879C14.0347 19.9524 14.9902 19.314 15.7949 18.5092C16.5997 17.7044 17.2381 16.749 17.6736 15.6975C18.1092 14.6461 18.3333 13.5191 18.3333 12.381C18.3333 11.2428 18.1092 10.1159 17.6736 9.06436C17.2381 8.01287 16.5997 7.05747 15.7949 6.25269C14.9902 5.44792 14.0347 4.80954 12.9833 4.374C11.9318 3.93846 10.8048 3.71429 9.66667 3.71429C7.36812 3.71429 5.16372 4.62738 3.53841 6.25269C1.91309 7.87801 1 10.0824 1 12.381C1 14.6795 1.91309 16.8839 3.53841 18.5092C5.16372 20.1345 7.36812 21.0476 9.66667 21.0476Z" stroke="#323232" stroke-width="2"/>
</svg>
