<svg width="715" height="68" viewBox="0 0 715 68" fill="none" xmlns="http://www.w3.org/2000/svg">
<ellipse cx="75.5" cy="34.0001" rx="75.5" ry="31.5894" fill="#FF0000"/>
<ellipse cx="75.5" cy="34.0001" rx="72.3542" ry="27.395" stroke="white" stroke-width="2"/>
<path d="M23.5938 21.8099V33.585L28.9616 21.8099H23.5938Z" fill="white"/>
<path d="M30.572 21.8099V47.5009H39.1606V21.8099H30.572Z" fill="white"/>
<path d="M46.1389 33.0497L40.771 21.8099H46.1389V33.0497Z" fill="white"/>
<path d="M78.7009 46.9613V36.7134L86.6749 46.9613H78.7009Z" fill="white"/>
<path d="M95.7425 20.581L95.682 30.8287L87.7686 20.5325L95.7425 20.581Z" fill="white"/>
<path d="M83.4848 37.7924C90.3956 44.8041 88.8008 47.5009 88.8008 47.5009H91.4588C95.7116 47.5009 97.3064 39.9498 94.6484 36.1743C91.9904 32.3988 86.9933 25.7107 86.1428 24.8477C85.2922 23.9847 85.6118 21.6116 85.6115 20.5329C85.6115 20.5329 80.8273 19.9932 79.2321 23.2295C77.6369 26.4658 77.8966 32.1227 83.4848 37.7924Z" fill="white"/>
<path d="M98.5695 46.9766L101.774 32.9186L105.512 46.9766H98.5695Z" fill="white"/>
<path d="M107.648 46.9766L103.376 30.7559V21.0234H104.444H110.852L116.726 46.9766H107.648Z" fill="white"/>
<path d="M114.59 21.0234V26.4303L118.862 46.9766H127.406L122.066 21.0234H114.59Z" fill="white"/>
<path d="M48.2361 46.9766L51.4402 32.9186L55.1783 46.9766H48.2361Z" fill="white"/>
<path d="M57.3143 46.9766L53.0422 30.7559V21.0234H54.1102H60.5184L66.3926 46.9766H57.3143Z" fill="white"/>
<path d="M64.2565 21.0234V26.4303L68.5287 46.9766H77.0729L71.7327 21.0234H64.2565Z" fill="white"/>
<path d="M179.879 14.4336V18.376H179.492C179.263 17.4665 179.009 16.8148 178.729 16.4209C178.45 16.0199 178.067 15.7012 177.58 15.4648C177.308 15.3359 176.832 15.2715 176.151 15.2715H175.066V26.5078C175.066 27.2526 175.106 27.7181 175.185 27.9043C175.271 28.0905 175.432 28.2552 175.668 28.3984C175.911 28.5345 176.241 28.6025 176.656 28.6025H177.14V29H169.513V28.6025H169.996C170.419 28.6025 170.759 28.5273 171.017 28.377C171.203 28.2767 171.35 28.1048 171.457 27.8613C171.536 27.6895 171.575 27.2383 171.575 26.5078V15.2715H170.522C169.541 15.2715 168.829 15.4792 168.385 15.8945C167.762 16.4746 167.368 17.3018 167.203 18.376H166.795V14.4336H179.879ZM185.519 14.4336V20.2451C186.07 19.665 186.575 19.2568 187.033 19.0205C187.492 18.777 187.968 18.6553 188.462 18.6553C189.092 18.6553 189.629 18.8343 190.073 19.1924C190.524 19.5505 190.822 19.973 190.965 20.46C191.115 20.9398 191.19 21.7526 191.19 22.8984V26.8193C191.19 27.5856 191.262 28.0654 191.405 28.2588C191.549 28.445 191.839 28.5632 192.275 28.6133V29H187.184V28.6133C187.542 28.5632 187.81 28.4199 187.989 28.1836C188.118 27.9974 188.183 27.5426 188.183 26.8193V22.3398C188.183 21.5091 188.15 20.9899 188.086 20.7822C188.021 20.5674 187.91 20.4027 187.753 20.2881C187.603 20.1663 187.431 20.1055 187.237 20.1055C186.951 20.1055 186.672 20.2057 186.399 20.4062C186.127 20.5996 185.834 20.9434 185.519 21.4375V26.8193C185.519 27.5355 185.572 27.9831 185.68 28.1621C185.816 28.4056 186.095 28.556 186.518 28.6133V29H181.426V28.6133C181.848 28.5703 182.149 28.4342 182.328 28.2051C182.45 28.0475 182.511 27.5856 182.511 26.8193V16.6143C182.511 15.8551 182.439 15.3825 182.296 15.1963C182.16 15.0101 181.87 14.8883 181.426 14.8311V14.4336H185.519ZM198.398 18.6553C199.272 18.6553 200.085 18.8809 200.837 19.332C201.589 19.7832 202.158 20.4242 202.545 21.2549C202.939 22.0856 203.136 22.9951 203.136 23.9834C203.136 25.4085 202.774 26.6009 202.051 27.5605C201.177 28.7207 199.97 29.3008 198.431 29.3008C196.92 29.3008 195.756 28.7708 194.939 27.7109C194.123 26.651 193.715 25.4229 193.715 24.0264C193.715 22.5869 194.13 21.3337 194.961 20.2666C195.799 19.1924 196.945 18.6553 198.398 18.6553ZM198.441 19.418C198.076 19.418 197.761 19.5576 197.496 19.8369C197.238 20.109 197.066 20.6533 196.98 21.4697C196.902 22.279 196.862 23.4069 196.862 24.8535C196.862 25.6198 196.912 26.3359 197.013 27.002C197.091 27.5104 197.26 27.8971 197.518 28.1621C197.775 28.4271 198.069 28.5596 198.398 28.5596C198.721 28.5596 198.989 28.4701 199.204 28.291C199.483 28.0475 199.67 27.7074 199.763 27.2705C199.906 26.5902 199.978 25.2152 199.978 23.1455C199.978 21.9281 199.91 21.0938 199.773 20.6426C199.637 20.1842 199.437 19.8512 199.172 19.6436C198.986 19.4932 198.742 19.418 198.441 19.418ZM208.765 18.9561V20.2559C209.28 19.6973 209.774 19.2926 210.247 19.042C210.72 18.7842 211.228 18.6553 211.772 18.6553C212.424 18.6553 212.965 18.8379 213.395 19.2031C213.824 19.5612 214.111 20.0088 214.254 20.5459C214.368 20.9541 214.426 21.7383 214.426 22.8984V26.8086C214.426 27.582 214.494 28.0654 214.63 28.2588C214.773 28.445 215.067 28.5632 215.511 28.6133V29H210.43V28.6133C210.809 28.5632 211.081 28.4056 211.246 28.1406C211.361 27.9616 211.418 27.5176 211.418 26.8086V22.3398C211.418 21.5163 211.386 20.9971 211.321 20.7822C211.257 20.5674 211.146 20.4027 210.988 20.2881C210.838 20.1663 210.67 20.1055 210.483 20.1055C209.868 20.1055 209.295 20.5459 208.765 21.4268V26.8086C208.765 27.5605 208.833 28.0368 208.969 28.2373C209.112 28.4378 209.373 28.5632 209.753 28.6133V29H204.672V28.6133C205.094 28.5703 205.395 28.4342 205.574 28.2051C205.696 28.0475 205.757 27.582 205.757 26.8086V21.1367C205.757 20.3776 205.685 19.9049 205.542 19.7188C205.406 19.5326 205.116 19.4108 204.672 19.3535V18.9561H208.765ZM226.672 14.4336V25.9922C226.672 26.7728 226.693 27.2347 226.736 27.3779C226.794 27.6143 226.901 27.7897 227.059 27.9043C227.223 28.0189 227.506 28.0905 227.907 28.1191V28.4736L223.664 29.3008V27.7109C223.156 28.3268 222.701 28.7458 222.3 28.9678C221.906 29.1898 221.458 29.3008 220.957 29.3008C219.675 29.3008 218.662 28.7279 217.917 27.582C217.315 26.651 217.015 25.5088 217.015 24.1553C217.015 23.0739 217.201 22.1071 217.573 21.2549C217.946 20.3955 218.454 19.7474 219.099 19.3105C219.75 18.8737 220.449 18.6553 221.193 18.6553C221.673 18.6553 222.099 18.7484 222.472 18.9346C222.844 19.1208 223.242 19.4466 223.664 19.9121V16.8828C223.664 16.1165 223.632 15.6546 223.567 15.4971C223.481 15.2894 223.353 15.1354 223.181 15.0352C223.009 14.9349 222.687 14.8848 222.214 14.8848V14.4336H226.672ZM223.664 21.2441C223.134 20.2272 222.486 19.7188 221.72 19.7188C221.455 19.7188 221.236 19.7904 221.064 19.9336C220.799 20.1556 220.581 20.5459 220.409 21.1045C220.244 21.6631 220.162 22.5189 220.162 23.6719C220.162 24.9395 220.255 25.8776 220.441 26.4863C220.628 27.0951 220.882 27.5355 221.204 27.8076C221.369 27.9437 221.594 28.0117 221.881 28.0117C222.511 28.0117 223.105 27.5176 223.664 26.5293V21.2441ZM234.696 27.5176C233.472 28.599 232.372 29.1396 231.398 29.1396C230.826 29.1396 230.349 28.9535 229.97 28.5811C229.59 28.2015 229.4 27.7288 229.4 27.1631C229.4 26.3968 229.73 25.7093 230.389 25.1006C231.048 24.4847 232.483 23.6683 234.696 22.6514V21.6416C234.696 20.8825 234.653 20.4062 234.567 20.2129C234.489 20.0124 234.335 19.8405 234.105 19.6973C233.876 19.5469 233.618 19.4717 233.332 19.4717C232.867 19.4717 232.483 19.5755 232.183 19.7832C231.996 19.9121 231.903 20.0625 231.903 20.2344C231.903 20.3848 232.004 20.571 232.204 20.793C232.476 21.1009 232.612 21.3981 232.612 21.6846C232.612 22.0355 232.48 22.3363 232.215 22.5869C231.957 22.8304 231.617 22.9521 231.194 22.9521C230.743 22.9521 230.364 22.8161 230.056 22.5439C229.755 22.2718 229.604 21.9531 229.604 21.5879C229.604 21.0723 229.809 20.5817 230.217 20.1162C230.625 19.6436 231.194 19.2819 231.925 19.0312C232.655 18.7806 233.414 18.6553 234.202 18.6553C235.155 18.6553 235.907 18.8594 236.458 19.2676C237.017 19.6686 237.378 20.1055 237.543 20.5781C237.643 20.8789 237.693 21.57 237.693 22.6514V26.5508C237.693 27.0091 237.711 27.2992 237.747 27.4209C237.783 27.5355 237.837 27.6214 237.908 27.6787C237.98 27.736 238.062 27.7646 238.155 27.7646C238.341 27.7646 238.531 27.6322 238.725 27.3672L239.047 27.625C238.689 28.1549 238.316 28.5417 237.93 28.7852C237.55 29.0215 237.117 29.1396 236.63 29.1396C236.057 29.1396 235.609 29.0072 235.287 28.7422C234.965 28.4701 234.768 28.0618 234.696 27.5176ZM234.696 26.7334V23.3711C233.83 23.8796 233.185 24.4238 232.763 25.0039C232.483 25.3906 232.344 25.7809 232.344 26.1748C232.344 26.5042 232.462 26.7943 232.698 27.0449C232.877 27.2383 233.128 27.335 233.45 27.335C233.808 27.335 234.224 27.1344 234.696 26.7334ZM242.57 14.0898C243.036 14.0898 243.43 14.2546 243.752 14.584C244.074 14.9062 244.235 15.2965 244.235 15.7549C244.235 16.2132 244.071 16.6035 243.741 16.9258C243.419 17.248 243.029 17.4092 242.57 17.4092C242.112 17.4092 241.722 17.248 241.399 16.9258C241.077 16.6035 240.916 16.2132 240.916 15.7549C240.916 15.2965 241.077 14.9062 241.399 14.584C241.722 14.2546 242.112 14.0898 242.57 14.0898ZM244.074 18.9561V26.916C244.074 27.625 244.157 28.0798 244.321 28.2803C244.486 28.4736 244.808 28.5846 245.288 28.6133V29H239.863V28.6133C240.307 28.599 240.637 28.4701 240.852 28.2266C240.995 28.0618 241.066 27.625 241.066 26.916V21.0508C241.066 20.3418 240.984 19.8906 240.819 19.6973C240.655 19.4967 240.336 19.3822 239.863 19.3535V18.9561H244.074ZM261.52 24.0371L265.473 14.4336H271.402V14.8311H270.93C270.5 14.8311 270.156 14.9062 269.898 15.0566C269.719 15.1569 269.576 15.3252 269.469 15.5615C269.39 15.7334 269.351 16.181 269.351 16.9043V26.5078C269.351 27.2526 269.39 27.7181 269.469 27.9043C269.548 28.0905 269.709 28.2552 269.952 28.3984C270.196 28.5345 270.521 28.6025 270.93 28.6025H271.402V29H263.797V28.6025H264.27C264.699 28.6025 265.043 28.5273 265.301 28.377C265.48 28.2767 265.623 28.1048 265.73 27.8613C265.809 27.6895 265.849 27.2383 265.849 26.5078V15.7119L260.263 29H260.005L254.333 15.8086V26.0674C254.333 26.7835 254.351 27.224 254.387 27.3887C254.48 27.7467 254.68 28.0404 254.988 28.2695C255.303 28.4915 255.794 28.6025 256.46 28.6025V29H251.476V28.6025H251.626C251.948 28.6097 252.249 28.5596 252.528 28.4521C252.808 28.3376 253.019 28.1872 253.162 28.001C253.305 27.8148 253.416 27.5534 253.495 27.2168C253.509 27.138 253.517 26.7728 253.517 26.1211V16.9043C253.517 16.1667 253.477 15.7083 253.398 15.5293C253.32 15.3431 253.159 15.182 252.915 15.0459C252.672 14.9027 252.346 14.8311 251.938 14.8311H251.476V14.4336H257.427L261.52 24.0371ZM278.095 27.5176C276.87 28.599 275.771 29.1396 274.797 29.1396C274.224 29.1396 273.748 28.9535 273.368 28.5811C272.989 28.2015 272.799 27.7288 272.799 27.1631C272.799 26.3968 273.128 25.7093 273.787 25.1006C274.446 24.4847 275.882 23.6683 278.095 22.6514V21.6416C278.095 20.8825 278.052 20.4062 277.966 20.2129C277.887 20.0124 277.733 19.8405 277.504 19.6973C277.275 19.5469 277.017 19.4717 276.73 19.4717C276.265 19.4717 275.882 19.5755 275.581 19.7832C275.395 19.9121 275.302 20.0625 275.302 20.2344C275.302 20.3848 275.402 20.571 275.603 20.793C275.875 21.1009 276.011 21.3981 276.011 21.6846C276.011 22.0355 275.878 22.3363 275.613 22.5869C275.355 22.8304 275.015 22.9521 274.593 22.9521C274.142 22.9521 273.762 22.8161 273.454 22.5439C273.153 22.2718 273.003 21.9531 273.003 21.5879C273.003 21.0723 273.207 20.5817 273.615 20.1162C274.023 19.6436 274.593 19.2819 275.323 19.0312C276.054 18.7806 276.813 18.6553 277.601 18.6553C278.553 18.6553 279.305 18.8594 279.856 19.2676C280.415 19.6686 280.777 20.1055 280.941 20.5781C281.042 20.8789 281.092 21.57 281.092 22.6514V26.5508C281.092 27.0091 281.11 27.2992 281.146 27.4209C281.181 27.5355 281.235 27.6214 281.307 27.6787C281.378 27.736 281.461 27.7646 281.554 27.7646C281.74 27.7646 281.93 27.6322 282.123 27.3672L282.445 27.625C282.087 28.1549 281.715 28.5417 281.328 28.7852C280.949 29.0215 280.515 29.1396 280.028 29.1396C279.455 29.1396 279.008 29.0072 278.686 28.7422C278.363 28.4701 278.166 28.0618 278.095 27.5176ZM278.095 26.7334V23.3711C277.228 23.8796 276.584 24.4238 276.161 25.0039C275.882 25.3906 275.742 25.7809 275.742 26.1748C275.742 26.5042 275.86 26.7943 276.097 27.0449C276.276 27.2383 276.526 27.335 276.849 27.335C277.207 27.335 277.622 27.1344 278.095 26.7334ZM287.655 18.9561V20.2559C288.171 19.6973 288.665 19.2926 289.138 19.042C289.61 18.7842 290.119 18.6553 290.663 18.6553C291.315 18.6553 291.855 18.8379 292.285 19.2031C292.715 19.5612 293.001 20.0088 293.145 20.5459C293.259 20.9541 293.316 21.7383 293.316 22.8984V26.8086C293.316 27.582 293.384 28.0654 293.521 28.2588C293.664 28.445 293.957 28.5632 294.401 28.6133V29H289.32V28.6133C289.7 28.5632 289.972 28.4056 290.137 28.1406C290.251 27.9616 290.309 27.5176 290.309 26.8086V22.3398C290.309 21.5163 290.276 20.9971 290.212 20.7822C290.147 20.5674 290.036 20.4027 289.879 20.2881C289.729 20.1663 289.56 20.1055 289.374 20.1055C288.758 20.1055 288.185 20.5459 287.655 21.4268V26.8086C287.655 27.5605 287.723 28.0368 287.859 28.2373C288.003 28.4378 288.264 28.5632 288.644 28.6133V29H283.562V28.6133C283.985 28.5703 284.286 28.4342 284.465 28.2051C284.587 28.0475 284.647 27.582 284.647 26.8086V21.1367C284.647 20.3776 284.576 19.9049 284.433 19.7188C284.297 19.5326 284.007 19.4108 283.562 19.3535V18.9561H287.655ZM305.562 14.4336V25.9922C305.562 26.7728 305.584 27.2347 305.627 27.3779C305.684 27.6143 305.792 27.7897 305.949 27.9043C306.114 28.0189 306.397 28.0905 306.798 28.1191V28.4736L302.555 29.3008V27.7109C302.046 28.3268 301.591 28.7458 301.19 28.9678C300.797 29.1898 300.349 29.3008 299.848 29.3008C298.566 29.3008 297.552 28.7279 296.808 27.582C296.206 26.651 295.905 25.5088 295.905 24.1553C295.905 23.0739 296.091 22.1071 296.464 21.2549C296.836 20.3955 297.345 19.7474 297.989 19.3105C298.641 18.8737 299.339 18.6553 300.084 18.6553C300.564 18.6553 300.99 18.7484 301.362 18.9346C301.735 19.1208 302.132 19.4466 302.555 19.9121V16.8828C302.555 16.1165 302.522 15.6546 302.458 15.4971C302.372 15.2894 302.243 15.1354 302.071 15.0352C301.899 14.9349 301.577 14.8848 301.104 14.8848V14.4336H305.562ZM302.555 21.2441C302.025 20.2272 301.377 19.7188 300.61 19.7188C300.345 19.7188 300.127 19.7904 299.955 19.9336C299.69 20.1556 299.472 20.5459 299.3 21.1045C299.135 21.6631 299.053 22.5189 299.053 23.6719C299.053 24.9395 299.146 25.8776 299.332 26.4863C299.518 27.0951 299.772 27.5355 300.095 27.8076C300.259 27.9437 300.485 28.0117 300.771 28.0117C301.402 28.0117 301.996 27.5176 302.555 26.5293V21.2441ZM313.587 27.5176C312.362 28.599 311.263 29.1396 310.289 29.1396C309.716 29.1396 309.24 28.9535 308.86 28.5811C308.481 28.2015 308.291 27.7288 308.291 27.1631C308.291 26.3968 308.62 25.7093 309.279 25.1006C309.938 24.4847 311.374 23.6683 313.587 22.6514V21.6416C313.587 20.8825 313.544 20.4062 313.458 20.2129C313.379 20.0124 313.225 19.8405 312.996 19.6973C312.767 19.5469 312.509 19.4717 312.223 19.4717C311.757 19.4717 311.374 19.5755 311.073 19.7832C310.887 19.9121 310.794 20.0625 310.794 20.2344C310.794 20.3848 310.894 20.571 311.095 20.793C311.367 21.1009 311.503 21.3981 311.503 21.6846C311.503 22.0355 311.37 22.3363 311.105 22.5869C310.848 22.8304 310.507 22.9521 310.085 22.9521C309.634 22.9521 309.254 22.8161 308.946 22.5439C308.646 22.2718 308.495 21.9531 308.495 21.5879C308.495 21.0723 308.699 20.5817 309.107 20.1162C309.516 19.6436 310.085 19.2819 310.815 19.0312C311.546 18.7806 312.305 18.6553 313.093 18.6553C314.045 18.6553 314.797 18.8594 315.349 19.2676C315.907 19.6686 316.269 20.1055 316.434 20.5781C316.534 20.8789 316.584 21.57 316.584 22.6514V26.5508C316.584 27.0091 316.602 27.2992 316.638 27.4209C316.674 27.5355 316.727 27.6214 316.799 27.6787C316.87 27.736 316.953 27.7646 317.046 27.7646C317.232 27.7646 317.422 27.6322 317.615 27.3672L317.938 27.625C317.579 28.1549 317.207 28.5417 316.82 28.7852C316.441 29.0215 316.007 29.1396 315.521 29.1396C314.948 29.1396 314.5 29.0072 314.178 28.7422C313.855 28.4701 313.659 28.0618 313.587 27.5176ZM313.587 26.7334V23.3711C312.72 23.8796 312.076 24.4238 311.653 25.0039C311.374 25.3906 311.234 25.7809 311.234 26.1748C311.234 26.5042 311.353 26.7943 311.589 27.0449C311.768 27.2383 312.019 27.335 312.341 27.335C312.699 27.335 313.114 27.1344 313.587 26.7334ZM322.976 14.4336V26.916C322.976 27.625 323.058 28.0798 323.223 28.2803C323.387 28.4736 323.71 28.5846 324.189 28.6133V29H318.765V28.6133C319.209 28.599 319.538 28.4701 319.753 28.2266C319.896 28.0618 319.968 27.625 319.968 26.916V16.5176C319.968 15.8158 319.885 15.3682 319.721 15.1748C319.556 14.9743 319.237 14.8597 318.765 14.8311V14.4336H322.976ZM330.71 27.5176C329.485 28.599 328.386 29.1396 327.412 29.1396C326.839 29.1396 326.363 28.9535 325.983 28.5811C325.604 28.2015 325.414 27.7288 325.414 27.1631C325.414 26.3968 325.743 25.7093 326.402 25.1006C327.061 24.4847 328.497 23.6683 330.71 22.6514V21.6416C330.71 20.8825 330.667 20.4062 330.581 20.2129C330.502 20.0124 330.348 19.8405 330.119 19.6973C329.89 19.5469 329.632 19.4717 329.346 19.4717C328.88 19.4717 328.497 19.5755 328.196 19.7832C328.01 19.9121 327.917 20.0625 327.917 20.2344C327.917 20.3848 328.017 20.571 328.218 20.793C328.49 21.1009 328.626 21.3981 328.626 21.6846C328.626 22.0355 328.493 22.3363 328.229 22.5869C327.971 22.8304 327.631 22.9521 327.208 22.9521C326.757 22.9521 326.377 22.8161 326.069 22.5439C325.769 22.2718 325.618 21.9531 325.618 21.5879C325.618 21.0723 325.822 20.5817 326.23 20.1162C326.639 19.6436 327.208 19.2819 327.938 19.0312C328.669 18.7806 329.428 18.6553 330.216 18.6553C331.168 18.6553 331.92 18.8594 332.472 19.2676C333.03 19.6686 333.392 20.1055 333.557 20.5781C333.657 20.8789 333.707 21.57 333.707 22.6514V26.5508C333.707 27.0091 333.725 27.2992 333.761 27.4209C333.797 27.5355 333.85 27.6214 333.922 27.6787C333.993 27.736 334.076 27.7646 334.169 27.7646C334.355 27.7646 334.545 27.6322 334.738 27.3672L335.061 27.625C334.702 28.1549 334.33 28.5417 333.943 28.7852C333.564 29.0215 333.131 29.1396 332.644 29.1396C332.071 29.1396 331.623 29.0072 331.301 28.7422C330.979 28.4701 330.782 28.0618 330.71 27.5176ZM330.71 26.7334V23.3711C329.843 23.8796 329.199 24.4238 328.776 25.0039C328.497 25.3906 328.357 25.7809 328.357 26.1748C328.357 26.5042 328.476 26.7943 328.712 27.0449C328.891 27.2383 329.142 27.335 329.464 27.335C329.822 27.335 330.237 27.1344 330.71 26.7334ZM351.26 14.1006L351.378 18.9561H350.938C350.73 17.7386 350.218 16.7611 349.401 16.0234C348.592 15.2786 347.715 14.9062 346.77 14.9062C346.039 14.9062 345.459 15.1032 345.029 15.4971C344.607 15.8838 344.396 16.3314 344.396 16.8398C344.396 17.1621 344.471 17.4486 344.621 17.6992C344.829 18.0358 345.162 18.3688 345.62 18.6982C345.957 18.9346 346.734 19.3535 347.951 19.9551C349.656 20.793 350.805 21.5843 351.399 22.3291C351.987 23.0739 352.28 23.9261 352.28 24.8857C352.28 26.1032 351.804 27.1523 350.852 28.0332C349.906 28.9069 348.703 29.3438 347.242 29.3438C346.784 29.3438 346.351 29.2972 345.942 29.2041C345.534 29.111 345.022 28.9355 344.406 28.6777C344.062 28.5345 343.78 28.4629 343.558 28.4629C343.371 28.4629 343.174 28.5345 342.967 28.6777C342.759 28.821 342.591 29.0394 342.462 29.333H342.064V23.833H342.462C342.777 25.3799 343.382 26.5615 344.277 27.3779C345.18 28.1872 346.15 28.5918 347.188 28.5918C347.991 28.5918 348.628 28.3734 349.101 27.9365C349.58 27.4997 349.82 26.9912 349.82 26.4111C349.82 26.0674 349.727 25.7344 349.541 25.4121C349.362 25.0898 349.086 24.7855 348.714 24.499C348.341 24.2054 347.683 23.8258 346.737 23.3604C345.412 22.7087 344.46 22.1536 343.88 21.6953C343.3 21.237 342.852 20.7249 342.537 20.1592C342.229 19.5934 342.075 18.9704 342.075 18.29C342.075 17.1299 342.501 16.1416 343.354 15.3252C344.206 14.5088 345.28 14.1006 346.576 14.1006C347.049 14.1006 347.507 14.1579 347.951 14.2725C348.288 14.3584 348.696 14.5195 349.176 14.7559C349.663 14.985 350.003 15.0996 350.196 15.0996C350.382 15.0996 350.529 15.0423 350.637 14.9277C350.744 14.8132 350.844 14.5374 350.938 14.1006H351.26ZM359.456 27.5176C358.231 28.599 357.132 29.1396 356.158 29.1396C355.585 29.1396 355.109 28.9535 354.729 28.5811C354.35 28.2015 354.16 27.7288 354.16 27.1631C354.16 26.3968 354.49 25.7093 355.148 25.1006C355.807 24.4847 357.243 23.6683 359.456 22.6514V21.6416C359.456 20.8825 359.413 20.4062 359.327 20.2129C359.248 20.0124 359.094 19.8405 358.865 19.6973C358.636 19.5469 358.378 19.4717 358.092 19.4717C357.626 19.4717 357.243 19.5755 356.942 19.7832C356.756 19.9121 356.663 20.0625 356.663 20.2344C356.663 20.3848 356.763 20.571 356.964 20.793C357.236 21.1009 357.372 21.3981 357.372 21.6846C357.372 22.0355 357.24 22.3363 356.975 22.5869C356.717 22.8304 356.377 22.9521 355.954 22.9521C355.503 22.9521 355.123 22.8161 354.815 22.5439C354.515 22.2718 354.364 21.9531 354.364 21.5879C354.364 21.0723 354.568 20.5817 354.977 20.1162C355.385 19.6436 355.954 19.2819 356.685 19.0312C357.415 18.7806 358.174 18.6553 358.962 18.6553C359.914 18.6553 360.666 18.8594 361.218 19.2676C361.776 19.6686 362.138 20.1055 362.303 20.5781C362.403 20.8789 362.453 21.57 362.453 22.6514V26.5508C362.453 27.0091 362.471 27.2992 362.507 27.4209C362.543 27.5355 362.596 27.6214 362.668 27.6787C362.74 27.736 362.822 27.7646 362.915 27.7646C363.101 27.7646 363.291 27.6322 363.484 27.3672L363.807 27.625C363.449 28.1549 363.076 28.5417 362.689 28.7852C362.31 29.0215 361.877 29.1396 361.39 29.1396C360.817 29.1396 360.369 29.0072 360.047 28.7422C359.725 28.4701 359.528 28.0618 359.456 27.5176ZM359.456 26.7334V23.3711C358.59 23.8796 357.945 24.4238 357.522 25.0039C357.243 25.3906 357.104 25.7809 357.104 26.1748C357.104 26.5042 357.222 26.7943 357.458 27.0449C357.637 27.2383 357.888 27.335 358.21 27.335C358.568 27.335 358.983 27.1344 359.456 26.7334ZM367.33 14.0898C367.796 14.0898 368.189 14.2546 368.512 14.584C368.834 14.9062 368.995 15.2965 368.995 15.7549C368.995 16.2132 368.83 16.6035 368.501 16.9258C368.179 17.248 367.788 17.4092 367.33 17.4092C366.872 17.4092 366.481 17.248 366.159 16.9258C365.837 16.6035 365.676 16.2132 365.676 15.7549C365.676 15.2965 365.837 14.9062 366.159 14.584C366.481 14.2546 366.872 14.0898 367.33 14.0898ZM368.834 18.9561V26.916C368.834 27.625 368.916 28.0798 369.081 28.2803C369.246 28.4736 369.568 28.5846 370.048 28.6133V29H364.623V28.6133C365.067 28.599 365.396 28.4701 365.611 28.2266C365.755 28.0618 365.826 27.625 365.826 26.916V21.0508C365.826 20.3418 365.744 19.8906 365.579 19.6973C365.414 19.4967 365.096 19.3822 364.623 19.3535V18.9561H368.834ZM375.569 29.3008L372.186 21.5127C371.777 20.5745 371.459 19.9801 371.229 19.7295C371.065 19.5433 370.821 19.418 370.499 19.3535V18.9561H375.838V19.3535C375.501 19.3535 375.272 19.4144 375.15 19.5361C374.979 19.6937 374.893 19.8799 374.893 20.0947C374.893 20.3597 375.05 20.8574 375.365 21.5879L377.02 25.3584L378.341 22.1035C378.72 21.1725 378.91 20.5137 378.91 20.127C378.91 19.9049 378.828 19.7259 378.663 19.5898C378.506 19.4466 378.223 19.3678 377.814 19.3535V18.9561H381.102V19.3535C380.786 19.3965 380.529 19.5146 380.328 19.708C380.128 19.9014 379.827 20.4707 379.426 21.416L376.074 29.3008H375.569ZM387.579 27.5176C386.354 28.599 385.255 29.1396 384.281 29.1396C383.708 29.1396 383.232 28.9535 382.853 28.5811C382.473 28.2015 382.283 27.7288 382.283 27.1631C382.283 26.3968 382.613 25.7093 383.271 25.1006C383.93 24.4847 385.366 23.6683 387.579 22.6514V21.6416C387.579 20.8825 387.536 20.4062 387.45 20.2129C387.371 20.0124 387.217 19.8405 386.988 19.6973C386.759 19.5469 386.501 19.4717 386.215 19.4717C385.749 19.4717 385.366 19.5755 385.065 19.7832C384.879 19.9121 384.786 20.0625 384.786 20.2344C384.786 20.3848 384.886 20.571 385.087 20.793C385.359 21.1009 385.495 21.3981 385.495 21.6846C385.495 22.0355 385.363 22.3363 385.098 22.5869C384.84 22.8304 384.5 22.9521 384.077 22.9521C383.626 22.9521 383.246 22.8161 382.938 22.5439C382.638 22.2718 382.487 21.9531 382.487 21.5879C382.487 21.0723 382.691 20.5817 383.1 20.1162C383.508 19.6436 384.077 19.2819 384.808 19.0312C385.538 18.7806 386.297 18.6553 387.085 18.6553C388.037 18.6553 388.789 18.8594 389.341 19.2676C389.899 19.6686 390.261 20.1055 390.426 20.5781C390.526 20.8789 390.576 21.57 390.576 22.6514V26.5508C390.576 27.0091 390.594 27.2992 390.63 27.4209C390.666 27.5355 390.719 27.6214 390.791 27.6787C390.863 27.736 390.945 27.7646 391.038 27.7646C391.224 27.7646 391.414 27.6322 391.607 27.3672L391.93 27.625C391.572 28.1549 391.199 28.5417 390.812 28.7852C390.433 29.0215 390 29.1396 389.513 29.1396C388.94 29.1396 388.492 29.0072 388.17 28.7422C387.848 28.4701 387.651 28.0618 387.579 27.5176ZM387.579 26.7334V23.3711C386.713 23.8796 386.068 24.4238 385.646 25.0039C385.366 25.3906 385.227 25.7809 385.227 26.1748C385.227 26.5042 385.345 26.7943 385.581 27.0449C385.76 27.2383 386.011 27.335 386.333 27.335C386.691 27.335 387.106 27.1344 387.579 26.7334ZM176.484 49.0371L180.438 39.4336H186.367V39.8311H185.895C185.465 39.8311 185.121 39.9062 184.863 40.0566C184.684 40.1569 184.541 40.3252 184.434 40.5615C184.355 40.7334 184.315 41.181 184.315 41.9043V51.5078C184.315 52.2526 184.355 52.7181 184.434 52.9043C184.512 53.0905 184.674 53.2552 184.917 53.3984C185.16 53.5345 185.486 53.6025 185.895 53.6025H186.367V54H178.762V53.6025H179.234C179.664 53.6025 180.008 53.5273 180.266 53.377C180.445 53.2767 180.588 53.1048 180.695 52.8613C180.774 52.6895 180.813 52.2383 180.813 51.5078V40.7119L175.228 54H174.97L169.298 40.8086V51.0674C169.298 51.7835 169.316 52.224 169.352 52.3887C169.445 52.7467 169.645 53.0404 169.953 53.2695C170.268 53.4915 170.759 53.6025 171.425 53.6025V54H166.44V53.6025H166.591C166.913 53.6097 167.214 53.5596 167.493 53.4521C167.772 53.3376 167.984 53.1872 168.127 53.001C168.27 52.8148 168.381 52.5534 168.46 52.2168C168.474 52.138 168.481 51.7728 168.481 51.1211V41.9043C168.481 41.1667 168.442 40.7083 168.363 40.5293C168.285 40.3431 168.123 40.182 167.88 40.0459C167.636 39.9027 167.311 39.8311 166.902 39.8311H166.44V39.4336H172.392L176.484 49.0371ZM197.217 43.9561V51.8193C197.217 52.5856 197.288 53.0654 197.432 53.2588C197.575 53.445 197.865 53.5632 198.302 53.6133V54H194.209V52.6572C193.729 53.2301 193.249 53.6491 192.77 53.9141C192.29 54.1719 191.753 54.3008 191.158 54.3008C190.592 54.3008 190.088 54.1289 189.644 53.7852C189.207 53.4342 188.913 53.026 188.763 52.5605C188.612 52.0951 188.537 51.2822 188.537 50.1221V46.1367C188.537 45.3776 188.465 44.9049 188.322 44.7188C188.186 44.5326 187.896 44.4108 187.452 44.3535V43.9561H191.545V50.8203C191.545 51.5365 191.577 51.9984 191.642 52.2061C191.713 52.4137 191.821 52.5713 191.964 52.6787C192.114 52.7861 192.286 52.8398 192.479 52.8398C192.737 52.8398 192.97 52.7718 193.178 52.6357C193.464 52.4495 193.808 52.0736 194.209 51.5078V46.1367C194.209 45.3776 194.137 44.9049 193.994 44.7188C193.858 44.5326 193.568 44.4108 193.124 44.3535V43.9561H197.217ZM209.527 39.4336V50.9922C209.527 51.7728 209.549 52.2347 209.592 52.3779C209.649 52.6143 209.757 52.7897 209.914 52.9043C210.079 53.0189 210.362 53.0905 210.763 53.1191V53.4736L206.52 54.3008V52.7109C206.011 53.3268 205.556 53.7458 205.155 53.9678C204.761 54.1898 204.314 54.3008 203.812 54.3008C202.531 54.3008 201.517 53.7279 200.772 52.582C200.171 51.651 199.87 50.5088 199.87 49.1553C199.87 48.0739 200.056 47.1071 200.429 46.2549C200.801 45.3955 201.31 44.7474 201.954 44.3105C202.606 43.8737 203.304 43.6553 204.049 43.6553C204.529 43.6553 204.955 43.7484 205.327 43.9346C205.7 44.1208 206.097 44.4466 206.52 44.9121V41.8828C206.52 41.1165 206.487 40.6546 206.423 40.4971C206.337 40.2894 206.208 40.1354 206.036 40.0352C205.864 39.9349 205.542 39.8848 205.069 39.8848V39.4336H209.527ZM206.52 46.2441C205.99 45.2272 205.341 44.7188 204.575 44.7188C204.31 44.7188 204.092 44.7904 203.92 44.9336C203.655 45.1556 203.437 45.5459 203.265 46.1045C203.1 46.6631 203.018 47.5189 203.018 48.6719C203.018 49.9395 203.111 50.8776 203.297 51.4863C203.483 52.0951 203.737 52.5355 204.06 52.8076C204.224 52.9437 204.45 53.0117 204.736 53.0117C205.367 53.0117 205.961 52.5176 206.52 51.5293V46.2441ZM217.552 52.5176C216.327 53.599 215.228 54.1396 214.254 54.1396C213.681 54.1396 213.205 53.9535 212.825 53.5811C212.446 53.2015 212.256 52.7288 212.256 52.1631C212.256 51.3968 212.585 50.7093 213.244 50.1006C213.903 49.4847 215.339 48.6683 217.552 47.6514V46.6416C217.552 45.8825 217.509 45.4062 217.423 45.2129C217.344 45.0124 217.19 44.8405 216.961 44.6973C216.732 44.5469 216.474 44.4717 216.188 44.4717C215.722 44.4717 215.339 44.5755 215.038 44.7832C214.852 44.9121 214.759 45.0625 214.759 45.2344C214.759 45.3848 214.859 45.571 215.06 45.793C215.332 46.1009 215.468 46.3981 215.468 46.6846C215.468 47.0355 215.335 47.3363 215.07 47.5869C214.812 47.8304 214.472 47.9521 214.05 47.9521C213.599 47.9521 213.219 47.8161 212.911 47.5439C212.61 47.2718 212.46 46.9531 212.46 46.5879C212.46 46.0723 212.664 45.5817 213.072 45.1162C213.48 44.6436 214.05 44.2819 214.78 44.0312C215.511 43.7806 216.27 43.6553 217.058 43.6553C218.01 43.6553 218.762 43.8594 219.313 44.2676C219.872 44.6686 220.234 45.1055 220.398 45.5781C220.499 45.8789 220.549 46.57 220.549 47.6514V51.5508C220.549 52.0091 220.567 52.2992 220.603 52.4209C220.638 52.5355 220.692 52.6214 220.764 52.6787C220.835 52.736 220.918 52.7646 221.011 52.7646C221.197 52.7646 221.387 52.6322 221.58 52.3672L221.902 52.625C221.544 53.1549 221.172 53.5417 220.785 53.7852C220.406 54.0215 219.972 54.1396 219.485 54.1396C218.912 54.1396 218.465 54.0072 218.143 53.7422C217.82 53.4701 217.623 53.0618 217.552 52.5176ZM217.552 51.7334V48.3711C216.685 48.8796 216.041 49.4238 215.618 50.0039C215.339 50.3906 215.199 50.7809 215.199 51.1748C215.199 51.5042 215.317 51.7943 215.554 52.0449C215.733 52.2383 215.983 52.335 216.306 52.335C216.664 52.335 217.079 52.1344 217.552 51.7334ZM226.94 39.4336V51.916C226.94 52.625 227.023 53.0798 227.188 53.2803C227.352 53.4736 227.674 53.5846 228.154 53.6133V54H222.729V53.6133C223.174 53.599 223.503 53.4701 223.718 53.2266C223.861 53.0618 223.933 52.625 223.933 51.916V41.5176C223.933 40.8158 223.85 40.3682 223.686 40.1748C223.521 39.9743 223.202 39.8597 222.729 39.8311V39.4336H226.94ZM231.549 39.0898C232.014 39.0898 232.408 39.2546 232.73 39.584C233.053 39.9062 233.214 40.2965 233.214 40.7549C233.214 41.2132 233.049 41.6035 232.72 41.9258C232.397 42.248 232.007 42.4092 231.549 42.4092C231.09 42.4092 230.7 42.248 230.378 41.9258C230.056 41.6035 229.895 41.2132 229.895 40.7549C229.895 40.2965 230.056 39.9062 230.378 39.584C230.7 39.2546 231.09 39.0898 231.549 39.0898ZM233.053 43.9561V51.916C233.053 52.625 233.135 53.0798 233.3 53.2803C233.465 53.4736 233.787 53.5846 234.267 53.6133V54H228.842V53.6133C229.286 53.599 229.615 53.4701 229.83 53.2266C229.973 53.0618 230.045 52.625 230.045 51.916V46.0508C230.045 45.3418 229.963 44.8906 229.798 44.6973C229.633 44.4967 229.314 44.3822 228.842 44.3535V43.9561H233.053ZM239.863 54.4082L236.619 46.9639C236.132 45.8395 235.771 45.1484 235.534 44.8906C235.305 44.6328 235.026 44.4538 234.696 44.3535V43.9561H240.035V44.3535C239.684 44.3678 239.437 44.4359 239.294 44.5576C239.151 44.6794 239.079 44.8262 239.079 44.998C239.079 45.2702 239.258 45.8073 239.616 46.6094L241.335 50.541L242.506 47.501C242.928 46.4196 243.14 45.6676 243.14 45.2451C243.14 44.9801 243.05 44.7689 242.871 44.6113C242.699 44.4538 242.391 44.3678 241.947 44.3535V43.9561H245.31V44.3535C244.98 44.3893 244.712 44.5182 244.504 44.7402C244.296 44.9551 243.949 45.6963 243.462 46.9639L240.594 54.4082C239.87 56.2702 239.333 57.416 238.982 57.8457C238.488 58.4473 237.869 58.748 237.124 58.748C236.53 58.748 236.046 58.5762 235.674 58.2324C235.309 57.8958 235.126 57.4876 235.126 57.0078C235.126 56.5924 235.251 56.2487 235.502 55.9766C235.76 55.7044 236.075 55.5684 236.447 55.5684C236.805 55.5684 237.092 55.6829 237.307 55.9121C237.529 56.1413 237.643 56.4958 237.65 56.9756C237.658 57.2477 237.69 57.4232 237.747 57.502C237.804 57.5807 237.887 57.6201 237.994 57.6201C238.166 57.6201 238.349 57.5163 238.542 57.3086C238.828 57.0078 239.165 56.3203 239.552 55.2461L239.863 54.4082ZM251.798 52.5176C250.573 53.599 249.474 54.1396 248.5 54.1396C247.927 54.1396 247.451 53.9535 247.071 53.5811C246.692 53.2015 246.502 52.7288 246.502 52.1631C246.502 51.3968 246.831 50.7093 247.49 50.1006C248.149 49.4847 249.585 48.6683 251.798 47.6514V46.6416C251.798 45.8825 251.755 45.4062 251.669 45.2129C251.59 45.0124 251.436 44.8405 251.207 44.6973C250.978 44.5469 250.72 44.4717 250.434 44.4717C249.968 44.4717 249.585 44.5755 249.284 44.7832C249.098 44.9121 249.005 45.0625 249.005 45.2344C249.005 45.3848 249.105 45.571 249.306 45.793C249.578 46.1009 249.714 46.3981 249.714 46.6846C249.714 47.0355 249.581 47.3363 249.316 47.5869C249.059 47.8304 248.718 47.9521 248.296 47.9521C247.845 47.9521 247.465 47.8161 247.157 47.5439C246.856 47.2718 246.706 46.9531 246.706 46.5879C246.706 46.0723 246.91 45.5817 247.318 45.1162C247.727 44.6436 248.296 44.2819 249.026 44.0312C249.757 43.7806 250.516 43.6553 251.304 43.6553C252.256 43.6553 253.008 43.8594 253.56 44.2676C254.118 44.6686 254.48 45.1055 254.645 45.5781C254.745 45.8789 254.795 46.57 254.795 47.6514V51.5508C254.795 52.0091 254.813 52.2992 254.849 52.4209C254.884 52.5355 254.938 52.6214 255.01 52.6787C255.081 52.736 255.164 52.7646 255.257 52.7646C255.443 52.7646 255.633 52.6322 255.826 52.3672L256.148 52.625C255.79 53.1549 255.418 53.5417 255.031 53.7852C254.652 54.0215 254.218 54.1396 253.731 54.1396C253.159 54.1396 252.711 54.0072 252.389 53.7422C252.066 53.4701 251.869 53.0618 251.798 52.5176ZM251.798 51.7334V48.3711C250.931 48.8796 250.287 49.4238 249.864 50.0039C249.585 50.3906 249.445 50.7809 249.445 51.1748C249.445 51.5042 249.563 51.7943 249.8 52.0449C249.979 52.2383 250.229 52.335 250.552 52.335C250.91 52.335 251.325 52.1344 251.798 51.7334ZM261.423 43.9561V46.2334C262.089 45.195 262.673 44.5075 263.174 44.1709C263.675 43.8271 264.159 43.6553 264.624 43.6553C265.025 43.6553 265.344 43.7806 265.58 44.0312C265.824 44.2747 265.945 44.6221 265.945 45.0732C265.945 45.5531 265.827 45.9255 265.591 46.1904C265.362 46.4554 265.082 46.5879 264.753 46.5879C264.373 46.5879 264.044 46.4661 263.765 46.2227C263.485 45.9792 263.321 45.8431 263.271 45.8145C263.199 45.7715 263.117 45.75 263.023 45.75C262.816 45.75 262.619 45.8288 262.433 45.9863C262.139 46.2298 261.917 46.5771 261.767 47.0283C261.537 47.723 261.423 48.4893 261.423 49.3271V51.6367L261.434 52.2383C261.434 52.6465 261.459 52.9079 261.509 53.0225C261.595 53.2158 261.72 53.359 261.885 53.4521C262.057 53.5381 262.343 53.5918 262.744 53.6133V54H257.319V53.6133C257.756 53.5775 258.05 53.4593 258.2 53.2588C258.358 53.0511 258.437 52.5104 258.437 51.6367V46.083C258.437 45.5101 258.408 45.1449 258.351 44.9873C258.279 44.7868 258.175 44.64 258.039 44.5469C257.903 44.4538 257.663 44.3893 257.319 44.3535V43.9561H261.423ZM286.065 39.1006V44.1494H285.646C285.331 42.8317 284.744 41.8219 283.885 41.1201C283.025 40.4183 282.051 40.0674 280.963 40.0674C280.053 40.0674 279.219 40.3288 278.46 40.8516C277.701 41.3743 277.146 42.0583 276.795 42.9033C276.344 43.9847 276.118 45.1878 276.118 46.5127C276.118 47.8161 276.283 49.0049 276.612 50.0791C276.942 51.1462 277.457 51.9554 278.159 52.5068C278.861 53.0511 279.771 53.3232 280.888 53.3232C281.804 53.3232 282.642 53.1227 283.401 52.7217C284.168 52.3206 284.973 51.6296 285.818 50.6484V51.9053C285.002 52.7575 284.15 53.377 283.262 53.7637C282.381 54.1432 281.35 54.333 280.168 54.333C278.614 54.333 277.232 54.0215 276.021 53.3984C274.818 52.7754 273.887 51.8802 273.229 50.7129C272.577 49.5456 272.251 48.3031 272.251 46.9854C272.251 45.596 272.613 44.2783 273.336 43.0322C274.066 41.7861 275.048 40.8193 276.279 40.1318C277.518 39.4443 278.832 39.1006 280.222 39.1006C281.246 39.1006 282.327 39.3226 283.466 39.7666C284.125 40.0244 284.544 40.1533 284.723 40.1533C284.952 40.1533 285.149 40.071 285.313 39.9062C285.485 39.7344 285.596 39.4658 285.646 39.1006H286.065ZM292.758 43.6553C293.632 43.6553 294.444 43.8809 295.196 44.332C295.948 44.7832 296.518 45.4242 296.904 46.2549C297.298 47.0856 297.495 47.9951 297.495 48.9834C297.495 50.4085 297.133 51.6009 296.41 52.5605C295.536 53.7207 294.33 54.3008 292.79 54.3008C291.279 54.3008 290.115 53.7708 289.299 52.7109C288.482 51.651 288.074 50.4229 288.074 49.0264C288.074 47.5869 288.49 46.3337 289.32 45.2666C290.158 44.1924 291.304 43.6553 292.758 43.6553ZM292.801 44.418C292.436 44.418 292.12 44.5576 291.855 44.8369C291.598 45.109 291.426 45.6533 291.34 46.4697C291.261 47.279 291.222 48.4069 291.222 49.8535C291.222 50.6198 291.272 51.3359 291.372 52.002C291.451 52.5104 291.619 52.8971 291.877 53.1621C292.135 53.4271 292.428 53.5596 292.758 53.5596C293.08 53.5596 293.349 53.4701 293.563 53.291C293.843 53.0475 294.029 52.7074 294.122 52.2705C294.265 51.5902 294.337 50.2152 294.337 48.1455C294.337 46.9281 294.269 46.0938 294.133 45.6426C293.997 45.1842 293.796 44.8512 293.531 44.6436C293.345 44.4932 293.102 44.418 292.801 44.418ZM303.188 43.9561V45.2773C303.74 44.6758 304.248 44.2568 304.714 44.0205C305.187 43.777 305.702 43.6553 306.261 43.6553C306.905 43.6553 307.446 43.8057 307.883 44.1064C308.32 44.4072 308.656 44.8656 308.893 45.4814C309.465 44.8369 310.013 44.3714 310.536 44.085C311.066 43.7985 311.618 43.6553 312.19 43.6553C312.885 43.6553 313.437 43.8164 313.845 44.1387C314.26 44.4538 314.547 44.8584 314.704 45.3525C314.869 45.8395 314.951 46.6201 314.951 47.6943V51.8086C314.951 52.582 315.019 53.0618 315.155 53.248C315.299 53.4342 315.592 53.556 316.036 53.6133V54H310.848V53.6133C311.256 53.5775 311.557 53.4199 311.75 53.1406C311.879 52.9473 311.943 52.5033 311.943 51.8086V47.4902C311.943 46.5951 311.908 46.0257 311.836 45.7822C311.764 45.5387 311.65 45.3597 311.492 45.2451C311.342 45.1234 311.163 45.0625 310.955 45.0625C310.647 45.0625 310.336 45.1771 310.021 45.4062C309.705 45.6283 309.387 45.9648 309.064 46.416V51.8086C309.064 52.5319 309.125 52.9867 309.247 53.1729C309.412 53.4378 309.727 53.5846 310.192 53.6133V54H304.993V53.6133C305.272 53.599 305.491 53.5309 305.648 53.4092C305.813 53.2803 305.921 53.1299 305.971 52.958C306.028 52.779 306.057 52.3958 306.057 51.8086V47.4902C306.057 46.5807 306.021 46.0114 305.949 45.7822C305.878 45.5531 305.756 45.374 305.584 45.2451C305.419 45.1162 305.24 45.0518 305.047 45.0518C304.76 45.0518 304.499 45.127 304.263 45.2773C303.926 45.4993 303.568 45.8789 303.188 46.416V51.8086C303.188 52.5176 303.257 52.9867 303.393 53.2158C303.536 53.4378 303.829 53.5703 304.273 53.6133V54H299.096V53.6133C299.518 53.5703 299.819 53.4342 299.998 53.2051C300.12 53.0475 300.181 52.582 300.181 51.8086V46.1367C300.181 45.3776 300.109 44.9049 299.966 44.7188C299.83 44.5326 299.54 44.4108 299.096 44.3535V43.9561H303.188ZM321.515 43.9561V45.2773C322.066 44.6758 322.575 44.2568 323.04 44.0205C323.513 43.777 324.028 43.6553 324.587 43.6553C325.231 43.6553 325.772 43.8057 326.209 44.1064C326.646 44.4072 326.982 44.8656 327.219 45.4814C327.792 44.8369 328.34 44.3714 328.862 44.085C329.392 43.7985 329.944 43.6553 330.517 43.6553C331.211 43.6553 331.763 43.8164 332.171 44.1387C332.586 44.4538 332.873 44.8584 333.03 45.3525C333.195 45.8395 333.277 46.6201 333.277 47.6943V51.8086C333.277 52.582 333.345 53.0618 333.481 53.248C333.625 53.4342 333.918 53.556 334.362 53.6133V54H329.174V53.6133C329.582 53.5775 329.883 53.4199 330.076 53.1406C330.205 52.9473 330.27 52.5033 330.27 51.8086V47.4902C330.27 46.5951 330.234 46.0257 330.162 45.7822C330.09 45.5387 329.976 45.3597 329.818 45.2451C329.668 45.1234 329.489 45.0625 329.281 45.0625C328.973 45.0625 328.662 45.1771 328.347 45.4062C328.032 45.6283 327.713 45.9648 327.391 46.416V51.8086C327.391 52.5319 327.451 52.9867 327.573 53.1729C327.738 53.4378 328.053 53.5846 328.519 53.6133V54H323.319V53.6133C323.599 53.599 323.817 53.5309 323.975 53.4092C324.139 53.2803 324.247 53.1299 324.297 52.958C324.354 52.779 324.383 52.3958 324.383 51.8086V47.4902C324.383 46.5807 324.347 46.0114 324.275 45.7822C324.204 45.5531 324.082 45.374 323.91 45.2451C323.745 45.1162 323.566 45.0518 323.373 45.0518C323.087 45.0518 322.825 45.127 322.589 45.2773C322.252 45.4993 321.894 45.8789 321.515 46.416V51.8086C321.515 52.5176 321.583 52.9867 321.719 53.2158C321.862 53.4378 322.156 53.5703 322.6 53.6133V54H317.422V53.6133C317.844 53.5703 318.145 53.4342 318.324 53.2051C318.446 53.0475 318.507 52.582 318.507 51.8086V46.1367C318.507 45.3776 318.435 44.9049 318.292 44.7188C318.156 44.5326 317.866 44.4108 317.422 44.3535V43.9561H321.515ZM345.373 43.9561V51.8193C345.373 52.5856 345.445 53.0654 345.588 53.2588C345.731 53.445 346.021 53.5632 346.458 53.6133V54H342.365V52.6572C341.885 53.2301 341.406 53.6491 340.926 53.9141C340.446 54.1719 339.909 54.3008 339.314 54.3008C338.749 54.3008 338.244 54.1289 337.8 53.7852C337.363 53.4342 337.069 53.026 336.919 52.5605C336.769 52.0951 336.693 51.2822 336.693 50.1221V46.1367C336.693 45.3776 336.622 44.9049 336.479 44.7188C336.342 44.5326 336.052 44.4108 335.608 44.3535V43.9561H339.701V50.8203C339.701 51.5365 339.733 51.9984 339.798 52.2061C339.869 52.4137 339.977 52.5713 340.12 52.6787C340.271 52.7861 340.442 52.8398 340.636 52.8398C340.894 52.8398 341.126 52.7718 341.334 52.6357C341.62 52.4495 341.964 52.0736 342.365 51.5078V46.1367C342.365 45.3776 342.294 44.9049 342.15 44.7188C342.014 44.5326 341.724 44.4108 341.28 44.3535V43.9561H345.373ZM352.022 43.9561V45.2559C352.538 44.6973 353.032 44.2926 353.505 44.042C353.978 43.7842 354.486 43.6553 355.03 43.6553C355.682 43.6553 356.223 43.8379 356.652 44.2031C357.082 44.5612 357.368 45.0088 357.512 45.5459C357.626 45.9541 357.684 46.7383 357.684 47.8984V51.8086C357.684 52.582 357.752 53.0654 357.888 53.2588C358.031 53.445 358.325 53.5632 358.769 53.6133V54H353.688V53.6133C354.067 53.5632 354.339 53.4056 354.504 53.1406C354.618 52.9616 354.676 52.5176 354.676 51.8086V47.3398C354.676 46.5163 354.644 45.9971 354.579 45.7822C354.515 45.5674 354.404 45.4027 354.246 45.2881C354.096 45.1663 353.927 45.1055 353.741 45.1055C353.125 45.1055 352.552 45.5459 352.022 46.4268V51.8086C352.022 52.5605 352.09 53.0368 352.227 53.2373C352.37 53.4378 352.631 53.5632 353.011 53.6133V54H347.93V53.6133C348.352 53.5703 348.653 53.4342 348.832 53.2051C348.954 53.0475 349.015 52.582 349.015 51.8086V46.1367C349.015 45.3776 348.943 44.9049 348.8 44.7188C348.664 44.5326 348.374 44.4108 347.93 44.3535V43.9561H352.022ZM362.582 39.0898C363.048 39.0898 363.441 39.2546 363.764 39.584C364.086 39.9062 364.247 40.2965 364.247 40.7549C364.247 41.2132 364.082 41.6035 363.753 41.9258C363.431 42.248 363.04 42.4092 362.582 42.4092C362.124 42.4092 361.733 42.248 361.411 41.9258C361.089 41.6035 360.928 41.2132 360.928 40.7549C360.928 40.2965 361.089 39.9062 361.411 39.584C361.733 39.2546 362.124 39.0898 362.582 39.0898ZM364.086 43.9561V51.916C364.086 52.625 364.168 53.0798 364.333 53.2803C364.498 53.4736 364.82 53.5846 365.3 53.6133V54H359.875V53.6133C360.319 53.599 360.648 53.4701 360.863 53.2266C361.007 53.0618 361.078 52.625 361.078 51.916V46.0508C361.078 45.3418 360.996 44.8906 360.831 44.6973C360.666 44.4967 360.348 44.3822 359.875 44.3535V43.9561H364.086ZM370.273 40.2822V43.9561H372.658V45.0195H370.273V51.2178C370.273 51.7979 370.299 52.1738 370.349 52.3457C370.406 52.5104 370.503 52.6465 370.639 52.7539C370.775 52.8542 370.9 52.9043 371.015 52.9043C371.48 52.9043 371.921 52.5498 372.336 51.8408L372.658 52.0771C372.078 53.4521 371.136 54.1396 369.833 54.1396C369.196 54.1396 368.655 53.9642 368.211 53.6133C367.774 53.2552 367.495 52.8577 367.373 52.4209C367.301 52.1774 367.266 51.5186 367.266 50.4443V45.0195H365.955V44.6436C366.857 44.0062 367.624 43.3366 368.254 42.6348C368.891 41.9329 369.446 41.1488 369.919 40.2822H370.273ZM378.223 54.4082L374.979 46.9639C374.492 45.8395 374.13 45.1484 373.894 44.8906C373.664 44.6328 373.385 44.4538 373.056 44.3535V43.9561H378.395V44.3535C378.044 44.3678 377.797 44.4359 377.653 44.5576C377.51 44.6794 377.438 44.8262 377.438 44.998C377.438 45.2702 377.618 45.8073 377.976 46.6094L379.694 50.541L380.865 47.501C381.288 46.4196 381.499 45.6676 381.499 45.2451C381.499 44.9801 381.41 44.7689 381.23 44.6113C381.059 44.4538 380.751 44.3678 380.307 44.3535V43.9561H383.669V44.3535C383.34 44.3893 383.071 44.5182 382.863 44.7402C382.656 44.9551 382.308 45.6963 381.821 46.9639L378.953 54.4082C378.23 56.2702 377.693 57.416 377.342 57.8457C376.848 58.4473 376.228 58.748 375.483 58.748C374.889 58.748 374.406 58.5762 374.033 58.2324C373.668 57.8958 373.485 57.4876 373.485 57.0078C373.485 56.5924 373.611 56.2487 373.861 55.9766C374.119 55.7044 374.434 55.5684 374.807 55.5684C375.165 55.5684 375.451 55.6829 375.666 55.9121C375.888 56.1413 376.003 56.4958 376.01 56.9756C376.017 57.2477 376.049 57.4232 376.106 57.502C376.164 57.5807 376.246 57.6201 376.354 57.6201C376.525 57.6201 376.708 57.5163 376.901 57.3086C377.188 57.0078 377.524 56.3203 377.911 55.2461L378.223 54.4082ZM395.389 46.9961V51.5078C395.389 52.2526 395.428 52.7181 395.507 52.9043C395.593 53.0905 395.754 53.2552 395.99 53.3984C396.234 53.5345 396.56 53.6025 396.968 53.6025H397.451V54H389.835V53.6025H390.318C390.741 53.6025 391.081 53.5273 391.339 53.377C391.525 53.2767 391.668 53.1048 391.769 52.8613C391.847 52.6895 391.887 52.2383 391.887 51.5078V41.9258C391.887 41.181 391.847 40.7155 391.769 40.5293C391.69 40.3431 391.529 40.182 391.285 40.0459C391.049 39.9027 390.727 39.8311 390.318 39.8311H389.835V39.4336H397.451V39.8311H396.968C396.545 39.8311 396.205 39.9062 395.947 40.0566C395.761 40.1569 395.614 40.3288 395.507 40.5723C395.428 40.7441 395.389 41.1953 395.389 41.9258V46.0508H400.534V41.9258C400.534 41.181 400.495 40.7155 400.416 40.5293C400.337 40.3431 400.176 40.182 399.933 40.0459C399.689 39.9027 399.363 39.8311 398.955 39.8311H398.482V39.4336H406.088V39.8311H405.615C405.186 39.8311 404.845 39.9062 404.595 40.0566C404.409 40.1569 404.262 40.3288 404.154 40.5723C404.076 40.7441 404.036 41.1953 404.036 41.9258V51.5078C404.036 52.2526 404.076 52.7181 404.154 52.9043C404.233 53.0905 404.394 53.2552 404.638 53.3984C404.881 53.5345 405.207 53.6025 405.615 53.6025H406.088V54H398.482V53.6025H398.955C399.385 53.6025 399.725 53.5273 399.976 53.377C400.162 53.2767 400.309 53.1048 400.416 52.8613C400.495 52.6895 400.534 52.2383 400.534 51.5078V46.9961H395.389ZM416.938 43.9561V51.8193C416.938 52.5856 417.009 53.0654 417.152 53.2588C417.296 53.445 417.586 53.5632 418.022 53.6133V54H413.93V52.6572C413.45 53.2301 412.97 53.6491 412.49 53.9141C412.01 54.1719 411.473 54.3008 410.879 54.3008C410.313 54.3008 409.808 54.1289 409.364 53.7852C408.927 53.4342 408.634 53.026 408.483 52.5605C408.333 52.0951 408.258 51.2822 408.258 50.1221V46.1367C408.258 45.3776 408.186 44.9049 408.043 44.7188C407.907 44.5326 407.617 44.4108 407.173 44.3535V43.9561H411.266V50.8203C411.266 51.5365 411.298 51.9984 411.362 52.2061C411.434 52.4137 411.541 52.5713 411.685 52.6787C411.835 52.7861 412.007 52.8398 412.2 52.8398C412.458 52.8398 412.691 52.7718 412.898 52.6357C413.185 52.4495 413.529 52.0736 413.93 51.5078V46.1367C413.93 45.3776 413.858 44.9049 413.715 44.7188C413.579 44.5326 413.289 44.4108 412.845 44.3535V43.9561H416.938ZM423.372 39.4336V44.9658C424.217 44.0921 425.141 43.6553 426.144 43.6553C426.831 43.6553 427.479 43.8594 428.088 44.2676C428.697 44.6686 429.173 45.2415 429.517 45.9863C429.86 46.7311 430.032 47.5905 430.032 48.5645C430.032 49.6602 429.814 50.6556 429.377 51.5508C428.94 52.446 428.356 53.1299 427.626 53.6025C426.896 54.068 426.061 54.3008 425.123 54.3008C424.579 54.3008 424.095 54.2148 423.673 54.043C423.25 53.8711 422.835 53.5918 422.427 53.2051L420.762 54.29H420.396V41.5176C420.396 40.9375 420.371 40.5794 420.321 40.4434C420.25 40.2428 420.135 40.096 419.978 40.0029C419.827 39.9027 419.569 39.8454 419.204 39.8311V39.4336H423.372ZM423.372 45.9219V50.3906C423.372 51.3001 423.394 51.8802 423.437 52.1309C423.508 52.5534 423.68 52.8971 423.952 53.1621C424.224 53.4199 424.572 53.5488 424.994 53.5488C425.359 53.5488 425.671 53.445 425.929 53.2373C426.194 53.0296 426.412 52.6178 426.584 52.002C426.763 51.3861 426.853 50.276 426.853 48.6719C426.853 47.1322 426.659 46.0758 426.272 45.5029C425.993 45.0876 425.617 44.8799 425.145 44.8799C424.529 44.8799 423.938 45.2272 423.372 45.9219ZM443.288 50.0576H437.025V47.834H443.288V50.0576ZM463.999 39.1006V44.1494H463.58C463.265 42.8317 462.678 41.8219 461.818 41.1201C460.959 40.4183 459.985 40.0674 458.896 40.0674C457.987 40.0674 457.153 40.3288 456.394 40.8516C455.634 41.3743 455.079 42.0583 454.729 42.9033C454.277 43.9847 454.052 45.1878 454.052 46.5127C454.052 47.8161 454.216 49.0049 454.546 50.0791C454.875 51.1462 455.391 51.9554 456.093 52.5068C456.795 53.0511 457.704 53.3232 458.821 53.3232C459.738 53.3232 460.576 53.1227 461.335 52.7217C462.101 52.3206 462.907 51.6296 463.752 50.6484V51.9053C462.936 52.7575 462.083 53.377 461.195 53.7637C460.314 54.1432 459.283 54.333 458.102 54.333C456.548 54.333 455.165 54.0215 453.955 53.3984C452.752 52.7754 451.821 51.8802 451.162 50.7129C450.51 49.5456 450.185 48.3031 450.185 46.9854C450.185 45.596 450.546 44.2783 451.27 43.0322C452 41.7861 452.981 40.8193 454.213 40.1318C455.452 39.4443 456.766 39.1006 458.155 39.1006C459.179 39.1006 460.261 39.3226 461.399 39.7666C462.058 40.0244 462.477 40.1533 462.656 40.1533C462.885 40.1533 463.082 40.071 463.247 39.9062C463.419 39.7344 463.53 39.4658 463.58 39.1006H463.999ZM470.691 43.6553C471.565 43.6553 472.378 43.8809 473.13 44.332C473.882 44.7832 474.451 45.4242 474.838 46.2549C475.232 47.0856 475.429 47.9951 475.429 48.9834C475.429 50.4085 475.067 51.6009 474.344 52.5605C473.47 53.7207 472.263 54.3008 470.724 54.3008C469.213 54.3008 468.049 53.7708 467.232 52.7109C466.416 51.651 466.008 50.4229 466.008 49.0264C466.008 47.5869 466.423 46.3337 467.254 45.2666C468.092 44.1924 469.238 43.6553 470.691 43.6553ZM470.734 44.418C470.369 44.418 470.054 44.5576 469.789 44.8369C469.531 45.109 469.359 45.6533 469.273 46.4697C469.195 47.279 469.155 48.4069 469.155 49.8535C469.155 50.6198 469.205 51.3359 469.306 52.002C469.384 52.5104 469.553 52.8971 469.811 53.1621C470.068 53.4271 470.362 53.5596 470.691 53.5596C471.014 53.5596 471.282 53.4701 471.497 53.291C471.776 53.0475 471.963 52.7074 472.056 52.2705C472.199 51.5902 472.271 50.2152 472.271 48.1455C472.271 46.9281 472.202 46.0938 472.066 45.6426C471.93 45.1842 471.73 44.8512 471.465 44.6436C471.279 44.4932 471.035 44.418 470.734 44.418ZM479.371 39.0898C479.837 39.0898 480.23 39.2546 480.553 39.584C480.875 39.9062 481.036 40.2965 481.036 40.7549C481.036 41.2132 480.871 41.6035 480.542 41.9258C480.22 42.248 479.829 42.4092 479.371 42.4092C478.913 42.4092 478.522 42.248 478.2 41.9258C477.878 41.6035 477.717 41.2132 477.717 40.7549C477.717 40.2965 477.878 39.9062 478.2 39.584C478.522 39.2546 478.913 39.0898 479.371 39.0898ZM480.875 43.9561V51.916C480.875 52.625 480.957 53.0798 481.122 53.2803C481.287 53.4736 481.609 53.5846 482.089 53.6133V54H476.664V53.6133C477.108 53.599 477.438 53.4701 477.652 53.2266C477.796 53.0618 477.867 52.625 477.867 51.916V46.0508C477.867 45.3418 477.785 44.8906 477.62 44.6973C477.455 44.4967 477.137 44.3822 476.664 44.3535V43.9561H480.875ZM487.245 43.9561V45.2773C487.797 44.6758 488.305 44.2568 488.771 44.0205C489.243 43.777 489.759 43.6553 490.317 43.6553C490.962 43.6553 491.503 43.8057 491.939 44.1064C492.376 44.4072 492.713 44.8656 492.949 45.4814C493.522 44.8369 494.07 44.3714 494.593 44.085C495.123 43.7985 495.674 43.6553 496.247 43.6553C496.942 43.6553 497.493 43.8164 497.901 44.1387C498.317 44.4538 498.603 44.8584 498.761 45.3525C498.925 45.8395 499.008 46.6201 499.008 47.6943V51.8086C499.008 52.582 499.076 53.0618 499.212 53.248C499.355 53.4342 499.649 53.556 500.093 53.6133V54H494.904V53.6133C495.312 53.5775 495.613 53.4199 495.807 53.1406C495.936 52.9473 496 52.5033 496 51.8086V47.4902C496 46.5951 495.964 46.0257 495.893 45.7822C495.821 45.5387 495.706 45.3597 495.549 45.2451C495.398 45.1234 495.219 45.0625 495.012 45.0625C494.704 45.0625 494.392 45.1771 494.077 45.4062C493.762 45.6283 493.443 45.9648 493.121 46.416V51.8086C493.121 52.5319 493.182 52.9867 493.304 53.1729C493.468 53.4378 493.784 53.5846 494.249 53.6133V54H489.05V53.6133C489.329 53.599 489.548 53.5309 489.705 53.4092C489.87 53.2803 489.977 53.1299 490.027 52.958C490.085 52.779 490.113 52.3958 490.113 51.8086V47.4902C490.113 46.5807 490.077 46.0114 490.006 45.7822C489.934 45.5531 489.812 45.374 489.641 45.2451C489.476 45.1162 489.297 45.0518 489.104 45.0518C488.817 45.0518 488.556 45.127 488.319 45.2773C487.983 45.4993 487.625 45.8789 487.245 46.416V51.8086C487.245 52.5176 487.313 52.9867 487.449 53.2158C487.592 53.4378 487.886 53.5703 488.33 53.6133V54H483.152V53.6133C483.575 53.5703 483.876 53.4342 484.055 53.2051C484.176 53.0475 484.237 52.582 484.237 51.8086V46.1367C484.237 45.3776 484.166 44.9049 484.022 44.7188C483.886 44.5326 483.596 44.4108 483.152 44.3535V43.9561H487.245ZM505.292 39.4336V44.9658C506.137 44.0921 507.061 43.6553 508.063 43.6553C508.751 43.6553 509.399 43.8594 510.008 44.2676C510.617 44.6686 511.093 45.2415 511.437 45.9863C511.78 46.7311 511.952 47.5905 511.952 48.5645C511.952 49.6602 511.734 50.6556 511.297 51.5508C510.86 52.446 510.276 53.1299 509.546 53.6025C508.815 54.068 507.981 54.3008 507.043 54.3008C506.499 54.3008 506.015 54.2148 505.593 54.043C505.17 53.8711 504.755 53.5918 504.347 53.2051L502.682 54.29H502.316V41.5176C502.316 40.9375 502.291 40.5794 502.241 40.4434C502.17 40.2428 502.055 40.096 501.897 40.0029C501.747 39.9027 501.489 39.8454 501.124 39.8311V39.4336H505.292ZM505.292 45.9219V50.3906C505.292 51.3001 505.313 51.8802 505.356 52.1309C505.428 52.5534 505.6 52.8971 505.872 53.1621C506.144 53.4199 506.492 53.5488 506.914 53.5488C507.279 53.5488 507.591 53.445 507.849 53.2373C508.114 53.0296 508.332 52.6178 508.504 52.002C508.683 51.3861 508.772 50.276 508.772 48.6719C508.772 47.1322 508.579 46.0758 508.192 45.5029C507.913 45.0876 507.537 44.8799 507.064 44.8799C506.449 44.8799 505.858 45.2272 505.292 45.9219ZM519.192 52.5176C517.968 53.599 516.868 54.1396 515.895 54.1396C515.322 54.1396 514.845 53.9535 514.466 53.5811C514.086 53.2015 513.896 52.7288 513.896 52.1631C513.896 51.3968 514.226 50.7093 514.885 50.1006C515.544 49.4847 516.979 48.6683 519.192 47.6514V46.6416C519.192 45.8825 519.149 45.4062 519.063 45.2129C518.985 45.0124 518.831 44.8405 518.602 44.6973C518.372 44.5469 518.115 44.4717 517.828 44.4717C517.363 44.4717 516.979 44.5755 516.679 44.7832C516.493 44.9121 516.399 45.0625 516.399 45.2344C516.399 45.3848 516.5 45.571 516.7 45.793C516.972 46.1009 517.108 46.3981 517.108 46.6846C517.108 47.0355 516.976 47.3363 516.711 47.5869C516.453 47.8304 516.113 47.9521 515.69 47.9521C515.239 47.9521 514.86 47.8161 514.552 47.5439C514.251 47.2718 514.101 46.9531 514.101 46.5879C514.101 46.0723 514.305 45.5817 514.713 45.1162C515.121 44.6436 515.69 44.2819 516.421 44.0312C517.151 43.7806 517.91 43.6553 518.698 43.6553C519.651 43.6553 520.403 43.8594 520.954 44.2676C521.513 44.6686 521.874 45.1055 522.039 45.5781C522.139 45.8789 522.189 46.57 522.189 47.6514V51.5508C522.189 52.0091 522.207 52.2992 522.243 52.4209C522.279 52.5355 522.333 52.6214 522.404 52.6787C522.476 52.736 522.558 52.7646 522.651 52.7646C522.838 52.7646 523.027 52.6322 523.221 52.3672L523.543 52.625C523.185 53.1549 522.812 53.5417 522.426 53.7852C522.046 54.0215 521.613 54.1396 521.126 54.1396C520.553 54.1396 520.105 54.0072 519.783 53.7422C519.461 53.4701 519.264 53.0618 519.192 52.5176ZM519.192 51.7334V48.3711C518.326 48.8796 517.681 49.4238 517.259 50.0039C516.979 50.3906 516.84 50.7809 516.84 51.1748C516.84 51.5042 516.958 51.7943 517.194 52.0449C517.373 52.2383 517.624 52.335 517.946 52.335C518.304 52.335 518.72 52.1344 519.192 51.7334ZM528.635 40.2822V43.9561H531.02V45.0195H528.635V51.2178C528.635 51.7979 528.66 52.1738 528.71 52.3457C528.767 52.5104 528.864 52.6465 529 52.7539C529.136 52.8542 529.261 52.9043 529.376 52.9043C529.841 52.9043 530.282 52.5498 530.697 51.8408L531.02 52.0771C530.439 53.4521 529.498 54.1396 528.194 54.1396C527.557 54.1396 527.016 53.9642 526.572 53.6133C526.135 53.2552 525.856 52.8577 525.734 52.4209C525.663 52.1774 525.627 51.5186 525.627 50.4443V45.0195H524.316V44.6436C525.219 44.0062 525.985 43.3366 526.615 42.6348C527.253 41.9329 527.808 41.1488 528.28 40.2822H528.635ZM536.713 43.6553C537.587 43.6553 538.399 43.8809 539.151 44.332C539.903 44.7832 540.473 45.4242 540.859 46.2549C541.253 47.0856 541.45 47.9951 541.45 48.9834C541.45 50.4085 541.089 51.6009 540.365 52.5605C539.492 53.7207 538.285 54.3008 536.745 54.3008C535.234 54.3008 534.07 53.7708 533.254 52.7109C532.438 51.651 532.029 50.4229 532.029 49.0264C532.029 47.5869 532.445 46.3337 533.275 45.2666C534.113 44.1924 535.259 43.6553 536.713 43.6553ZM536.756 44.418C536.391 44.418 536.076 44.5576 535.811 44.8369C535.553 45.109 535.381 45.6533 535.295 46.4697C535.216 47.279 535.177 48.4069 535.177 49.8535C535.177 50.6198 535.227 51.3359 535.327 52.002C535.406 52.5104 535.574 52.8971 535.832 53.1621C536.09 53.4271 536.383 53.5596 536.713 53.5596C537.035 53.5596 537.304 53.4701 537.519 53.291C537.798 53.0475 537.984 52.7074 538.077 52.2705C538.22 51.5902 538.292 50.2152 538.292 48.1455C538.292 46.9281 538.224 46.0938 538.088 45.6426C537.952 45.1842 537.751 44.8512 537.486 44.6436C537.3 44.4932 537.057 44.418 536.756 44.418ZM547.144 43.9561V46.2334C547.81 45.195 548.393 44.5075 548.895 44.1709C549.396 43.8271 549.879 43.6553 550.345 43.6553C550.746 43.6553 551.064 43.7806 551.301 44.0312C551.544 44.2747 551.666 44.6221 551.666 45.0732C551.666 45.5531 551.548 45.9255 551.312 46.1904C551.082 46.4554 550.803 46.5879 550.474 46.5879C550.094 46.5879 549.765 46.4661 549.485 46.2227C549.206 45.9792 549.041 45.8431 548.991 45.8145C548.92 45.7715 548.837 45.75 548.744 45.75C548.536 45.75 548.34 45.8288 548.153 45.9863C547.86 46.2298 547.638 46.5771 547.487 47.0283C547.258 47.723 547.144 48.4893 547.144 49.3271V51.6367L547.154 52.2383C547.154 52.6465 547.179 52.9079 547.229 53.0225C547.315 53.2158 547.441 53.359 547.605 53.4521C547.777 53.5381 548.064 53.5918 548.465 53.6133V54H543.04V53.6133C543.477 53.5775 543.771 53.4593 543.921 53.2588C544.078 53.0511 544.157 52.5104 544.157 51.6367V46.083C544.157 45.5101 544.129 45.1449 544.071 44.9873C544 44.7868 543.896 44.64 543.76 44.5469C543.624 44.4538 543.384 44.3893 543.04 44.3535V43.9561H547.144ZM560.851 48.6182H555.34C555.404 49.9502 555.759 51.0029 556.403 51.7764C556.897 52.3708 557.492 52.668 558.187 52.668C558.616 52.668 559.007 52.5498 559.357 52.3135C559.708 52.07 560.084 51.6367 560.485 51.0137L560.851 51.25C560.306 52.36 559.705 53.1478 559.046 53.6133C558.387 54.0716 557.624 54.3008 556.758 54.3008C555.268 54.3008 554.14 53.7279 553.374 52.582C552.758 51.6582 552.45 50.5124 552.45 49.1445C552.45 47.4688 552.901 46.1367 553.804 45.1484C554.713 44.153 555.777 43.6553 556.994 43.6553C558.011 43.6553 558.892 44.0742 559.637 44.9121C560.389 45.7428 560.793 46.9782 560.851 48.6182ZM558.208 47.8984C558.208 46.7454 558.144 45.9541 558.015 45.5244C557.893 45.0947 557.7 44.7689 557.435 44.5469C557.284 44.418 557.084 44.3535 556.833 44.3535C556.461 44.3535 556.156 44.5361 555.92 44.9014C555.497 45.5387 555.286 46.4124 555.286 47.5225V47.8984H558.208Z" fill="#333333"/>
</svg>
