<svg width="451" height="136" viewBox="0 0 451 136" fill="none" xmlns="http://www.w3.org/2000/svg">
<ellipse cx="75.5" cy="31.5894" rx="75.5" ry="31.5894" fill="#FF0000"/>
<ellipse cx="75.5" cy="31.5894" rx="72.3542" ry="27.395" stroke="white" stroke-width="2"/>
<path d="M23.5938 19.3993V31.1743L28.9616 19.3993H23.5938Z" fill="white"/>
<path d="M30.572 19.3993V45.0903H39.1606V19.3993H30.572Z" fill="white"/>
<path d="M46.1389 30.6391L40.771 19.3993H46.1389V30.6391Z" fill="white"/>
<path d="M78.7009 44.5507V34.3029L86.6749 44.5507H78.7009Z" fill="white"/>
<path d="M95.7425 18.1704L95.682 28.4181L87.7686 18.122L95.7425 18.1704Z" fill="white"/>
<path d="M83.4848 35.3818C90.3956 42.3935 88.8008 45.0903 88.8008 45.0903H91.4588C95.7116 45.0903 97.3065 37.5392 94.6484 33.7637C91.9904 29.9882 86.9934 23.3001 86.1428 22.4371C85.2922 21.5741 85.6119 19.2011 85.6115 18.1223C85.6115 18.1223 80.8273 17.5826 79.2321 20.819C77.6369 24.0553 77.8966 29.7121 83.4848 35.3818Z" fill="white"/>
<path d="M98.5695 44.5425L101.774 30.4845L105.512 44.5425H98.5695Z" fill="white"/>
<path d="M107.648 44.5425L103.376 28.3218V18.5894H104.444H110.852L116.726 44.5425H107.648Z" fill="white"/>
<path d="M114.59 18.5894V23.9963L118.862 44.5425H127.406L122.066 18.5894H114.59Z" fill="white"/>
<path d="M48.2361 44.566L51.4402 30.508L55.1783 44.566H48.2361Z" fill="white"/>
<path d="M57.3144 44.566L53.0422 28.3453V18.6129H54.1103H60.5185L66.3926 44.566H57.3144Z" fill="white"/>
<path d="M64.2566 18.6129V24.0198L68.5287 44.566H77.0729L71.7328 18.6129H64.2566Z" fill="white"/>
<path d="M15.7715 74.4473V78.9272H15.332C15.0716 77.8937 14.7827 77.1532 14.4653 76.7056C14.1479 76.2498 13.7126 75.8877 13.1592 75.6191C12.8499 75.4727 12.3088 75.3994 11.5356 75.3994H10.3027V88.168C10.3027 89.0143 10.3475 89.5433 10.437 89.7549C10.5347 89.9665 10.7178 90.1536 10.9863 90.3164C11.263 90.471 11.6374 90.5483 12.1094 90.5483H12.6587V91H3.9917V90.5483H4.54102C5.02116 90.5483 5.40771 90.4629 5.70068 90.292C5.91227 90.1781 6.0791 89.9827 6.20117 89.7061C6.29069 89.5107 6.33545 88.998 6.33545 88.168V75.3994H5.13916C4.02425 75.3994 3.21452 75.6354 2.70996 76.1074C2.00195 76.7666 1.55436 77.7065 1.36719 78.9272H0.90332V74.4473H15.7715ZM22.1802 74.4473V81.0513C22.8068 80.3921 23.3805 79.9282 23.9014 79.6597C24.4222 79.383 24.9634 79.2446 25.5249 79.2446C26.241 79.2446 26.8514 79.4481 27.356 79.855C27.8687 80.2619 28.2064 80.742 28.3691 81.2954C28.54 81.8407 28.6255 82.7643 28.6255 84.0664V88.522C28.6255 89.3927 28.7069 89.938 28.8696 90.1577C29.0324 90.3693 29.362 90.5036 29.8584 90.5605V91H24.0723V90.5605C24.4792 90.5036 24.7843 90.3408 24.9878 90.0723C25.1343 89.8607 25.2075 89.3439 25.2075 88.522V83.4316C25.2075 82.4876 25.1709 81.8976 25.0977 81.6616C25.0244 81.4175 24.8983 81.2303 24.7192 81.1001C24.5483 80.9618 24.353 80.8926 24.1333 80.8926C23.8078 80.8926 23.4904 81.0065 23.1812 81.2344C22.8719 81.4541 22.5382 81.8447 22.1802 82.4062V88.522C22.1802 89.3358 22.2412 89.8444 22.3633 90.0479C22.5179 90.3245 22.8353 90.4954 23.3154 90.5605V91H17.5293V90.5605C18.0094 90.5117 18.3512 90.3571 18.5547 90.0967C18.693 89.9176 18.7622 89.3927 18.7622 88.522V76.9253C18.7622 76.0627 18.6808 75.5256 18.5181 75.314C18.3634 75.1024 18.0339 74.964 17.5293 74.8989V74.4473H22.1802ZM36.8164 79.2446C37.8092 79.2446 38.7329 79.501 39.5874 80.0137C40.4419 80.5264 41.0889 81.2547 41.5283 82.1987C41.9759 83.1427 42.1997 84.1763 42.1997 85.2993C42.1997 86.9188 41.7887 88.2738 40.9668 89.3643C39.974 90.6826 38.6027 91.3418 36.853 91.3418C35.1359 91.3418 33.8135 90.7396 32.8857 89.5352C31.958 88.3307 31.4941 86.9351 31.4941 85.3481C31.4941 83.7124 31.9661 82.2882 32.9102 81.0757C33.8623 79.855 35.1644 79.2446 36.8164 79.2446ZM36.8652 80.1113C36.4502 80.1113 36.0921 80.27 35.791 80.5874C35.498 80.8966 35.3027 81.5151 35.2051 82.4429C35.1156 83.3625 35.0708 84.6442 35.0708 86.2881C35.0708 87.1589 35.1278 87.9727 35.2417 88.7295C35.3312 89.3073 35.5225 89.7467 35.8154 90.0479C36.1084 90.349 36.4421 90.4995 36.8164 90.4995C37.1826 90.4995 37.4878 90.3978 37.7319 90.1943C38.0493 89.9176 38.2609 89.5311 38.3667 89.0347C38.5295 88.2616 38.6108 86.6991 38.6108 84.3472C38.6108 82.9637 38.5335 82.0156 38.3789 81.5029C38.2243 80.9821 37.9964 80.6037 37.6953 80.3677C37.4837 80.1968 37.207 80.1113 36.8652 80.1113ZM48.5962 79.5864V81.0635C49.1821 80.4287 49.7437 79.9689 50.2808 79.6841C50.8179 79.3911 51.3957 79.2446 52.0142 79.2446C52.7547 79.2446 53.3691 79.4521 53.8574 79.8672C54.3457 80.2741 54.6712 80.7827 54.834 81.3931C54.9642 81.8569 55.0293 82.748 55.0293 84.0664V88.5098C55.0293 89.3887 55.1066 89.938 55.2612 90.1577C55.424 90.3693 55.7576 90.5036 56.2622 90.5605V91H50.4883V90.5605C50.9196 90.5036 51.2288 90.3245 51.416 90.0234C51.5462 89.82 51.6113 89.3154 51.6113 88.5098V83.4316C51.6113 82.4958 51.5747 81.9058 51.5015 81.6616C51.4282 81.4175 51.3021 81.2303 51.123 81.1001C50.9521 80.9618 50.7609 80.8926 50.5493 80.8926C49.8494 80.8926 49.1984 81.3931 48.5962 82.394V88.5098C48.5962 89.3643 48.6735 89.9054 48.8281 90.1333C48.9909 90.3612 49.2879 90.5036 49.7192 90.5605V91H43.9453V90.5605C44.4255 90.5117 44.7673 90.3571 44.9707 90.0967C45.109 89.9176 45.1782 89.3887 45.1782 88.5098V82.0645C45.1782 81.2018 45.0968 80.6647 44.9341 80.4531C44.7795 80.2415 44.4499 80.1032 43.9453 80.0381V79.5864H48.5962ZM68.9453 74.4473V87.582C68.9453 88.4691 68.9697 88.994 69.0186 89.1567C69.0837 89.4253 69.2057 89.6247 69.3848 89.7549C69.5719 89.8851 69.8934 89.9665 70.3491 89.999V90.4019L65.5273 91.3418V89.5352C64.9495 90.235 64.4328 90.7111 63.9771 90.9634C63.5295 91.2157 63.0208 91.3418 62.4512 91.3418C60.9945 91.3418 59.8429 90.6908 58.9966 89.3887C58.313 88.3307 57.9712 87.0327 57.9712 85.4946C57.9712 84.2658 58.1828 83.1672 58.606 82.1987C59.0291 81.2222 59.6069 80.4857 60.3394 79.9893C61.0799 79.4928 61.8734 79.2446 62.7197 79.2446C63.265 79.2446 63.7492 79.3504 64.1724 79.562C64.5955 79.7736 65.0472 80.1439 65.5273 80.6729V77.2305C65.5273 76.3597 65.4907 75.8348 65.4175 75.6558C65.3198 75.4198 65.1733 75.2448 64.978 75.1309C64.7827 75.0169 64.4165 74.96 63.8794 74.96V74.4473H68.9453ZM65.5273 82.1865C64.9251 81.0309 64.1886 80.4531 63.3179 80.4531C63.0168 80.4531 62.7686 80.5345 62.5732 80.6973C62.2721 80.9495 62.0239 81.3931 61.8286 82.0278C61.6414 82.6626 61.5479 83.6351 61.5479 84.9453C61.5479 86.3857 61.6536 87.4518 61.8652 88.1436C62.0768 88.8353 62.3657 89.3358 62.7319 89.645C62.9191 89.7996 63.1755 89.877 63.501 89.877C64.2171 89.877 64.8926 89.3154 65.5273 88.1924V82.1865ZM78.064 89.3154C76.6724 90.5443 75.4232 91.1587 74.3164 91.1587C73.6654 91.1587 73.1242 90.9471 72.6929 90.5239C72.2616 90.0926 72.0459 89.5555 72.0459 88.9126C72.0459 88.0418 72.4202 87.2606 73.1689 86.5688C73.9176 85.869 75.5493 84.9412 78.064 83.7856V82.6382C78.064 81.7756 78.0151 81.2344 77.9175 81.0146C77.828 80.7868 77.653 80.5915 77.3926 80.4287C77.1322 80.2578 76.8392 80.1724 76.5137 80.1724C75.9847 80.1724 75.5493 80.2904 75.2075 80.5264C74.9959 80.6729 74.8901 80.8438 74.8901 81.0391C74.8901 81.21 75.0041 81.4215 75.2319 81.6738C75.5412 82.0238 75.6958 82.3615 75.6958 82.687C75.6958 83.0858 75.5452 83.4276 75.2441 83.7124C74.9512 83.9891 74.5646 84.1274 74.0845 84.1274C73.5718 84.1274 73.1405 83.9728 72.7905 83.6636C72.4487 83.3543 72.2778 82.9922 72.2778 82.5771C72.2778 81.9912 72.5098 81.4338 72.9736 80.9048C73.4375 80.3677 74.0845 79.9567 74.9146 79.6719C75.7446 79.387 76.6073 79.2446 77.5024 79.2446C78.5848 79.2446 79.4393 79.4766 80.0659 79.9404C80.7007 80.3962 81.1117 80.8926 81.2988 81.4297C81.4128 81.7715 81.4697 82.5568 81.4697 83.7856V88.2168C81.4697 88.7376 81.4901 89.0672 81.5308 89.2056C81.5715 89.3358 81.6325 89.4334 81.7139 89.4985C81.7952 89.5636 81.8888 89.5962 81.9946 89.5962C82.2062 89.5962 82.4219 89.4456 82.6416 89.1445L83.0078 89.4375C82.6009 90.0397 82.1777 90.4792 81.7383 90.7559C81.307 91.0244 80.8146 91.1587 80.2612 91.1587C79.6102 91.1587 79.1016 91.0081 78.7354 90.707C78.3691 90.3978 78.1453 89.9339 78.064 89.3154ZM78.064 88.4243V84.6035C77.0793 85.1813 76.3468 85.7998 75.8667 86.459C75.5493 86.8984 75.3906 87.342 75.3906 87.7896C75.3906 88.1639 75.5249 88.4935 75.7935 88.7783C75.9969 88.998 76.2817 89.1079 76.6479 89.1079C77.0549 89.1079 77.5269 88.88 78.064 88.4243ZM87.0117 74.0566C87.5407 74.0566 87.9883 74.2438 88.3545 74.6182C88.7207 74.9844 88.9038 75.4279 88.9038 75.9487C88.9038 76.4696 88.7166 76.9131 88.3423 77.2793C87.9761 77.6455 87.5326 77.8286 87.0117 77.8286C86.4909 77.8286 86.0474 77.6455 85.6812 77.2793C85.3149 76.9131 85.1318 76.4696 85.1318 75.9487C85.1318 75.4279 85.3149 74.9844 85.6812 74.6182C86.0474 74.2438 86.4909 74.0566 87.0117 74.0566ZM88.7207 79.5864V88.6318C88.7207 89.4375 88.8143 89.9543 89.0015 90.1821C89.1886 90.4019 89.5549 90.528 90.1001 90.5605V91H83.9355V90.5605C84.4401 90.5443 84.8145 90.3978 85.0586 90.1211C85.2214 89.9339 85.3027 89.4375 85.3027 88.6318V81.9668C85.3027 81.1611 85.2091 80.6484 85.022 80.4287C84.8348 80.2008 84.4727 80.0706 83.9355 80.0381V79.5864H88.7207ZM108.545 85.3604L113.037 74.4473H119.775V74.8989H119.238C118.75 74.8989 118.359 74.9844 118.066 75.1553C117.863 75.2692 117.7 75.4604 117.578 75.729C117.489 75.9243 117.444 76.4329 117.444 77.2549V88.168C117.444 89.0143 117.489 89.5433 117.578 89.7549C117.668 89.9665 117.851 90.1536 118.127 90.3164C118.404 90.471 118.774 90.5483 119.238 90.5483H119.775V91H111.133V90.5483H111.67C112.158 90.5483 112.549 90.4629 112.842 90.292C113.045 90.1781 113.208 89.9827 113.33 89.7061C113.42 89.5107 113.464 88.998 113.464 88.168V75.8999L107.117 91H106.824L100.378 76.0098V87.6675C100.378 88.4813 100.399 88.9818 100.439 89.1689C100.545 89.5758 100.773 89.9095 101.123 90.1699C101.481 90.4222 102.039 90.5483 102.795 90.5483V91H97.1313V90.5483H97.3022C97.6685 90.5565 98.0103 90.4995 98.3276 90.3774C98.645 90.2472 98.8851 90.0763 99.0479 89.8647C99.2106 89.6532 99.3368 89.3561 99.4263 88.9736C99.4425 88.8841 99.4507 88.4691 99.4507 87.7285V77.2549C99.4507 76.4167 99.4059 75.8958 99.3164 75.6924C99.2269 75.4808 99.0438 75.2977 98.7671 75.1431C98.4904 74.9803 98.1201 74.8989 97.6562 74.8989H97.1313V74.4473H103.894L108.545 85.3604ZM127.38 89.3154C125.989 90.5443 124.74 91.1587 123.633 91.1587C122.982 91.1587 122.441 90.9471 122.009 90.5239C121.578 90.0926 121.362 89.5555 121.362 88.9126C121.362 88.0418 121.737 87.2606 122.485 86.5688C123.234 85.869 124.866 84.9412 127.38 83.7856V82.6382C127.38 81.7756 127.332 81.2344 127.234 81.0146C127.144 80.7868 126.969 80.5915 126.709 80.4287C126.449 80.2578 126.156 80.1724 125.83 80.1724C125.301 80.1724 124.866 80.2904 124.524 80.5264C124.312 80.6729 124.207 80.8438 124.207 81.0391C124.207 81.21 124.32 81.4215 124.548 81.6738C124.858 82.0238 125.012 82.3615 125.012 82.687C125.012 83.0858 124.862 83.4276 124.561 83.7124C124.268 83.9891 123.881 84.1274 123.401 84.1274C122.888 84.1274 122.457 83.9728 122.107 83.6636C121.765 83.3543 121.594 82.9922 121.594 82.5771C121.594 81.9912 121.826 81.4338 122.29 80.9048C122.754 80.3677 123.401 79.9567 124.231 79.6719C125.061 79.387 125.924 79.2446 126.819 79.2446C127.901 79.2446 128.756 79.4766 129.382 79.9404C130.017 80.3962 130.428 80.8926 130.615 81.4297C130.729 81.7715 130.786 82.5568 130.786 83.7856V88.2168C130.786 88.7376 130.806 89.0672 130.847 89.2056C130.888 89.3358 130.949 89.4334 131.03 89.4985C131.112 89.5636 131.205 89.5962 131.311 89.5962C131.523 89.5962 131.738 89.4456 131.958 89.1445L132.324 89.4375C131.917 90.0397 131.494 90.4792 131.055 90.7559C130.623 91.0244 130.131 91.1587 129.578 91.1587C128.927 91.1587 128.418 91.0081 128.052 90.707C127.686 90.3978 127.462 89.9339 127.38 89.3154ZM127.38 88.4243V84.6035C126.396 85.1813 125.663 85.7998 125.183 86.459C124.866 86.8984 124.707 87.342 124.707 87.7896C124.707 88.1639 124.841 88.4935 125.11 88.7783C125.313 88.998 125.598 89.1079 125.964 89.1079C126.371 89.1079 126.843 88.88 127.38 88.4243ZM138.245 79.5864V81.0635C138.831 80.4287 139.392 79.9689 139.929 79.6841C140.466 79.3911 141.044 79.2446 141.663 79.2446C142.403 79.2446 143.018 79.4521 143.506 79.8672C143.994 80.2741 144.32 80.7827 144.482 81.3931C144.613 81.8569 144.678 82.748 144.678 84.0664V88.5098C144.678 89.3887 144.755 89.938 144.91 90.1577C145.072 90.3693 145.406 90.5036 145.911 90.5605V91H140.137V90.5605C140.568 90.5036 140.877 90.3245 141.064 90.0234C141.195 89.82 141.26 89.3154 141.26 88.5098V83.4316C141.26 82.4958 141.223 81.9058 141.15 81.6616C141.077 81.4175 140.951 81.2303 140.771 81.1001C140.601 80.9618 140.409 80.8926 140.198 80.8926C139.498 80.8926 138.847 81.3931 138.245 82.394V88.5098C138.245 89.3643 138.322 89.9054 138.477 90.1333C138.639 90.3612 138.936 90.5036 139.368 90.5605V91H133.594V90.5605C134.074 90.5117 134.416 90.3571 134.619 90.0967C134.757 89.9176 134.827 89.3887 134.827 88.5098V82.0645C134.827 81.2018 134.745 80.6647 134.583 80.4531C134.428 80.2415 134.098 80.1032 133.594 80.0381V79.5864H138.245ZM158.594 74.4473V87.582C158.594 88.4691 158.618 88.994 158.667 89.1567C158.732 89.4253 158.854 89.6247 159.033 89.7549C159.22 89.8851 159.542 89.9665 159.998 89.999V90.4019L155.176 91.3418V89.5352C154.598 90.235 154.081 90.7111 153.625 90.9634C153.178 91.2157 152.669 91.3418 152.1 91.3418C150.643 91.3418 149.491 90.6908 148.645 89.3887C147.961 88.3307 147.62 87.0327 147.62 85.4946C147.62 84.2658 147.831 83.1672 148.254 82.1987C148.678 81.2222 149.255 80.4857 149.988 79.9893C150.728 79.4928 151.522 79.2446 152.368 79.2446C152.913 79.2446 153.398 79.3504 153.821 79.562C154.244 79.7736 154.696 80.1439 155.176 80.6729V77.2305C155.176 76.3597 155.139 75.8348 155.066 75.6558C154.968 75.4198 154.822 75.2448 154.626 75.1309C154.431 75.0169 154.065 74.96 153.528 74.96V74.4473H158.594ZM155.176 82.1865C154.574 81.0309 153.837 80.4531 152.966 80.4531C152.665 80.4531 152.417 80.5345 152.222 80.6973C151.921 80.9495 151.672 81.3931 151.477 82.0278C151.29 82.6626 151.196 83.6351 151.196 84.9453C151.196 86.3857 151.302 87.4518 151.514 88.1436C151.725 88.8353 152.014 89.3358 152.38 89.645C152.568 89.7996 152.824 89.877 153.149 89.877C153.866 89.877 154.541 89.3154 155.176 88.1924V82.1865ZM167.712 89.3154C166.321 90.5443 165.072 91.1587 163.965 91.1587C163.314 91.1587 162.773 90.9471 162.341 90.5239C161.91 90.0926 161.694 89.5555 161.694 88.9126C161.694 88.0418 162.069 87.2606 162.817 86.5688C163.566 85.869 165.198 84.9412 167.712 83.7856V82.6382C167.712 81.7756 167.664 81.2344 167.566 81.0146C167.476 80.7868 167.301 80.5915 167.041 80.4287C166.781 80.2578 166.488 80.1724 166.162 80.1724C165.633 80.1724 165.198 80.2904 164.856 80.5264C164.644 80.6729 164.539 80.8438 164.539 81.0391C164.539 81.21 164.653 81.4215 164.88 81.6738C165.19 82.0238 165.344 82.3615 165.344 82.687C165.344 83.0858 165.194 83.4276 164.893 83.7124C164.6 83.9891 164.213 84.1274 163.733 84.1274C163.22 84.1274 162.789 83.9728 162.439 83.6636C162.097 83.3543 161.926 82.9922 161.926 82.5771C161.926 81.9912 162.158 81.4338 162.622 80.9048C163.086 80.3677 163.733 79.9567 164.563 79.6719C165.393 79.387 166.256 79.2446 167.151 79.2446C168.233 79.2446 169.088 79.4766 169.714 79.9404C170.349 80.3962 170.76 80.8926 170.947 81.4297C171.061 81.7715 171.118 82.5568 171.118 83.7856V88.2168C171.118 88.7376 171.139 89.0672 171.179 89.2056C171.22 89.3358 171.281 89.4334 171.362 89.4985C171.444 89.5636 171.537 89.5962 171.643 89.5962C171.855 89.5962 172.07 89.4456 172.29 89.1445L172.656 89.4375C172.249 90.0397 171.826 90.4792 171.387 90.7559C170.955 91.0244 170.463 91.1587 169.91 91.1587C169.259 91.1587 168.75 91.0081 168.384 90.707C168.018 90.3978 167.794 89.9339 167.712 89.3154ZM167.712 88.4243V84.6035C166.728 85.1813 165.995 85.7998 165.515 86.459C165.198 86.8984 165.039 87.342 165.039 87.7896C165.039 88.1639 165.173 88.4935 165.442 88.7783C165.645 88.998 165.93 89.1079 166.296 89.1079C166.703 89.1079 167.175 88.88 167.712 88.4243ZM178.381 74.4473V88.6318C178.381 89.4375 178.475 89.9543 178.662 90.1821C178.849 90.4019 179.215 90.528 179.761 90.5605V91H173.596V90.5605C174.101 90.5443 174.475 90.3978 174.719 90.1211C174.882 89.9339 174.963 89.4375 174.963 88.6318V76.8154C174.963 76.0179 174.87 75.5093 174.683 75.2896C174.495 75.0617 174.133 74.9315 173.596 74.8989V74.4473H178.381ZM187.17 89.3154C185.779 90.5443 184.53 91.1587 183.423 91.1587C182.772 91.1587 182.231 90.9471 181.799 90.5239C181.368 90.0926 181.152 89.5555 181.152 88.9126C181.152 88.0418 181.527 87.2606 182.275 86.5688C183.024 85.869 184.656 84.9412 187.17 83.7856V82.6382C187.17 81.7756 187.122 81.2344 187.024 81.0146C186.934 80.7868 186.759 80.5915 186.499 80.4287C186.239 80.2578 185.946 80.1724 185.62 80.1724C185.091 80.1724 184.656 80.2904 184.314 80.5264C184.102 80.6729 183.997 80.8438 183.997 81.0391C183.997 81.21 184.111 81.4215 184.338 81.6738C184.648 82.0238 184.802 82.3615 184.802 82.687C184.802 83.0858 184.652 83.4276 184.351 83.7124C184.058 83.9891 183.671 84.1274 183.191 84.1274C182.678 84.1274 182.247 83.9728 181.897 83.6636C181.555 83.3543 181.384 82.9922 181.384 82.5771C181.384 81.9912 181.616 81.4338 182.08 80.9048C182.544 80.3677 183.191 79.9567 184.021 79.6719C184.851 79.387 185.714 79.2446 186.609 79.2446C187.691 79.2446 188.546 79.4766 189.172 79.9404C189.807 80.3962 190.218 80.8926 190.405 81.4297C190.519 81.7715 190.576 82.5568 190.576 83.7856V88.2168C190.576 88.7376 190.597 89.0672 190.637 89.2056C190.678 89.3358 190.739 89.4334 190.82 89.4985C190.902 89.5636 190.995 89.5962 191.101 89.5962C191.313 89.5962 191.528 89.4456 191.748 89.1445L192.114 89.4375C191.707 90.0397 191.284 90.4792 190.845 90.7559C190.413 91.0244 189.921 91.1587 189.368 91.1587C188.717 91.1587 188.208 91.0081 187.842 90.707C187.476 90.3978 187.252 89.9339 187.17 89.3154ZM187.17 88.4243V84.6035C186.186 85.1813 185.453 85.7998 184.973 86.459C184.656 86.8984 184.497 87.342 184.497 87.7896C184.497 88.1639 184.631 88.4935 184.9 88.7783C185.103 88.998 185.388 89.1079 185.754 89.1079C186.161 89.1079 186.633 88.88 187.17 88.4243ZM210.522 74.0688L210.657 79.5864H210.156C209.92 78.203 209.338 77.0921 208.411 76.2539C207.491 75.4076 206.494 74.9844 205.42 74.9844C204.59 74.9844 203.931 75.2082 203.442 75.6558C202.962 76.0952 202.722 76.6038 202.722 77.1816C202.722 77.5479 202.808 77.8734 202.979 78.1582C203.215 78.5407 203.593 78.9191 204.114 79.2935C204.496 79.562 205.379 80.0381 206.763 80.7217C208.7 81.6738 210.006 82.5731 210.681 83.4194C211.348 84.2658 211.682 85.2342 211.682 86.3247C211.682 87.7082 211.141 88.9004 210.059 89.9014C208.984 90.8942 207.617 91.3906 205.957 91.3906C205.436 91.3906 204.944 91.3377 204.48 91.2319C204.016 91.1261 203.434 90.9268 202.734 90.6338C202.344 90.471 202.022 90.3896 201.77 90.3896C201.558 90.3896 201.335 90.471 201.099 90.6338C200.863 90.7965 200.671 91.0448 200.525 91.3784H200.073V85.1284H200.525C200.883 86.8862 201.571 88.229 202.588 89.1567C203.613 90.0763 204.716 90.5361 205.896 90.5361C206.807 90.5361 207.532 90.2879 208.069 89.7915C208.614 89.2951 208.887 88.7173 208.887 88.0581C208.887 87.6675 208.781 87.2891 208.569 86.9229C208.366 86.5566 208.053 86.2108 207.629 85.8853C207.206 85.5516 206.458 85.1203 205.383 84.5913C203.878 83.8507 202.795 83.2201 202.136 82.6992C201.477 82.1784 200.968 81.5965 200.61 80.9536C200.26 80.3107 200.085 79.6027 200.085 78.8296C200.085 77.5112 200.57 76.3882 201.538 75.4604C202.507 74.5327 203.727 74.0688 205.2 74.0688C205.737 74.0688 206.258 74.134 206.763 74.2642C207.145 74.3618 207.609 74.5449 208.154 74.8135C208.708 75.0739 209.094 75.2041 209.314 75.2041C209.526 75.2041 209.692 75.139 209.814 75.0088C209.937 74.8786 210.05 74.5653 210.156 74.0688H210.522ZM219.836 89.3154C218.445 90.5443 217.196 91.1587 216.089 91.1587C215.438 91.1587 214.897 90.9471 214.465 90.5239C214.034 90.0926 213.818 89.5555 213.818 88.9126C213.818 88.0418 214.193 87.2606 214.941 86.5688C215.69 85.869 217.322 84.9412 219.836 83.7856V82.6382C219.836 81.7756 219.788 81.2344 219.69 81.0146C219.6 80.7868 219.425 80.5915 219.165 80.4287C218.905 80.2578 218.612 80.1724 218.286 80.1724C217.757 80.1724 217.322 80.2904 216.98 80.5264C216.768 80.6729 216.663 80.8438 216.663 81.0391C216.663 81.21 216.777 81.4215 217.004 81.6738C217.314 82.0238 217.468 82.3615 217.468 82.687C217.468 83.0858 217.318 83.4276 217.017 83.7124C216.724 83.9891 216.337 84.1274 215.857 84.1274C215.344 84.1274 214.913 83.9728 214.563 83.6636C214.221 83.3543 214.05 82.9922 214.05 82.5771C214.05 81.9912 214.282 81.4338 214.746 80.9048C215.21 80.3677 215.857 79.9567 216.687 79.6719C217.517 79.387 218.38 79.2446 219.275 79.2446C220.357 79.2446 221.212 79.4766 221.838 79.9404C222.473 80.3962 222.884 80.8926 223.071 81.4297C223.185 81.7715 223.242 82.5568 223.242 83.7856V88.2168C223.242 88.7376 223.263 89.0672 223.303 89.2056C223.344 89.3358 223.405 89.4334 223.486 89.4985C223.568 89.5636 223.661 89.5962 223.767 89.5962C223.979 89.5962 224.194 89.4456 224.414 89.1445L224.78 89.4375C224.373 90.0397 223.95 90.4792 223.511 90.7559C223.079 91.0244 222.587 91.1587 222.034 91.1587C221.383 91.1587 220.874 91.0081 220.508 90.707C220.142 90.3978 219.918 89.9339 219.836 89.3154ZM219.836 88.4243V84.6035C218.852 85.1813 218.119 85.7998 217.639 86.459C217.322 86.8984 217.163 87.342 217.163 87.7896C217.163 88.1639 217.297 88.4935 217.566 88.7783C217.769 88.998 218.054 89.1079 218.42 89.1079C218.827 89.1079 219.299 88.88 219.836 88.4243ZM228.784 74.0566C229.313 74.0566 229.761 74.2438 230.127 74.6182C230.493 74.9844 230.676 75.4279 230.676 75.9487C230.676 76.4696 230.489 76.9131 230.115 77.2793C229.749 77.6455 229.305 77.8286 228.784 77.8286C228.263 77.8286 227.82 77.6455 227.454 77.2793C227.087 76.9131 226.904 76.4696 226.904 75.9487C226.904 75.4279 227.087 74.9844 227.454 74.6182C227.82 74.2438 228.263 74.0566 228.784 74.0566ZM230.493 79.5864V88.6318C230.493 89.4375 230.587 89.9543 230.774 90.1821C230.961 90.4019 231.327 90.528 231.873 90.5605V91H225.708V90.5605C226.213 90.5443 226.587 90.3978 226.831 90.1211C226.994 89.9339 227.075 89.4375 227.075 88.6318V81.9668C227.075 81.1611 226.982 80.6484 226.794 80.4287C226.607 80.2008 226.245 80.0706 225.708 80.0381V79.5864H230.493ZM238.147 91.3418L234.302 82.4917C233.838 81.4256 233.476 80.7502 233.215 80.4653C233.028 80.2537 232.751 80.1113 232.385 80.0381V79.5864H238.452V80.0381C238.07 80.0381 237.809 80.1073 237.671 80.2456C237.476 80.4246 237.378 80.6362 237.378 80.8804C237.378 81.1815 237.557 81.7471 237.915 82.5771L239.795 86.8618L241.296 83.1631C241.728 82.1051 241.943 81.3564 241.943 80.917C241.943 80.6647 241.85 80.4613 241.663 80.3066C241.484 80.1439 241.162 80.0544 240.698 80.0381V79.5864H244.434V80.0381C244.076 80.0869 243.783 80.2212 243.555 80.4409C243.327 80.6606 242.985 81.3076 242.529 82.3818L238.721 91.3418H238.147ZM251.794 89.3154C250.403 90.5443 249.154 91.1587 248.047 91.1587C247.396 91.1587 246.855 90.9471 246.423 90.5239C245.992 90.0926 245.776 89.5555 245.776 88.9126C245.776 88.0418 246.151 87.2606 246.899 86.5688C247.648 85.869 249.28 84.9412 251.794 83.7856V82.6382C251.794 81.7756 251.746 81.2344 251.648 81.0146C251.558 80.7868 251.383 80.5915 251.123 80.4287C250.863 80.2578 250.57 80.1724 250.244 80.1724C249.715 80.1724 249.28 80.2904 248.938 80.5264C248.726 80.6729 248.621 80.8438 248.621 81.0391C248.621 81.21 248.735 81.4215 248.962 81.6738C249.272 82.0238 249.426 82.3615 249.426 82.687C249.426 83.0858 249.276 83.4276 248.975 83.7124C248.682 83.9891 248.295 84.1274 247.815 84.1274C247.302 84.1274 246.871 83.9728 246.521 83.6636C246.179 83.3543 246.008 82.9922 246.008 82.5771C246.008 81.9912 246.24 81.4338 246.704 80.9048C247.168 80.3677 247.815 79.9567 248.645 79.6719C249.475 79.387 250.338 79.2446 251.233 79.2446C252.315 79.2446 253.17 79.4766 253.796 79.9404C254.431 80.3962 254.842 80.8926 255.029 81.4297C255.143 81.7715 255.2 82.5568 255.2 83.7856V88.2168C255.2 88.7376 255.221 89.0672 255.261 89.2056C255.302 89.3358 255.363 89.4334 255.444 89.4985C255.526 89.5636 255.619 89.5962 255.725 89.5962C255.937 89.5962 256.152 89.4456 256.372 89.1445L256.738 89.4375C256.331 90.0397 255.908 90.4792 255.469 90.7559C255.037 91.0244 254.545 91.1587 253.992 91.1587C253.341 91.1587 252.832 91.0081 252.466 90.707C252.1 90.3978 251.876 89.9339 251.794 89.3154ZM251.794 88.4243V84.6035C250.81 85.1813 250.077 85.7998 249.597 86.459C249.28 86.8984 249.121 87.342 249.121 87.7896C249.121 88.1639 249.255 88.4935 249.524 88.7783C249.727 88.998 250.012 89.1079 250.378 89.1079C250.785 89.1079 251.257 88.88 251.794 88.4243ZM275.317 85.3604L279.81 74.4473H286.548V74.8989H286.011C285.522 74.8989 285.132 74.9844 284.839 75.1553C284.635 75.2692 284.473 75.4604 284.351 75.729C284.261 75.9243 284.216 76.4329 284.216 77.2549V88.168C284.216 89.0143 284.261 89.5433 284.351 89.7549C284.44 89.9665 284.623 90.1536 284.9 90.3164C285.177 90.471 285.547 90.5483 286.011 90.5483H286.548V91H277.905V90.5483H278.442C278.931 90.5483 279.321 90.4629 279.614 90.292C279.818 90.1781 279.98 89.9827 280.103 89.7061C280.192 89.5107 280.237 88.998 280.237 88.168V75.8999L273.889 91H273.596L267.151 76.0098V87.6675C267.151 88.4813 267.171 88.9818 267.212 89.1689C267.318 89.5758 267.546 89.9095 267.896 90.1699C268.254 90.4222 268.811 90.5483 269.568 90.5483V91H263.904V90.5483H264.075C264.441 90.5565 264.783 90.4995 265.1 90.3774C265.417 90.2472 265.658 90.0763 265.82 89.8647C265.983 89.6532 266.109 89.3561 266.199 88.9736C266.215 88.8841 266.223 88.4691 266.223 87.7285V77.2549C266.223 76.4167 266.178 75.8958 266.089 75.6924C265.999 75.4808 265.816 75.2977 265.54 75.1431C265.263 74.9803 264.893 74.8989 264.429 74.8989H263.904V74.4473H270.667L275.317 85.3604ZM298.877 79.5864V88.522C298.877 89.3927 298.958 89.938 299.121 90.1577C299.284 90.3693 299.613 90.5036 300.11 90.5605V91H295.459V89.4741C294.914 90.1252 294.368 90.6012 293.823 90.9023C293.278 91.1953 292.668 91.3418 291.992 91.3418C291.349 91.3418 290.776 91.1465 290.271 90.7559C289.775 90.3571 289.441 89.8932 289.27 89.3643C289.099 88.8353 289.014 87.9116 289.014 86.5933V82.0645C289.014 81.2018 288.932 80.6647 288.77 80.4531C288.615 80.2415 288.285 80.1032 287.781 80.0381V79.5864H292.432V87.3867C292.432 88.2005 292.468 88.7254 292.542 88.9614C292.623 89.1974 292.745 89.3765 292.908 89.4985C293.079 89.6206 293.274 89.6816 293.494 89.6816C293.787 89.6816 294.051 89.6043 294.287 89.4497C294.613 89.2381 295.003 88.8109 295.459 88.168V82.0645C295.459 81.2018 295.378 80.6647 295.215 80.4531C295.06 80.2415 294.731 80.1032 294.226 80.0381V79.5864H298.877ZM312.866 74.4473V87.582C312.866 88.4691 312.891 88.994 312.939 89.1567C313.005 89.4253 313.127 89.6247 313.306 89.7549C313.493 89.8851 313.814 89.9665 314.27 89.999V90.4019L309.448 91.3418V89.5352C308.87 90.235 308.354 90.7111 307.898 90.9634C307.45 91.2157 306.942 91.3418 306.372 91.3418C304.915 91.3418 303.764 90.6908 302.917 89.3887C302.234 88.3307 301.892 87.0327 301.892 85.4946C301.892 84.2658 302.104 83.1672 302.527 82.1987C302.95 81.2222 303.528 80.4857 304.26 79.9893C305.001 79.4928 305.794 79.2446 306.641 79.2446C307.186 79.2446 307.67 79.3504 308.093 79.562C308.516 79.7736 308.968 80.1439 309.448 80.6729V77.2305C309.448 76.3597 309.412 75.8348 309.338 75.6558C309.241 75.4198 309.094 75.2448 308.899 75.1309C308.704 75.0169 308.337 74.96 307.8 74.96V74.4473H312.866ZM309.448 82.1865C308.846 81.0309 308.11 80.4531 307.239 80.4531C306.938 80.4531 306.689 80.5345 306.494 80.6973C306.193 80.9495 305.945 81.3931 305.75 82.0278C305.562 82.6626 305.469 83.6351 305.469 84.9453C305.469 86.3857 305.575 87.4518 305.786 88.1436C305.998 88.8353 306.287 89.3358 306.653 89.645C306.84 89.7996 307.096 89.877 307.422 89.877C308.138 89.877 308.813 89.3154 309.448 88.1924V82.1865ZM321.985 89.3154C320.593 90.5443 319.344 91.1587 318.237 91.1587C317.586 91.1587 317.045 90.9471 316.614 90.5239C316.182 90.0926 315.967 89.5555 315.967 88.9126C315.967 88.0418 316.341 87.2606 317.09 86.5688C317.839 85.869 319.47 84.9412 321.985 83.7856V82.6382C321.985 81.7756 321.936 81.2344 321.838 81.0146C321.749 80.7868 321.574 80.5915 321.313 80.4287C321.053 80.2578 320.76 80.1724 320.435 80.1724C319.906 80.1724 319.47 80.2904 319.128 80.5264C318.917 80.6729 318.811 80.8438 318.811 81.0391C318.811 81.21 318.925 81.4215 319.153 81.6738C319.462 82.0238 319.617 82.3615 319.617 82.687C319.617 83.0858 319.466 83.4276 319.165 83.7124C318.872 83.9891 318.486 84.1274 318.005 84.1274C317.493 84.1274 317.061 83.9728 316.711 83.6636C316.37 83.3543 316.199 82.9922 316.199 82.5771C316.199 81.9912 316.431 81.4338 316.895 80.9048C317.358 80.3677 318.005 79.9567 318.835 79.6719C319.666 79.387 320.528 79.2446 321.423 79.2446C322.506 79.2446 323.36 79.4766 323.987 79.9404C324.622 80.3962 325.033 80.8926 325.22 81.4297C325.334 81.7715 325.391 82.5568 325.391 83.7856V88.2168C325.391 88.7376 325.411 89.0672 325.452 89.2056C325.492 89.3358 325.553 89.4334 325.635 89.4985C325.716 89.5636 325.81 89.5962 325.916 89.5962C326.127 89.5962 326.343 89.4456 326.562 89.1445L326.929 89.4375C326.522 90.0397 326.099 90.4792 325.659 90.7559C325.228 91.0244 324.736 91.1587 324.182 91.1587C323.531 91.1587 323.022 91.0081 322.656 90.707C322.29 90.3978 322.066 89.9339 321.985 89.3154ZM321.985 88.4243V84.6035C321 85.1813 320.268 85.7998 319.788 86.459C319.47 86.8984 319.312 87.342 319.312 87.7896C319.312 88.1639 319.446 88.4935 319.714 88.7783C319.918 88.998 320.203 89.1079 320.569 89.1079C320.976 89.1079 321.448 88.88 321.985 88.4243ZM332.654 74.4473V88.6318C332.654 89.4375 332.747 89.9543 332.935 90.1821C333.122 90.4019 333.488 90.528 334.033 90.5605V91H327.869V90.5605C328.373 90.5443 328.748 90.3978 328.992 90.1211C329.154 89.9339 329.236 89.4375 329.236 88.6318V76.8154C329.236 76.0179 329.142 75.5093 328.955 75.2896C328.768 75.0617 328.406 74.9315 327.869 74.8989V74.4473H332.654ZM337.891 74.0566C338.42 74.0566 338.867 74.2438 339.233 74.6182C339.6 74.9844 339.783 75.4279 339.783 75.9487C339.783 76.4696 339.596 76.9131 339.221 77.2793C338.855 77.6455 338.411 77.8286 337.891 77.8286C337.37 77.8286 336.926 77.6455 336.56 77.2793C336.194 76.9131 336.011 76.4696 336.011 75.9487C336.011 75.4279 336.194 74.9844 336.56 74.6182C336.926 74.2438 337.37 74.0566 337.891 74.0566ZM339.6 79.5864V88.6318C339.6 89.4375 339.693 89.9543 339.88 90.1821C340.068 90.4019 340.434 90.528 340.979 90.5605V91H334.814V90.5605C335.319 90.5443 335.693 90.3978 335.938 90.1211C336.1 89.9339 336.182 89.4375 336.182 88.6318V81.9668C336.182 81.1611 336.088 80.6484 335.901 80.4287C335.714 80.2008 335.352 80.0706 334.814 80.0381V79.5864H339.6ZM347.339 91.4639L343.652 83.0044C343.099 81.7267 342.688 80.9414 342.419 80.6484C342.159 80.3555 341.842 80.152 341.467 80.0381V79.5864H347.534V80.0381C347.135 80.0544 346.855 80.1317 346.692 80.27C346.529 80.4084 346.448 80.5752 346.448 80.7705C346.448 81.0798 346.651 81.6901 347.058 82.6016L349.011 87.0693L350.342 83.6147C350.822 82.3859 351.062 81.5314 351.062 81.0513C351.062 80.7502 350.96 80.5101 350.757 80.3311C350.562 80.152 350.212 80.0544 349.707 80.0381V79.5864H353.528V80.0381C353.153 80.0788 352.848 80.2253 352.612 80.4775C352.376 80.7217 351.982 81.564 351.428 83.0044L348.169 91.4639C347.347 93.5798 346.737 94.8818 346.338 95.3701C345.776 96.0537 345.072 96.3955 344.226 96.3955C343.551 96.3955 343.001 96.2002 342.578 95.8096C342.163 95.4271 341.956 94.9632 341.956 94.418C341.956 93.946 342.098 93.5553 342.383 93.2461C342.676 92.9368 343.034 92.7822 343.457 92.7822C343.864 92.7822 344.189 92.9124 344.434 93.1729C344.686 93.4333 344.816 93.8361 344.824 94.3813C344.832 94.6906 344.869 94.89 344.934 94.9795C344.999 95.069 345.093 95.1138 345.215 95.1138C345.41 95.1138 345.618 94.9958 345.837 94.7598C346.163 94.418 346.545 93.6367 346.985 92.416L347.339 91.4639ZM360.901 89.3154C359.509 90.5443 358.26 91.1587 357.153 91.1587C356.502 91.1587 355.961 90.9471 355.53 90.5239C355.098 90.0926 354.883 89.5555 354.883 88.9126C354.883 88.0418 355.257 87.2606 356.006 86.5688C356.755 85.869 358.386 84.9412 360.901 83.7856V82.6382C360.901 81.7756 360.852 81.2344 360.754 81.0146C360.665 80.7868 360.49 80.5915 360.229 80.4287C359.969 80.2578 359.676 80.1724 359.351 80.1724C358.822 80.1724 358.386 80.2904 358.044 80.5264C357.833 80.6729 357.727 80.8438 357.727 81.0391C357.727 81.21 357.841 81.4215 358.069 81.6738C358.378 82.0238 358.533 82.3615 358.533 82.687C358.533 83.0858 358.382 83.4276 358.081 83.7124C357.788 83.9891 357.402 84.1274 356.921 84.1274C356.409 84.1274 355.977 83.9728 355.627 83.6636C355.286 83.3543 355.115 82.9922 355.115 82.5771C355.115 81.9912 355.347 81.4338 355.811 80.9048C356.274 80.3677 356.921 79.9567 357.751 79.6719C358.582 79.387 359.444 79.2446 360.339 79.2446C361.422 79.2446 362.276 79.4766 362.903 79.9404C363.538 80.3962 363.949 80.8926 364.136 81.4297C364.25 81.7715 364.307 82.5568 364.307 83.7856V88.2168C364.307 88.7376 364.327 89.0672 364.368 89.2056C364.408 89.3358 364.469 89.4334 364.551 89.4985C364.632 89.5636 364.726 89.5962 364.832 89.5962C365.043 89.5962 365.259 89.4456 365.479 89.1445L365.845 89.4375C365.438 90.0397 365.015 90.4792 364.575 90.7559C364.144 91.0244 363.652 91.1587 363.098 91.1587C362.447 91.1587 361.938 91.0081 361.572 90.707C361.206 90.3978 360.982 89.9339 360.901 89.3154ZM360.901 88.4243V84.6035C359.916 85.1813 359.184 85.7998 358.704 86.459C358.386 86.8984 358.228 87.342 358.228 87.7896C358.228 88.1639 358.362 88.4935 358.63 88.7783C358.834 88.998 359.119 89.1079 359.485 89.1079C359.892 89.1079 360.364 88.88 360.901 88.4243ZM371.838 79.5864V82.1743C372.595 80.9943 373.258 80.2131 373.828 79.8306C374.398 79.4399 374.947 79.2446 375.476 79.2446C375.932 79.2446 376.294 79.387 376.562 79.6719C376.839 79.9486 376.978 80.3433 376.978 80.856C376.978 81.4012 376.843 81.8244 376.575 82.1255C376.314 82.4266 375.997 82.5771 375.623 82.5771C375.191 82.5771 374.817 82.4388 374.5 82.1621C374.182 81.8854 373.995 81.7308 373.938 81.6982C373.857 81.6494 373.763 81.625 373.657 81.625C373.421 81.625 373.197 81.7145 372.986 81.8936C372.652 82.1702 372.4 82.5649 372.229 83.0776C371.969 83.867 371.838 84.7378 371.838 85.6899V88.3145L371.851 88.998C371.851 89.4619 371.879 89.759 371.936 89.8892C372.034 90.1089 372.176 90.2716 372.363 90.3774C372.559 90.4751 372.884 90.5361 373.34 90.5605V91H367.175V90.5605C367.672 90.5199 368.005 90.3856 368.176 90.1577C368.355 89.9217 368.445 89.3073 368.445 88.3145V82.0034C368.445 81.3524 368.412 80.9373 368.347 80.7583C368.266 80.5304 368.148 80.3636 367.993 80.2578C367.839 80.152 367.566 80.0788 367.175 80.0381V79.5864H371.838ZM16.687 103.069V108.806H16.2109C15.8529 107.309 15.1855 106.161 14.209 105.364C13.2324 104.566 12.1257 104.167 10.8887 104.167C9.85514 104.167 8.90706 104.465 8.04443 105.059C7.1818 105.653 6.55111 106.43 6.15234 107.39C5.63965 108.619 5.3833 109.986 5.3833 111.492C5.3833 112.973 5.57048 114.324 5.94482 115.544C6.31917 116.757 6.90511 117.677 7.70264 118.303C8.50016 118.922 9.53369 119.231 10.8032 119.231C11.8449 119.231 12.797 119.003 13.6597 118.547C14.5304 118.092 15.446 117.306 16.4062 116.191V117.62C15.4785 118.588 14.5101 119.292 13.501 119.731C12.5 120.163 11.3281 120.378 9.98535 120.378C8.2194 120.378 6.64876 120.024 5.27344 119.316C3.90625 118.608 2.84831 117.591 2.09961 116.265C1.35905 114.938 0.98877 113.526 0.98877 112.029C0.98877 110.45 1.39974 108.953 2.22168 107.537C3.05176 106.121 4.16667 105.022 5.56641 104.241C6.97428 103.459 8.46761 103.069 10.0464 103.069C11.2101 103.069 12.439 103.321 13.7329 103.826C14.4816 104.119 14.9577 104.265 15.1611 104.265C15.4215 104.265 15.6453 104.172 15.8325 103.984C16.0278 103.789 16.154 103.484 16.2109 103.069H16.687ZM24.292 108.245C25.2848 108.245 26.2085 108.501 27.063 109.014C27.9175 109.526 28.5645 110.255 29.0039 111.199C29.4515 112.143 29.6753 113.176 29.6753 114.299C29.6753 115.919 29.2643 117.274 28.4424 118.364C27.4495 119.683 26.0783 120.342 24.3286 120.342C22.6115 120.342 21.2891 119.74 20.3613 118.535C19.4336 117.331 18.9697 115.935 18.9697 114.348C18.9697 112.712 19.4417 111.288 20.3857 110.076C21.3379 108.855 22.64 108.245 24.292 108.245ZM24.3408 109.111C23.9258 109.111 23.5677 109.27 23.2666 109.587C22.9736 109.897 22.7783 110.515 22.6807 111.443C22.5911 112.362 22.5464 113.644 22.5464 115.288C22.5464 116.159 22.6034 116.973 22.7173 117.729C22.8068 118.307 22.998 118.747 23.291 119.048C23.584 119.349 23.9176 119.5 24.292 119.5C24.6582 119.5 24.9634 119.398 25.2075 119.194C25.5249 118.918 25.7365 118.531 25.8423 118.035C26.005 117.262 26.0864 115.699 26.0864 113.347C26.0864 111.964 26.0091 111.016 25.8545 110.503C25.6999 109.982 25.472 109.604 25.1709 109.368C24.9593 109.197 24.6826 109.111 24.3408 109.111ZM36.145 108.586V110.088C36.7716 109.404 37.3494 108.928 37.8784 108.66C38.4155 108.383 39.0015 108.245 39.6362 108.245C40.3687 108.245 40.9831 108.416 41.4795 108.757C41.9759 109.099 42.3584 109.62 42.627 110.32C43.278 109.587 43.9006 109.058 44.4946 108.733C45.0968 108.407 45.7235 108.245 46.3745 108.245C47.1639 108.245 47.7905 108.428 48.2544 108.794C48.7264 109.152 49.0519 109.612 49.231 110.173C49.4181 110.727 49.5117 111.614 49.5117 112.834V117.51C49.5117 118.389 49.589 118.934 49.7437 119.146C49.9064 119.357 50.2401 119.495 50.7446 119.561V120H44.8486V119.561C45.3125 119.52 45.6543 119.341 45.874 119.023C46.0205 118.804 46.0938 118.299 46.0938 117.51V112.603C46.0938 111.585 46.0531 110.938 45.9717 110.662C45.8903 110.385 45.7601 110.181 45.5811 110.051C45.4102 109.913 45.2067 109.844 44.9707 109.844C44.6208 109.844 44.2668 109.974 43.9087 110.234C43.5506 110.487 43.1885 110.869 42.8223 111.382V117.51C42.8223 118.332 42.8914 118.848 43.0298 119.06C43.217 119.361 43.575 119.528 44.104 119.561V120H38.1958V119.561C38.5132 119.544 38.7614 119.467 38.9404 119.329C39.1276 119.182 39.2497 119.011 39.3066 118.816C39.3717 118.612 39.4043 118.177 39.4043 117.51V112.603C39.4043 111.569 39.3636 110.922 39.2822 110.662C39.2008 110.401 39.0625 110.198 38.8672 110.051C38.68 109.905 38.4766 109.832 38.2568 109.832C37.9313 109.832 37.6343 109.917 37.3657 110.088C36.9832 110.34 36.5763 110.771 36.145 111.382V117.51C36.145 118.315 36.2223 118.848 36.377 119.109C36.5397 119.361 36.8734 119.512 37.3779 119.561V120H31.4941V119.561C31.9743 119.512 32.3161 119.357 32.5195 119.097C32.6579 118.918 32.7271 118.389 32.7271 117.51V111.064C32.7271 110.202 32.6457 109.665 32.4829 109.453C32.3283 109.242 31.9987 109.103 31.4941 109.038V108.586H36.145ZM56.9702 108.586V110.088C57.5968 109.404 58.1746 108.928 58.7036 108.66C59.2407 108.383 59.8267 108.245 60.4614 108.245C61.1938 108.245 61.8083 108.416 62.3047 108.757C62.8011 109.099 63.1836 109.62 63.4521 110.32C64.1032 109.587 64.7257 109.058 65.3198 108.733C65.922 108.407 66.5487 108.245 67.1997 108.245C67.9891 108.245 68.6157 108.428 69.0796 108.794C69.5516 109.152 69.8771 109.612 70.0562 110.173C70.2433 110.727 70.3369 111.614 70.3369 112.834V117.51C70.3369 118.389 70.4142 118.934 70.5688 119.146C70.7316 119.357 71.0653 119.495 71.5698 119.561V120H65.6738V119.561C66.1377 119.52 66.4795 119.341 66.6992 119.023C66.8457 118.804 66.9189 118.299 66.9189 117.51V112.603C66.9189 111.585 66.8783 110.938 66.7969 110.662C66.7155 110.385 66.5853 110.181 66.4062 110.051C66.2354 109.913 66.0319 109.844 65.7959 109.844C65.446 109.844 65.092 109.974 64.7339 110.234C64.3758 110.487 64.0137 110.869 63.6475 111.382V117.51C63.6475 118.332 63.7166 118.848 63.855 119.06C64.0422 119.361 64.4002 119.528 64.9292 119.561V120H59.021V119.561C59.3384 119.544 59.5866 119.467 59.7656 119.329C59.9528 119.182 60.0749 119.011 60.1318 118.816C60.1969 118.612 60.2295 118.177 60.2295 117.51V112.603C60.2295 111.569 60.1888 110.922 60.1074 110.662C60.026 110.401 59.8877 110.198 59.6924 110.051C59.5052 109.905 59.3018 109.832 59.082 109.832C58.7565 109.832 58.4595 109.917 58.1909 110.088C57.8084 110.34 57.4015 110.771 56.9702 111.382V117.51C56.9702 118.315 57.0475 118.848 57.2021 119.109C57.3649 119.361 57.6986 119.512 58.2031 119.561V120H52.3193V119.561C52.7995 119.512 53.1413 119.357 53.3447 119.097C53.4831 118.918 53.5522 118.389 53.5522 117.51V111.064C53.5522 110.202 53.4709 109.665 53.3081 109.453C53.1535 109.242 52.8239 109.103 52.3193 109.038V108.586H56.9702ZM84.082 108.586V117.522C84.082 118.393 84.1634 118.938 84.3262 119.158C84.4889 119.369 84.8185 119.504 85.3149 119.561V120H80.6641V118.474C80.1188 119.125 79.5736 119.601 79.0283 119.902C78.4831 120.195 77.8727 120.342 77.1973 120.342C76.5544 120.342 75.9806 120.146 75.4761 119.756C74.9797 119.357 74.646 118.893 74.4751 118.364C74.3042 117.835 74.2188 116.912 74.2188 115.593V111.064C74.2188 110.202 74.1374 109.665 73.9746 109.453C73.82 109.242 73.4904 109.103 72.9858 109.038V108.586H77.6367V116.387C77.6367 117.201 77.6733 117.725 77.7466 117.961C77.828 118.197 77.95 118.376 78.1128 118.499C78.2837 118.621 78.479 118.682 78.6987 118.682C78.9917 118.682 79.2562 118.604 79.4922 118.45C79.8177 118.238 80.2083 117.811 80.6641 117.168V111.064C80.6641 110.202 80.5827 109.665 80.4199 109.453C80.2653 109.242 79.9357 109.103 79.4312 109.038V108.586H84.082ZM91.6382 108.586V110.063C92.2241 109.429 92.7856 108.969 93.3228 108.684C93.8599 108.391 94.4377 108.245 95.0562 108.245C95.7967 108.245 96.4111 108.452 96.8994 108.867C97.3877 109.274 97.7132 109.783 97.876 110.393C98.0062 110.857 98.0713 111.748 98.0713 113.066V117.51C98.0713 118.389 98.1486 118.938 98.3032 119.158C98.466 119.369 98.7996 119.504 99.3042 119.561V120H93.5303V119.561C93.9616 119.504 94.2708 119.325 94.458 119.023C94.5882 118.82 94.6533 118.315 94.6533 117.51V112.432C94.6533 111.496 94.6167 110.906 94.5435 110.662C94.4702 110.417 94.3441 110.23 94.165 110.1C93.9941 109.962 93.8029 109.893 93.5913 109.893C92.8914 109.893 92.2404 110.393 91.6382 111.394V117.51C91.6382 118.364 91.7155 118.905 91.8701 119.133C92.0329 119.361 92.3299 119.504 92.7612 119.561V120H86.9873V119.561C87.4674 119.512 87.8092 119.357 88.0127 119.097C88.151 118.918 88.2202 118.389 88.2202 117.51V111.064C88.2202 110.202 88.1388 109.665 87.9761 109.453C87.8215 109.242 87.4919 109.103 86.9873 109.038V108.586H91.6382ZM103.638 103.057C104.167 103.057 104.614 103.244 104.98 103.618C105.347 103.984 105.53 104.428 105.53 104.949C105.53 105.47 105.343 105.913 104.968 106.279C104.602 106.646 104.159 106.829 103.638 106.829C103.117 106.829 102.673 106.646 102.307 106.279C101.941 105.913 101.758 105.47 101.758 104.949C101.758 104.428 101.941 103.984 102.307 103.618C102.673 103.244 103.117 103.057 103.638 103.057ZM105.347 108.586V117.632C105.347 118.438 105.44 118.954 105.627 119.182C105.815 119.402 106.181 119.528 106.726 119.561V120H100.562V119.561C101.066 119.544 101.44 119.398 101.685 119.121C101.847 118.934 101.929 118.438 101.929 117.632V110.967C101.929 110.161 101.835 109.648 101.648 109.429C101.461 109.201 101.099 109.071 100.562 109.038V108.586H105.347ZM112.378 104.412V108.586H115.088V109.795H112.378V116.838C112.378 117.498 112.406 117.925 112.463 118.12C112.528 118.307 112.638 118.462 112.793 118.584C112.948 118.698 113.09 118.755 113.22 118.755C113.749 118.755 114.25 118.352 114.722 117.546L115.088 117.815C114.429 119.377 113.359 120.159 111.877 120.159C111.153 120.159 110.539 119.959 110.034 119.561C109.538 119.154 109.22 118.702 109.082 118.206C109.001 117.929 108.96 117.18 108.96 115.959V109.795H107.471V109.368C108.496 108.643 109.367 107.882 110.083 107.085C110.807 106.287 111.438 105.396 111.975 104.412H112.378ZM121.411 120.464L117.725 112.004C117.171 110.727 116.76 109.941 116.492 109.648C116.231 109.355 115.914 109.152 115.54 109.038V108.586H121.606V109.038C121.208 109.054 120.927 109.132 120.764 109.27C120.601 109.408 120.52 109.575 120.52 109.771C120.52 110.08 120.723 110.69 121.13 111.602L123.083 116.069L124.414 112.615C124.894 111.386 125.134 110.531 125.134 110.051C125.134 109.75 125.033 109.51 124.829 109.331C124.634 109.152 124.284 109.054 123.779 109.038V108.586H127.6V109.038C127.226 109.079 126.921 109.225 126.685 109.478C126.449 109.722 126.054 110.564 125.5 112.004L122.241 120.464C121.419 122.58 120.809 123.882 120.41 124.37C119.849 125.054 119.145 125.396 118.298 125.396C117.623 125.396 117.074 125.2 116.65 124.81C116.235 124.427 116.028 123.963 116.028 123.418C116.028 122.946 116.17 122.555 116.455 122.246C116.748 121.937 117.106 121.782 117.529 121.782C117.936 121.782 118.262 121.912 118.506 122.173C118.758 122.433 118.888 122.836 118.896 123.381C118.905 123.691 118.941 123.89 119.006 123.979C119.071 124.069 119.165 124.114 119.287 124.114C119.482 124.114 119.69 123.996 119.91 123.76C120.235 123.418 120.618 122.637 121.057 121.416L121.411 120.464ZM140.918 112.041V117.168C140.918 118.014 140.963 118.543 141.052 118.755C141.15 118.966 141.333 119.154 141.602 119.316C141.878 119.471 142.249 119.548 142.712 119.548H143.262V120H134.607V119.548H135.156C135.636 119.548 136.023 119.463 136.316 119.292C136.528 119.178 136.69 118.983 136.804 118.706C136.894 118.511 136.938 117.998 136.938 117.168V106.279C136.938 105.433 136.894 104.904 136.804 104.692C136.715 104.481 136.532 104.298 136.255 104.143C135.986 103.98 135.62 103.899 135.156 103.899H134.607V103.447H143.262V103.899H142.712C142.232 103.899 141.846 103.984 141.553 104.155C141.341 104.269 141.174 104.465 141.052 104.741C140.963 104.937 140.918 105.449 140.918 106.279V110.967H146.765V106.279C146.765 105.433 146.72 104.904 146.631 104.692C146.541 104.481 146.358 104.298 146.082 104.143C145.805 103.98 145.435 103.899 144.971 103.899H144.434V103.447H153.076V103.899H152.539C152.051 103.899 151.664 103.984 151.379 104.155C151.168 104.269 151.001 104.465 150.879 104.741C150.789 104.937 150.745 105.449 150.745 106.279V117.168C150.745 118.014 150.789 118.543 150.879 118.755C150.968 118.966 151.152 119.154 151.428 119.316C151.705 119.471 152.075 119.548 152.539 119.548H153.076V120H144.434V119.548H144.971C145.459 119.548 145.846 119.463 146.13 119.292C146.342 119.178 146.509 118.983 146.631 118.706C146.72 118.511 146.765 117.998 146.765 117.168V112.041H140.918ZM165.405 108.586V117.522C165.405 118.393 165.487 118.938 165.649 119.158C165.812 119.369 166.142 119.504 166.638 119.561V120H161.987V118.474C161.442 119.125 160.897 119.601 160.352 119.902C159.806 120.195 159.196 120.342 158.521 120.342C157.878 120.342 157.304 120.146 156.799 119.756C156.303 119.357 155.969 118.893 155.798 118.364C155.627 117.835 155.542 116.912 155.542 115.593V111.064C155.542 110.202 155.461 109.665 155.298 109.453C155.143 109.242 154.814 109.103 154.309 109.038V108.586H158.96V116.387C158.96 117.201 158.997 117.725 159.07 117.961C159.151 118.197 159.273 118.376 159.436 118.499C159.607 118.621 159.802 118.682 160.022 118.682C160.315 118.682 160.579 118.604 160.815 118.45C161.141 118.238 161.532 117.811 161.987 117.168V111.064C161.987 110.202 161.906 109.665 161.743 109.453C161.589 109.242 161.259 109.103 160.754 109.038V108.586H165.405ZM172.717 103.447V109.734C173.678 108.741 174.727 108.245 175.867 108.245C176.648 108.245 177.384 108.477 178.076 108.94C178.768 109.396 179.309 110.047 179.7 110.894C180.09 111.74 180.286 112.716 180.286 113.823C180.286 115.068 180.037 116.2 179.541 117.217C179.045 118.234 178.381 119.011 177.551 119.548C176.721 120.077 175.773 120.342 174.707 120.342C174.089 120.342 173.539 120.244 173.059 120.049C172.579 119.854 172.107 119.536 171.643 119.097L169.751 120.33H169.336V105.815C169.336 105.156 169.307 104.749 169.25 104.595C169.169 104.367 169.039 104.2 168.86 104.094C168.689 103.98 168.396 103.915 167.981 103.899V103.447H172.717ZM172.717 110.82V115.898C172.717 116.932 172.742 117.591 172.791 117.876C172.872 118.356 173.067 118.747 173.376 119.048C173.686 119.341 174.08 119.487 174.561 119.487C174.976 119.487 175.33 119.369 175.623 119.133C175.924 118.897 176.172 118.429 176.367 117.729C176.571 117.03 176.672 115.768 176.672 113.945C176.672 112.196 176.453 110.995 176.013 110.344C175.696 109.872 175.269 109.636 174.731 109.636C174.032 109.636 173.36 110.031 172.717 110.82ZM195.349 115.52H188.232V112.993H195.349V115.52ZM218.884 103.069V108.806H218.408C218.05 107.309 217.383 106.161 216.406 105.364C215.43 104.566 214.323 104.167 213.086 104.167C212.052 104.167 211.104 104.465 210.242 105.059C209.379 105.653 208.748 106.43 208.35 107.39C207.837 108.619 207.581 109.986 207.581 111.492C207.581 112.973 207.768 114.324 208.142 115.544C208.516 116.757 209.102 117.677 209.9 118.303C210.697 118.922 211.731 119.231 213 119.231C214.042 119.231 214.994 119.003 215.857 118.547C216.728 118.092 217.643 117.306 218.604 116.191V117.62C217.676 118.588 216.707 119.292 215.698 119.731C214.697 120.163 213.525 120.378 212.183 120.378C210.417 120.378 208.846 120.024 207.471 119.316C206.104 118.608 205.046 117.591 204.297 116.265C203.556 114.938 203.186 113.526 203.186 112.029C203.186 110.45 203.597 108.953 204.419 107.537C205.249 106.121 206.364 105.022 207.764 104.241C209.172 103.459 210.665 103.069 212.244 103.069C213.407 103.069 214.636 103.321 215.93 103.826C216.679 104.119 217.155 104.265 217.358 104.265C217.619 104.265 217.843 104.172 218.03 103.984C218.225 103.789 218.351 103.484 218.408 103.069H218.884ZM226.489 108.245C227.482 108.245 228.406 108.501 229.26 109.014C230.115 109.526 230.762 110.255 231.201 111.199C231.649 112.143 231.873 113.176 231.873 114.299C231.873 115.919 231.462 117.274 230.64 118.364C229.647 119.683 228.276 120.342 226.526 120.342C224.809 120.342 223.486 119.74 222.559 118.535C221.631 117.331 221.167 115.935 221.167 114.348C221.167 112.712 221.639 111.288 222.583 110.076C223.535 108.855 224.837 108.245 226.489 108.245ZM226.538 109.111C226.123 109.111 225.765 109.27 225.464 109.587C225.171 109.897 224.976 110.515 224.878 111.443C224.788 112.362 224.744 113.644 224.744 115.288C224.744 116.159 224.801 116.973 224.915 117.729C225.004 118.307 225.195 118.747 225.488 119.048C225.781 119.349 226.115 119.5 226.489 119.5C226.855 119.5 227.161 119.398 227.405 119.194C227.722 118.918 227.934 118.531 228.04 118.035C228.202 117.262 228.284 115.699 228.284 113.347C228.284 111.964 228.206 111.016 228.052 110.503C227.897 109.982 227.669 109.604 227.368 109.368C227.157 109.197 226.88 109.111 226.538 109.111ZM236.353 103.057C236.882 103.057 237.329 103.244 237.695 103.618C238.062 103.984 238.245 104.428 238.245 104.949C238.245 105.47 238.057 105.913 237.683 106.279C237.317 106.646 236.873 106.829 236.353 106.829C235.832 106.829 235.388 106.646 235.022 106.279C234.656 105.913 234.473 105.47 234.473 104.949C234.473 104.428 234.656 103.984 235.022 103.618C235.388 103.244 235.832 103.057 236.353 103.057ZM238.062 108.586V117.632C238.062 118.438 238.155 118.954 238.342 119.182C238.529 119.402 238.896 119.528 239.441 119.561V120H233.276V119.561C233.781 119.544 234.155 119.398 234.399 119.121C234.562 118.934 234.644 118.438 234.644 117.632V110.967C234.644 110.161 234.55 109.648 234.363 109.429C234.176 109.201 233.813 109.071 233.276 109.038V108.586H238.062ZM245.3 108.586V110.088C245.927 109.404 246.505 108.928 247.034 108.66C247.571 108.383 248.157 108.245 248.792 108.245C249.524 108.245 250.138 108.416 250.635 108.757C251.131 109.099 251.514 109.62 251.782 110.32C252.433 109.587 253.056 109.058 253.65 108.733C254.252 108.407 254.879 108.245 255.53 108.245C256.319 108.245 256.946 108.428 257.41 108.794C257.882 109.152 258.207 109.612 258.386 110.173C258.573 110.727 258.667 111.614 258.667 112.834V117.51C258.667 118.389 258.744 118.934 258.899 119.146C259.062 119.357 259.395 119.495 259.9 119.561V120H254.004V119.561C254.468 119.52 254.81 119.341 255.029 119.023C255.176 118.804 255.249 118.299 255.249 117.51V112.603C255.249 111.585 255.208 110.938 255.127 110.662C255.046 110.385 254.915 110.181 254.736 110.051C254.565 109.913 254.362 109.844 254.126 109.844C253.776 109.844 253.422 109.974 253.064 110.234C252.706 110.487 252.344 110.869 251.978 111.382V117.51C251.978 118.332 252.047 118.848 252.185 119.06C252.372 119.361 252.73 119.528 253.259 119.561V120H247.351V119.561C247.668 119.544 247.917 119.467 248.096 119.329C248.283 119.182 248.405 119.011 248.462 118.816C248.527 118.612 248.56 118.177 248.56 117.51V112.603C248.56 111.569 248.519 110.922 248.438 110.662C248.356 110.401 248.218 110.198 248.022 110.051C247.835 109.905 247.632 109.832 247.412 109.832C247.087 109.832 246.79 109.917 246.521 110.088C246.139 110.34 245.732 110.771 245.3 111.382V117.51C245.3 118.315 245.378 118.848 245.532 119.109C245.695 119.361 246.029 119.512 246.533 119.561V120H240.649V119.561C241.13 119.512 241.471 119.357 241.675 119.097C241.813 118.918 241.882 118.389 241.882 117.51V111.064C241.882 110.202 241.801 109.665 241.638 109.453C241.484 109.242 241.154 109.103 240.649 109.038V108.586H245.3ZM265.808 103.447V109.734C266.768 108.741 267.818 108.245 268.958 108.245C269.739 108.245 270.475 108.477 271.167 108.94C271.859 109.396 272.4 110.047 272.791 110.894C273.181 111.74 273.376 112.716 273.376 113.823C273.376 115.068 273.128 116.2 272.632 117.217C272.135 118.234 271.472 119.011 270.642 119.548C269.812 120.077 268.864 120.342 267.798 120.342C267.179 120.342 266.63 120.244 266.15 120.049C265.67 119.854 265.198 119.536 264.734 119.097L262.842 120.33H262.427V105.815C262.427 105.156 262.398 104.749 262.341 104.595C262.26 104.367 262.13 104.2 261.951 104.094C261.78 103.98 261.487 103.915 261.072 103.899V103.447H265.808ZM265.808 110.82V115.898C265.808 116.932 265.833 117.591 265.881 117.876C265.963 118.356 266.158 118.747 266.467 119.048C266.777 119.341 267.171 119.487 267.651 119.487C268.066 119.487 268.42 119.369 268.713 119.133C269.014 118.897 269.263 118.429 269.458 117.729C269.661 117.03 269.763 115.768 269.763 113.945C269.763 112.196 269.543 110.995 269.104 110.344C268.787 109.872 268.359 109.636 267.822 109.636C267.122 109.636 266.451 110.031 265.808 110.82ZM281.604 118.315C280.212 119.544 278.963 120.159 277.856 120.159C277.205 120.159 276.664 119.947 276.233 119.524C275.802 119.093 275.586 118.556 275.586 117.913C275.586 117.042 275.96 116.261 276.709 115.569C277.458 114.869 279.089 113.941 281.604 112.786V111.638C281.604 110.776 281.555 110.234 281.458 110.015C281.368 109.787 281.193 109.591 280.933 109.429C280.672 109.258 280.379 109.172 280.054 109.172C279.525 109.172 279.089 109.29 278.748 109.526C278.536 109.673 278.43 109.844 278.43 110.039C278.43 110.21 278.544 110.422 278.772 110.674C279.081 111.024 279.236 111.361 279.236 111.687C279.236 112.086 279.085 112.428 278.784 112.712C278.491 112.989 278.105 113.127 277.625 113.127C277.112 113.127 276.681 112.973 276.331 112.664C275.989 112.354 275.818 111.992 275.818 111.577C275.818 110.991 276.05 110.434 276.514 109.905C276.978 109.368 277.625 108.957 278.455 108.672C279.285 108.387 280.147 108.245 281.042 108.245C282.125 108.245 282.979 108.477 283.606 108.94C284.241 109.396 284.652 109.893 284.839 110.43C284.953 110.771 285.01 111.557 285.01 112.786V117.217C285.01 117.738 285.03 118.067 285.071 118.206C285.111 118.336 285.173 118.433 285.254 118.499C285.335 118.564 285.429 118.596 285.535 118.596C285.746 118.596 285.962 118.446 286.182 118.145L286.548 118.438C286.141 119.04 285.718 119.479 285.278 119.756C284.847 120.024 284.355 120.159 283.801 120.159C283.15 120.159 282.642 120.008 282.275 119.707C281.909 119.398 281.685 118.934 281.604 118.315ZM281.604 117.424V113.604C280.619 114.181 279.887 114.8 279.407 115.459C279.089 115.898 278.931 116.342 278.931 116.79C278.931 117.164 279.065 117.493 279.333 117.778C279.537 117.998 279.822 118.108 280.188 118.108C280.595 118.108 281.067 117.88 281.604 117.424ZM292.334 104.412V108.586H295.044V109.795H292.334V116.838C292.334 117.498 292.362 117.925 292.419 118.12C292.485 118.307 292.594 118.462 292.749 118.584C292.904 118.698 293.046 118.755 293.176 118.755C293.705 118.755 294.206 118.352 294.678 117.546L295.044 117.815C294.385 119.377 293.315 120.159 291.833 120.159C291.109 120.159 290.495 119.959 289.99 119.561C289.494 119.154 289.176 118.702 289.038 118.206C288.957 117.929 288.916 117.18 288.916 115.959V109.795H287.427V109.368C288.452 108.643 289.323 107.882 290.039 107.085C290.763 106.287 291.394 105.396 291.931 104.412H292.334ZM301.514 108.245C302.507 108.245 303.43 108.501 304.285 109.014C305.139 109.526 305.786 110.255 306.226 111.199C306.673 112.143 306.897 113.176 306.897 114.299C306.897 115.919 306.486 117.274 305.664 118.364C304.671 119.683 303.3 120.342 301.55 120.342C299.833 120.342 298.511 119.74 297.583 118.535C296.655 117.331 296.191 115.935 296.191 114.348C296.191 112.712 296.663 111.288 297.607 110.076C298.56 108.855 299.862 108.245 301.514 108.245ZM301.562 109.111C301.147 109.111 300.789 109.27 300.488 109.587C300.195 109.897 300 110.515 299.902 111.443C299.813 112.362 299.768 113.644 299.768 115.288C299.768 116.159 299.825 116.973 299.939 117.729C300.028 118.307 300.22 118.747 300.513 119.048C300.806 119.349 301.139 119.5 301.514 119.5C301.88 119.5 302.185 119.398 302.429 119.194C302.747 118.918 302.958 118.531 303.064 118.035C303.227 117.262 303.308 115.699 303.308 113.347C303.308 111.964 303.231 111.016 303.076 110.503C302.922 109.982 302.694 109.604 302.393 109.368C302.181 109.197 301.904 109.111 301.562 109.111ZM313.367 108.586V111.174C314.124 109.994 314.787 109.213 315.356 108.831C315.926 108.44 316.475 108.245 317.004 108.245C317.46 108.245 317.822 108.387 318.091 108.672C318.368 108.949 318.506 109.343 318.506 109.856C318.506 110.401 318.372 110.824 318.103 111.125C317.843 111.427 317.525 111.577 317.151 111.577C316.72 111.577 316.345 111.439 316.028 111.162C315.71 110.885 315.523 110.731 315.466 110.698C315.385 110.649 315.291 110.625 315.186 110.625C314.95 110.625 314.726 110.715 314.514 110.894C314.181 111.17 313.928 111.565 313.757 112.078C313.497 112.867 313.367 113.738 313.367 114.69V117.314L313.379 117.998C313.379 118.462 313.407 118.759 313.464 118.889C313.562 119.109 313.704 119.272 313.892 119.377C314.087 119.475 314.412 119.536 314.868 119.561V120H308.704V119.561C309.2 119.52 309.534 119.386 309.705 119.158C309.884 118.922 309.973 118.307 309.973 117.314V111.003C309.973 110.352 309.941 109.937 309.875 109.758C309.794 109.53 309.676 109.364 309.521 109.258C309.367 109.152 309.094 109.079 308.704 109.038V108.586H313.367ZM328.943 113.884H322.681C322.754 115.398 323.157 116.594 323.889 117.473C324.451 118.149 325.126 118.486 325.916 118.486C326.404 118.486 326.847 118.352 327.246 118.083C327.645 117.807 328.072 117.314 328.528 116.606L328.943 116.875C328.324 118.136 327.641 119.032 326.892 119.561C326.143 120.081 325.277 120.342 324.292 120.342C322.599 120.342 321.318 119.691 320.447 118.389C319.747 117.339 319.397 116.037 319.397 114.482C319.397 112.578 319.91 111.064 320.935 109.941C321.969 108.81 323.177 108.245 324.561 108.245C325.716 108.245 326.717 108.721 327.563 109.673C328.418 110.617 328.878 112.021 328.943 113.884ZM325.94 113.066C325.94 111.756 325.867 110.857 325.72 110.369C325.582 109.88 325.362 109.51 325.061 109.258C324.89 109.111 324.662 109.038 324.377 109.038C323.954 109.038 323.608 109.246 323.34 109.661C322.86 110.385 322.62 111.378 322.62 112.639V113.066H325.94Z" fill="white"/>
</svg>
