<svg width="30" height="30" viewBox="0 0 30 30" fill="none" xmlns="http://www.w3.org/2000/svg">
<path d="M25.95 5.6L23.75 7.25C23.3173 7.57456 22.7909 7.75 22.25 7.75H17.2125C16.1268 7.75 15.1343 8.36341 14.6487 9.33449C14.0496 10.5328 14.3605 11.9864 15.3974 12.8348L18.3974 15.2893C20.6271 17.1137 21.781 19.9433 21.4629 22.8066L21.433 23.0758C21.3185 24.1054 21.0655 25.1149 20.6808 26.0768L19.7858 28.3143L20.2758 28.5103C18.6408 29.1493 16.8613 29.5 15 29.5C6.99187 29.5 0.5 23.0081 0.5 15C0.5 14.1541 0.572443 13.325 0.711463 12.5188L0.8322 13.2432L5.68935 12.4337C7.3814 12.1517 8.84834 13.6186 8.56633 15.3107L8.36456 16.5213C7.96723 18.9053 9.17122 21.2696 11.3329 22.3505C12.6971 23.0326 13.4045 24.5706 13.0346 26.0502L12.2649 29.1287L13.2351 29.3713L14.0047 26.2927C14.4883 24.3584 13.5635 22.3477 11.7802 21.4561C10.0111 20.5715 9.02579 18.6366 9.35095 16.6857L9.55272 15.4751C9.94753 13.1062 7.89382 11.0525 5.52495 11.4473L0.762146 12.2411C2.05059 5.55242 7.93527 0.5 15 0.5C23.0081 0.5 29.5 6.99187 29.5 15C29.5 20.9124 25.9613 25.9984 20.8864 28.2554L21.6092 26.4482C22.0275 25.4026 22.3025 24.3054 22.4268 23.1862L22.4567 22.9171C22.8123 19.7168 21.5227 16.5543 19.0306 14.5154L16.0306 12.0609C15.3555 11.5084 15.153 10.562 15.5432 9.7817C15.8593 9.14941 16.5056 8.75 17.2125 8.75H22.25C23.0073 8.75 23.7442 8.50438 24.35 8.05L26.55 6.4L25.95 5.6Z" stroke="#323232"/>
</svg>
