<svg width="275" height="110" viewBox="0 0 275 110" fill="none" xmlns="http://www.w3.org/2000/svg">
<ellipse cx="137.5" cy="28.6606" rx="68.5" ry="28.6606" fill="#FF0000"/>
<ellipse cx="137.5" cy="28.6605" rx="65.6458" ry="24.855" stroke="white"/>
<path d="M90.4062 17.6008V28.2841L95.2765 17.6008H90.4062Z" fill="white"/>
<path d="M96.7375 17.6008V40.9099H104.53V17.6008H96.7375Z" fill="white"/>
<path d="M110.861 27.7985L105.991 17.6008H110.861V27.7985Z" fill="white"/>
<path d="M140.404 40.4203V31.1226L147.639 40.4203H140.404Z" fill="white"/>
<path d="M155.866 16.4859L155.811 25.7834L148.631 16.4419L155.866 16.4859Z" fill="white"/>
<path d="M144.744 32.1015C151.014 38.4631 149.568 40.9099 149.568 40.9099H151.979C155.838 40.9099 157.285 34.0589 154.873 30.6334C152.461 27.208 147.928 21.14 147.156 20.357C146.384 19.574 146.674 17.421 146.674 16.4422C146.674 16.4422 142.333 15.9526 140.886 18.8889C139.439 21.8251 139.674 26.9575 144.744 32.1015Z" fill="white"/>
<path d="M158.431 40.4341L161.338 27.6795L164.729 40.4341H158.431Z" fill="white"/>
<path d="M166.667 40.4341L162.791 25.7173V16.8872H163.76H169.574L174.904 40.4341H166.667Z" fill="white"/>
<path d="M172.966 16.8872V21.7928L176.842 40.4341H184.594L179.749 16.8872H172.966Z" fill="white"/>
<path d="M112.764 40.4341L115.671 27.6795L119.063 40.4341H112.764Z" fill="white"/>
<path d="M121.001 40.4341L117.125 25.7173V16.8872H118.094H123.908L129.237 40.4341H121.001Z" fill="white"/>
<path d="M127.299 16.8872V21.7928L131.175 40.4341H138.927L134.082 16.8872H127.299Z" fill="white"/>
<path d="M69.8169 63.0684V65.7563H69.5532C69.397 65.1362 69.2236 64.6919 69.0332 64.4233C68.8428 64.1499 68.5815 63.9326 68.2495 63.7715C68.064 63.6836 67.7393 63.6396 67.2754 63.6396H66.5356V71.3008C66.5356 71.8086 66.5625 72.126 66.6162 72.2529C66.6748 72.3799 66.7847 72.4922 66.9458 72.5898C67.1118 72.6826 67.3364 72.729 67.6196 72.729H67.9492V73H62.749V72.729H63.0786C63.3667 72.729 63.5986 72.6777 63.7744 72.5752C63.9014 72.5068 64.0015 72.3896 64.0747 72.2236C64.1284 72.1064 64.1553 71.7988 64.1553 71.3008V63.6396H63.4375C62.7686 63.6396 62.2827 63.7812 61.98 64.0645C61.5552 64.46 61.2866 65.0239 61.1743 65.7563H60.896V63.0684H69.8169ZM73.6621 63.0684V67.0308C74.0381 66.6353 74.3823 66.3569 74.6948 66.1958C75.0073 66.0298 75.332 65.9468 75.6689 65.9468C76.0986 65.9468 76.4648 66.0688 76.7676 66.313C77.0752 66.5571 77.2778 66.8452 77.3755 67.1772C77.478 67.5044 77.5293 68.0586 77.5293 68.8398V71.5132C77.5293 72.0356 77.5781 72.3628 77.6758 72.4946C77.7734 72.6216 77.9712 72.7021 78.269 72.7363V73H74.7974V72.7363C75.0415 72.7021 75.2246 72.6045 75.3467 72.4434C75.4346 72.3164 75.4785 72.0063 75.4785 71.5132V68.459C75.4785 67.8926 75.4565 67.5386 75.4126 67.397C75.3687 67.2505 75.293 67.1382 75.1855 67.0601C75.083 66.9771 74.9658 66.9355 74.834 66.9355C74.6387 66.9355 74.4482 67.0039 74.2627 67.1406C74.0771 67.2725 73.877 67.5068 73.6621 67.8438V71.5132C73.6621 72.0015 73.6987 72.3066 73.772 72.4287C73.8647 72.5947 74.0552 72.6973 74.3433 72.7363V73H70.8716V72.7363C71.1597 72.707 71.3647 72.6143 71.4868 72.458C71.5698 72.3506 71.6113 72.0356 71.6113 71.5132V64.5552C71.6113 64.0376 71.5625 63.7153 71.4648 63.5884C71.3721 63.4614 71.1743 63.3784 70.8716 63.3394V63.0684H73.6621ZM82.4438 65.9468C83.0396 65.9468 83.5938 66.1006 84.1064 66.4082C84.6191 66.7158 85.0073 67.1528 85.271 67.7192C85.5396 68.2856 85.6738 68.9058 85.6738 69.5796C85.6738 70.5513 85.4272 71.3643 84.9341 72.0186C84.3384 72.8096 83.5156 73.2051 82.4658 73.2051C81.4355 73.2051 80.6421 72.8438 80.0854 72.1211C79.5288 71.3984 79.2505 70.561 79.2505 69.6089C79.2505 68.6274 79.5337 67.7729 80.1001 67.0454C80.6714 66.313 81.4526 65.9468 82.4438 65.9468ZM82.4731 66.4668C82.2241 66.4668 82.0093 66.562 81.8286 66.7524C81.6528 66.938 81.5356 67.3091 81.4771 67.8657C81.4233 68.4175 81.3965 69.1865 81.3965 70.1729C81.3965 70.6953 81.4307 71.1836 81.499 71.6377C81.5527 71.9844 81.6675 72.248 81.8433 72.4287C82.019 72.6094 82.2192 72.6997 82.4438 72.6997C82.6636 72.6997 82.8467 72.6387 82.9932 72.5166C83.1836 72.3506 83.3105 72.1187 83.374 71.8208C83.4717 71.3569 83.5205 70.4194 83.5205 69.0083C83.5205 68.1782 83.4741 67.6094 83.3813 67.3018C83.2886 66.9893 83.1519 66.7622 82.9712 66.6206C82.8442 66.5181 82.6782 66.4668 82.4731 66.4668ZM89.5117 66.1519V67.0381C89.8633 66.6572 90.2002 66.3813 90.5225 66.2104C90.8447 66.0347 91.1914 65.9468 91.5625 65.9468C92.0068 65.9468 92.3755 66.0713 92.6685 66.3203C92.9614 66.5645 93.1567 66.8696 93.2544 67.2358C93.3325 67.5142 93.3716 68.0488 93.3716 68.8398V71.5059C93.3716 72.0332 93.418 72.3628 93.5107 72.4946C93.6084 72.6216 93.8086 72.7021 94.1113 72.7363V73H90.647V72.7363C90.9058 72.7021 91.0913 72.5947 91.2036 72.4141C91.2817 72.292 91.3208 71.9893 91.3208 71.5059V68.459C91.3208 67.8975 91.2988 67.5435 91.2549 67.397C91.2109 67.2505 91.1353 67.1382 91.0278 67.0601C90.9253 66.9771 90.8105 66.9355 90.6836 66.9355C90.2637 66.9355 89.873 67.2358 89.5117 67.8364V71.5059C89.5117 72.0186 89.5581 72.3433 89.6509 72.48C89.7485 72.6167 89.9268 72.7021 90.1855 72.7363V73H86.7212V72.7363C87.0093 72.707 87.2144 72.6143 87.3364 72.458C87.4194 72.3506 87.4609 72.0332 87.4609 71.5059V67.6387C87.4609 67.1211 87.4121 66.7988 87.3145 66.6719C87.2217 66.5449 87.0239 66.4619 86.7212 66.4229V66.1519H89.5117ZM101.721 63.0684V70.9492C101.721 71.4814 101.736 71.7964 101.765 71.894C101.804 72.0552 101.877 72.1748 101.985 72.2529C102.097 72.3311 102.29 72.3799 102.563 72.3994V72.6411L99.6704 73.2051V72.1211C99.3237 72.541 99.0137 72.8267 98.7402 72.978C98.4717 73.1294 98.1665 73.2051 97.8247 73.2051C96.9507 73.2051 96.2598 72.8145 95.752 72.0332C95.3418 71.3984 95.1367 70.6196 95.1367 69.6968C95.1367 68.9595 95.2637 68.3003 95.5176 67.7192C95.7715 67.1333 96.1182 66.6914 96.5576 66.3936C97.002 66.0957 97.478 65.9468 97.9858 65.9468C98.313 65.9468 98.6035 66.0103 98.8574 66.1372C99.1113 66.2642 99.3823 66.4863 99.6704 66.8037V64.7383C99.6704 64.2158 99.6484 63.9009 99.6045 63.7935C99.5459 63.6519 99.458 63.5469 99.3408 63.4785C99.2236 63.4102 99.0039 63.376 98.6816 63.376V63.0684H101.721ZM99.6704 67.7119C99.3091 67.0186 98.8672 66.6719 98.3447 66.6719C98.1641 66.6719 98.0151 66.7207 97.8979 66.8184C97.7173 66.9697 97.5684 67.2358 97.4512 67.6167C97.3389 67.9976 97.2827 68.5811 97.2827 69.3672C97.2827 70.2314 97.3462 70.8711 97.4731 71.2861C97.6001 71.7012 97.7734 72.0015 97.9932 72.187C98.1055 72.2798 98.2593 72.3262 98.4546 72.3262C98.8843 72.3262 99.2896 71.9893 99.6704 71.3154V67.7119ZM107.192 71.9893C106.357 72.7266 105.608 73.0952 104.944 73.0952C104.553 73.0952 104.229 72.9683 103.97 72.7144C103.711 72.4556 103.582 72.1333 103.582 71.7476C103.582 71.2251 103.806 70.7563 104.255 70.3413C104.705 69.9214 105.684 69.3647 107.192 68.6714V67.9829C107.192 67.4653 107.163 67.1406 107.104 67.0088C107.051 66.8721 106.946 66.7549 106.79 66.6572C106.633 66.5547 106.458 66.5034 106.262 66.5034C105.945 66.5034 105.684 66.5742 105.479 66.7158C105.352 66.8037 105.288 66.9062 105.288 67.0234C105.288 67.126 105.356 67.2529 105.493 67.4043C105.679 67.6143 105.771 67.8169 105.771 68.0122C105.771 68.2515 105.681 68.4565 105.5 68.6274C105.325 68.7935 105.093 68.8765 104.805 68.8765C104.497 68.8765 104.238 68.7837 104.028 68.5981C103.823 68.4126 103.721 68.1953 103.721 67.9463C103.721 67.5947 103.86 67.2603 104.138 66.9429C104.417 66.6206 104.805 66.374 105.303 66.2031C105.801 66.0322 106.318 65.9468 106.855 65.9468C107.505 65.9468 108.018 66.0859 108.394 66.3643C108.774 66.6377 109.021 66.9355 109.133 67.2578C109.202 67.4629 109.236 67.9341 109.236 68.6714V71.3301C109.236 71.6426 109.248 71.8403 109.272 71.9233C109.297 72.0015 109.333 72.0601 109.382 72.0991C109.431 72.1382 109.487 72.1577 109.551 72.1577C109.678 72.1577 109.807 72.0674 109.939 71.8867L110.159 72.0625C109.915 72.4238 109.661 72.6875 109.397 72.8535C109.138 73.0146 108.843 73.0952 108.511 73.0952C108.12 73.0952 107.815 73.0049 107.595 72.8242C107.375 72.6387 107.241 72.3604 107.192 71.9893ZM107.192 71.4546V69.1621C106.602 69.5088 106.162 69.8799 105.874 70.2754C105.684 70.5391 105.588 70.8052 105.588 71.0737C105.588 71.2983 105.669 71.4961 105.83 71.667C105.952 71.7988 106.123 71.8647 106.343 71.8647C106.587 71.8647 106.87 71.728 107.192 71.4546ZM112.561 62.834C112.878 62.834 113.147 62.9463 113.367 63.1709C113.586 63.3906 113.696 63.6567 113.696 63.9692C113.696 64.2817 113.584 64.5479 113.359 64.7676C113.14 64.9873 112.874 65.0972 112.561 65.0972C112.249 65.0972 111.982 64.9873 111.763 64.7676C111.543 64.5479 111.433 64.2817 111.433 63.9692C111.433 63.6567 111.543 63.3906 111.763 63.1709C111.982 62.9463 112.249 62.834 112.561 62.834ZM113.586 66.1519V71.5791C113.586 72.0625 113.643 72.3726 113.755 72.5093C113.867 72.6411 114.087 72.7168 114.414 72.7363V73H110.715V72.7363C111.018 72.7266 111.243 72.6387 111.389 72.4727C111.487 72.3604 111.536 72.0625 111.536 71.5791V67.5801C111.536 67.0967 111.479 66.7891 111.367 66.6572C111.255 66.5205 111.038 66.4424 110.715 66.4229V66.1519H113.586ZM125.481 69.6162L128.176 63.0684H132.219V63.3394H131.897C131.604 63.3394 131.37 63.3906 131.194 63.4932C131.072 63.5615 130.974 63.6763 130.901 63.8374C130.847 63.9546 130.82 64.2598 130.82 64.7529V71.3008C130.82 71.8086 130.847 72.126 130.901 72.2529C130.955 72.3799 131.064 72.4922 131.23 72.5898C131.396 72.6826 131.619 72.729 131.897 72.729H132.219V73H127.034V72.729H127.356C127.649 72.729 127.883 72.6777 128.059 72.5752C128.181 72.5068 128.279 72.3896 128.352 72.2236C128.406 72.1064 128.433 71.7988 128.433 71.3008V63.9399L124.624 73H124.448L120.581 64.0059V71.0005C120.581 71.4888 120.593 71.7891 120.618 71.9014C120.681 72.1455 120.818 72.3457 121.028 72.502C121.243 72.6533 121.577 72.729 122.031 72.729V73H118.633V72.729H118.735C118.955 72.7339 119.16 72.6997 119.351 72.6265C119.541 72.5483 119.685 72.4458 119.783 72.3188C119.88 72.1919 119.956 72.0137 120.01 71.7842C120.02 71.7305 120.024 71.4814 120.024 71.0371V64.7529C120.024 64.25 119.998 63.9375 119.944 63.8154C119.89 63.6885 119.78 63.5786 119.614 63.4858C119.448 63.3882 119.226 63.3394 118.948 63.3394H118.633V63.0684H122.69L125.481 69.6162ZM136.782 71.9893C135.947 72.7266 135.198 73.0952 134.534 73.0952C134.143 73.0952 133.818 72.9683 133.56 72.7144C133.301 72.4556 133.171 72.1333 133.171 71.7476C133.171 71.2251 133.396 70.7563 133.845 70.3413C134.294 69.9214 135.273 69.3647 136.782 68.6714V67.9829C136.782 67.4653 136.753 67.1406 136.694 67.0088C136.641 66.8721 136.536 66.7549 136.379 66.6572C136.223 66.5547 136.047 66.5034 135.852 66.5034C135.535 66.5034 135.273 66.5742 135.068 66.7158C134.941 66.8037 134.878 66.9062 134.878 67.0234C134.878 67.126 134.946 67.2529 135.083 67.4043C135.269 67.6143 135.361 67.8169 135.361 68.0122C135.361 68.2515 135.271 68.4565 135.09 68.6274C134.915 68.7935 134.683 68.8765 134.395 68.8765C134.087 68.8765 133.828 68.7837 133.618 68.5981C133.413 68.4126 133.311 68.1953 133.311 67.9463C133.311 67.5947 133.45 67.2603 133.728 66.9429C134.006 66.6206 134.395 66.374 134.893 66.2031C135.391 66.0322 135.908 65.9468 136.445 65.9468C137.095 65.9468 137.607 66.0859 137.983 66.3643C138.364 66.6377 138.611 66.9355 138.723 67.2578C138.792 67.4629 138.826 67.9341 138.826 68.6714V71.3301C138.826 71.6426 138.838 71.8403 138.862 71.9233C138.887 72.0015 138.923 72.0601 138.972 72.0991C139.021 72.1382 139.077 72.1577 139.141 72.1577C139.268 72.1577 139.397 72.0674 139.529 71.8867L139.749 72.0625C139.504 72.4238 139.25 72.6875 138.987 72.8535C138.728 73.0146 138.433 73.0952 138.101 73.0952C137.71 73.0952 137.405 73.0049 137.185 72.8242C136.965 72.6387 136.831 72.3604 136.782 71.9893ZM136.782 71.4546V69.1621C136.191 69.5088 135.752 69.8799 135.464 70.2754C135.273 70.5391 135.178 70.8052 135.178 71.0737C135.178 71.2983 135.259 71.4961 135.42 71.667C135.542 71.7988 135.713 71.8647 135.933 71.8647C136.177 71.8647 136.46 71.728 136.782 71.4546ZM143.301 66.1519V67.0381C143.652 66.6572 143.989 66.3813 144.312 66.2104C144.634 66.0347 144.98 65.9468 145.352 65.9468C145.796 65.9468 146.165 66.0713 146.458 66.3203C146.75 66.5645 146.946 66.8696 147.043 67.2358C147.122 67.5142 147.161 68.0488 147.161 68.8398V71.5059C147.161 72.0332 147.207 72.3628 147.3 72.4946C147.397 72.6216 147.598 72.7021 147.9 72.7363V73H144.436V72.7363C144.695 72.7021 144.88 72.5947 144.993 72.4141C145.071 72.292 145.11 71.9893 145.11 71.5059V68.459C145.11 67.8975 145.088 67.5435 145.044 67.397C145 67.2505 144.924 67.1382 144.817 67.0601C144.714 66.9771 144.6 66.9355 144.473 66.9355C144.053 66.9355 143.662 67.2358 143.301 67.8364V71.5059C143.301 72.0186 143.347 72.3433 143.44 72.48C143.538 72.6167 143.716 72.7021 143.975 72.7363V73H140.51V72.7363C140.798 72.707 141.003 72.6143 141.125 72.458C141.208 72.3506 141.25 72.0332 141.25 71.5059V67.6387C141.25 67.1211 141.201 66.7988 141.104 66.6719C141.011 66.5449 140.813 66.4619 140.51 66.4229V66.1519H143.301ZM155.51 63.0684V70.9492C155.51 71.4814 155.525 71.7964 155.554 71.894C155.593 72.0552 155.667 72.1748 155.774 72.2529C155.886 72.3311 156.079 72.3799 156.353 72.3994V72.6411L153.459 73.2051V72.1211C153.113 72.541 152.803 72.8267 152.529 72.978C152.261 73.1294 151.956 73.2051 151.614 73.2051C150.74 73.2051 150.049 72.8145 149.541 72.0332C149.131 71.3984 148.926 70.6196 148.926 69.6968C148.926 68.9595 149.053 68.3003 149.307 67.7192C149.561 67.1333 149.907 66.6914 150.347 66.3936C150.791 66.0957 151.267 65.9468 151.775 65.9468C152.102 65.9468 152.393 66.0103 152.646 66.1372C152.9 66.2642 153.171 66.4863 153.459 66.8037V64.7383C153.459 64.2158 153.438 63.9009 153.394 63.7935C153.335 63.6519 153.247 63.5469 153.13 63.4785C153.013 63.4102 152.793 63.376 152.471 63.376V63.0684H155.51ZM153.459 67.7119C153.098 67.0186 152.656 66.6719 152.134 66.6719C151.953 66.6719 151.804 66.7207 151.687 66.8184C151.506 66.9697 151.357 67.2358 151.24 67.6167C151.128 67.9976 151.072 68.5811 151.072 69.3672C151.072 70.2314 151.135 70.8711 151.262 71.2861C151.389 71.7012 151.562 72.0015 151.782 72.187C151.895 72.2798 152.048 72.3262 152.244 72.3262C152.673 72.3262 153.079 71.9893 153.459 71.3154V67.7119ZM160.981 71.9893C160.146 72.7266 159.397 73.0952 158.733 73.0952C158.342 73.0952 158.018 72.9683 157.759 72.7144C157.5 72.4556 157.371 72.1333 157.371 71.7476C157.371 71.2251 157.595 70.7563 158.044 70.3413C158.494 69.9214 159.473 69.3647 160.981 68.6714V67.9829C160.981 67.4653 160.952 67.1406 160.894 67.0088C160.84 66.8721 160.735 66.7549 160.579 66.6572C160.422 66.5547 160.247 66.5034 160.051 66.5034C159.734 66.5034 159.473 66.5742 159.268 66.7158C159.141 66.8037 159.077 66.9062 159.077 67.0234C159.077 67.126 159.146 67.2529 159.282 67.4043C159.468 67.6143 159.561 67.8169 159.561 68.0122C159.561 68.2515 159.47 68.4565 159.29 68.6274C159.114 68.7935 158.882 68.8765 158.594 68.8765C158.286 68.8765 158.027 68.7837 157.817 68.5981C157.612 68.4126 157.51 68.1953 157.51 67.9463C157.51 67.5947 157.649 67.2603 157.927 66.9429C158.206 66.6206 158.594 66.374 159.092 66.2031C159.59 66.0322 160.107 65.9468 160.645 65.9468C161.294 65.9468 161.807 66.0859 162.183 66.3643C162.563 66.6377 162.81 66.9355 162.922 67.2578C162.991 67.4629 163.025 67.9341 163.025 68.6714V71.3301C163.025 71.6426 163.037 71.8403 163.062 71.9233C163.086 72.0015 163.123 72.0601 163.171 72.0991C163.22 72.1382 163.276 72.1577 163.34 72.1577C163.467 72.1577 163.596 72.0674 163.728 71.8867L163.948 72.0625C163.704 72.4238 163.45 72.6875 163.186 72.8535C162.927 73.0146 162.632 73.0952 162.3 73.0952C161.909 73.0952 161.604 73.0049 161.384 72.8242C161.165 72.6387 161.03 72.3604 160.981 71.9893ZM160.981 71.4546V69.1621C160.391 69.5088 159.951 69.8799 159.663 70.2754C159.473 70.5391 159.377 70.8052 159.377 71.0737C159.377 71.2983 159.458 71.4961 159.619 71.667C159.741 71.7988 159.912 71.8647 160.132 71.8647C160.376 71.8647 160.659 71.728 160.981 71.4546ZM167.383 63.0684V71.5791C167.383 72.0625 167.439 72.3726 167.551 72.5093C167.664 72.6411 167.883 72.7168 168.21 72.7363V73H164.512V72.7363C164.814 72.7266 165.039 72.6387 165.186 72.4727C165.283 72.3604 165.332 72.0625 165.332 71.5791V64.4893C165.332 64.0107 165.276 63.7056 165.164 63.5737C165.051 63.437 164.834 63.3589 164.512 63.3394V63.0684H167.383ZM172.656 71.9893C171.821 72.7266 171.072 73.0952 170.408 73.0952C170.017 73.0952 169.692 72.9683 169.434 72.7144C169.175 72.4556 169.045 72.1333 169.045 71.7476C169.045 71.2251 169.27 70.7563 169.719 70.3413C170.168 69.9214 171.147 69.3647 172.656 68.6714V67.9829C172.656 67.4653 172.627 67.1406 172.568 67.0088C172.515 66.8721 172.41 66.7549 172.253 66.6572C172.097 66.5547 171.921 66.5034 171.726 66.5034C171.409 66.5034 171.147 66.5742 170.942 66.7158C170.815 66.8037 170.752 66.9062 170.752 67.0234C170.752 67.126 170.82 67.2529 170.957 67.4043C171.143 67.6143 171.235 67.8169 171.235 68.0122C171.235 68.2515 171.145 68.4565 170.964 68.6274C170.789 68.7935 170.557 68.8765 170.269 68.8765C169.961 68.8765 169.702 68.7837 169.492 68.5981C169.287 68.4126 169.185 68.1953 169.185 67.9463C169.185 67.5947 169.324 67.2603 169.602 66.9429C169.88 66.6206 170.269 66.374 170.767 66.2031C171.265 66.0322 171.782 65.9468 172.319 65.9468C172.969 65.9468 173.481 66.0859 173.857 66.3643C174.238 66.6377 174.485 66.9355 174.597 67.2578C174.666 67.4629 174.7 67.9341 174.7 68.6714V71.3301C174.7 71.6426 174.712 71.8403 174.736 71.9233C174.761 72.0015 174.797 72.0601 174.846 72.0991C174.895 72.1382 174.951 72.1577 175.015 72.1577C175.142 72.1577 175.271 72.0674 175.403 71.8867L175.623 72.0625C175.378 72.4238 175.125 72.6875 174.861 72.8535C174.602 73.0146 174.307 73.0952 173.975 73.0952C173.584 73.0952 173.279 73.0049 173.059 72.8242C172.839 72.6387 172.705 72.3604 172.656 71.9893ZM172.656 71.4546V69.1621C172.065 69.5088 171.626 69.8799 171.338 70.2754C171.147 70.5391 171.052 70.8052 171.052 71.0737C171.052 71.2983 171.133 71.4961 171.294 71.667C171.416 71.7988 171.587 71.8647 171.807 71.8647C172.051 71.8647 172.334 71.728 172.656 71.4546ZM186.667 62.8413L186.748 66.1519H186.448C186.306 65.3218 185.957 64.6553 185.4 64.1523C184.849 63.6445 184.25 63.3906 183.606 63.3906C183.108 63.3906 182.712 63.5249 182.419 63.7935C182.131 64.0571 181.987 64.3623 181.987 64.709C181.987 64.9287 182.039 65.124 182.141 65.2949C182.283 65.5244 182.51 65.7515 182.822 65.9761C183.052 66.1372 183.582 66.4229 184.412 66.833C185.574 67.4043 186.357 67.9438 186.763 68.4517C187.163 68.9595 187.363 69.5405 187.363 70.1948C187.363 71.0249 187.039 71.7402 186.389 72.3408C185.745 72.9365 184.924 73.2344 183.928 73.2344C183.616 73.2344 183.32 73.2026 183.042 73.1392C182.764 73.0757 182.415 72.9561 181.995 72.7803C181.76 72.6826 181.567 72.6338 181.416 72.6338C181.289 72.6338 181.155 72.6826 181.013 72.7803C180.872 72.8779 180.757 73.0269 180.669 73.2271H180.398V69.4771H180.669C180.884 70.5317 181.296 71.3374 181.907 71.894C182.522 72.4458 183.184 72.7217 183.892 72.7217C184.438 72.7217 184.873 72.5728 185.195 72.2749C185.522 71.9771 185.686 71.6304 185.686 71.2349C185.686 71.0005 185.623 70.7734 185.496 70.5537C185.374 70.334 185.186 70.1265 184.932 69.9312C184.678 69.731 184.229 69.4722 183.584 69.1548C182.681 68.7104 182.031 68.332 181.636 68.0195C181.24 67.707 180.935 67.3579 180.72 66.9722C180.51 66.5864 180.405 66.1616 180.405 65.6978C180.405 64.9067 180.696 64.2329 181.277 63.6763C181.858 63.1196 182.59 62.8413 183.474 62.8413C183.796 62.8413 184.109 62.8804 184.412 62.9585C184.641 63.0171 184.919 63.127 185.247 63.2881C185.579 63.4443 185.811 63.5225 185.942 63.5225C186.069 63.5225 186.169 63.4834 186.243 63.4053C186.316 63.3271 186.384 63.1392 186.448 62.8413H186.667ZM192.256 71.9893C191.421 72.7266 190.671 73.0952 190.007 73.0952C189.617 73.0952 189.292 72.9683 189.033 72.7144C188.774 72.4556 188.645 72.1333 188.645 71.7476C188.645 71.2251 188.87 70.7563 189.319 70.3413C189.768 69.9214 190.747 69.3647 192.256 68.6714V67.9829C192.256 67.4653 192.227 67.1406 192.168 67.0088C192.114 66.8721 192.009 66.7549 191.853 66.6572C191.697 66.5547 191.521 66.5034 191.326 66.5034C191.008 66.5034 190.747 66.5742 190.542 66.7158C190.415 66.8037 190.352 66.9062 190.352 67.0234C190.352 67.126 190.42 67.2529 190.557 67.4043C190.742 67.6143 190.835 67.8169 190.835 68.0122C190.835 68.2515 190.745 68.4565 190.564 68.6274C190.388 68.7935 190.156 68.8765 189.868 68.8765C189.561 68.8765 189.302 68.7837 189.092 68.5981C188.887 68.4126 188.784 68.1953 188.784 67.9463C188.784 67.5947 188.923 67.2603 189.202 66.9429C189.48 66.6206 189.868 66.374 190.366 66.2031C190.864 66.0322 191.382 65.9468 191.919 65.9468C192.568 65.9468 193.081 66.0859 193.457 66.3643C193.838 66.6377 194.084 66.9355 194.197 67.2578C194.265 67.4629 194.299 67.9341 194.299 68.6714V71.3301C194.299 71.6426 194.312 71.8403 194.336 71.9233C194.36 72.0015 194.397 72.0601 194.446 72.0991C194.495 72.1382 194.551 72.1577 194.614 72.1577C194.741 72.1577 194.871 72.0674 195.002 71.8867L195.222 72.0625C194.978 72.4238 194.724 72.6875 194.46 72.8535C194.202 73.0146 193.906 73.0952 193.574 73.0952C193.184 73.0952 192.878 73.0049 192.659 72.8242C192.439 72.6387 192.305 72.3604 192.256 71.9893ZM192.256 71.4546V69.1621C191.665 69.5088 191.226 69.8799 190.938 70.2754C190.747 70.5391 190.652 70.8052 190.652 71.0737C190.652 71.2983 190.732 71.4961 190.894 71.667C191.016 71.7988 191.187 71.8647 191.406 71.8647C191.65 71.8647 191.934 71.728 192.256 71.4546ZM197.625 62.834C197.942 62.834 198.21 62.9463 198.43 63.1709C198.65 63.3906 198.76 63.6567 198.76 63.9692C198.76 64.2817 198.647 64.5479 198.423 64.7676C198.203 64.9873 197.937 65.0972 197.625 65.0972C197.312 65.0972 197.046 64.9873 196.826 64.7676C196.606 64.5479 196.497 64.2817 196.497 63.9692C196.497 63.6567 196.606 63.3906 196.826 63.1709C197.046 62.9463 197.312 62.834 197.625 62.834ZM198.65 66.1519V71.5791C198.65 72.0625 198.706 72.3726 198.818 72.5093C198.931 72.6411 199.15 72.7168 199.478 72.7363V73H195.779V72.7363C196.082 72.7266 196.306 72.6387 196.453 72.4727C196.55 72.3604 196.599 72.0625 196.599 71.5791V67.5801C196.599 67.0967 196.543 66.7891 196.431 66.6572C196.318 66.5205 196.101 66.4424 195.779 66.4229V66.1519H198.65ZM203.242 73.2051L200.935 67.895C200.657 67.2554 200.439 66.8501 200.283 66.6792C200.171 66.5522 200.005 66.4668 199.785 66.4229V66.1519H203.425V66.4229C203.196 66.4229 203.04 66.4644 202.957 66.5474C202.839 66.6548 202.781 66.7817 202.781 66.9282C202.781 67.1089 202.888 67.4482 203.103 67.9463L204.231 70.5171L205.132 68.2979C205.391 67.6631 205.52 67.2139 205.52 66.9502C205.52 66.7988 205.464 66.6768 205.352 66.584C205.244 66.4863 205.051 66.4326 204.773 66.4229V66.1519H207.014V66.4229C206.799 66.4521 206.624 66.5327 206.487 66.6646C206.35 66.7964 206.145 67.1846 205.872 67.8291L203.586 73.2051H203.242ZM211.431 71.9893C210.596 72.7266 209.846 73.0952 209.182 73.0952C208.792 73.0952 208.467 72.9683 208.208 72.7144C207.949 72.4556 207.82 72.1333 207.82 71.7476C207.82 71.2251 208.044 70.7563 208.494 70.3413C208.943 69.9214 209.922 69.3647 211.431 68.6714V67.9829C211.431 67.4653 211.401 67.1406 211.343 67.0088C211.289 66.8721 211.184 66.7549 211.028 66.6572C210.872 66.5547 210.696 66.5034 210.5 66.5034C210.183 66.5034 209.922 66.5742 209.717 66.7158C209.59 66.8037 209.526 66.9062 209.526 67.0234C209.526 67.126 209.595 67.2529 209.731 67.4043C209.917 67.6143 210.01 67.8169 210.01 68.0122C210.01 68.2515 209.919 68.4565 209.739 68.6274C209.563 68.7935 209.331 68.8765 209.043 68.8765C208.735 68.8765 208.477 68.7837 208.267 68.5981C208.062 68.4126 207.959 68.1953 207.959 67.9463C207.959 67.5947 208.098 67.2603 208.376 66.9429C208.655 66.6206 209.043 66.374 209.541 66.2031C210.039 66.0322 210.557 65.9468 211.094 65.9468C211.743 65.9468 212.256 66.0859 212.632 66.3643C213.013 66.6377 213.259 66.9355 213.372 67.2578C213.44 67.4629 213.474 67.9341 213.474 68.6714V71.3301C213.474 71.6426 213.486 71.8403 213.511 71.9233C213.535 72.0015 213.572 72.0601 213.621 72.0991C213.669 72.1382 213.726 72.1577 213.789 72.1577C213.916 72.1577 214.045 72.0674 214.177 71.8867L214.397 72.0625C214.153 72.4238 213.899 72.6875 213.635 72.8535C213.376 73.0146 213.081 73.0952 212.749 73.0952C212.358 73.0952 212.053 73.0049 211.833 72.8242C211.614 72.6387 211.479 72.3604 211.431 71.9893ZM211.431 71.4546V69.1621C210.84 69.5088 210.4 69.8799 210.112 70.2754C209.922 70.5391 209.827 70.8052 209.827 71.0737C209.827 71.2983 209.907 71.4961 210.068 71.667C210.19 71.7988 210.361 71.8647 210.581 71.8647C210.825 71.8647 211.108 71.728 211.431 71.4546ZM9.86084 86.6162L12.5562 80.0684H16.5991V80.3394H16.2769C15.9839 80.3394 15.7495 80.3906 15.5737 80.4932C15.4517 80.5615 15.354 80.6763 15.2808 80.8374C15.2271 80.9546 15.2002 81.2598 15.2002 81.7529V88.3008C15.2002 88.8086 15.2271 89.126 15.2808 89.2529C15.3345 89.3799 15.4443 89.4922 15.6104 89.5898C15.7764 89.6826 15.9985 89.729 16.2769 89.729H16.5991V90H11.4136V89.729H11.7358C12.0288 89.729 12.2632 89.6777 12.439 89.5752C12.561 89.5068 12.6587 89.3896 12.7319 89.2236C12.7856 89.1064 12.8125 88.7988 12.8125 88.3008V80.9399L9.00391 90H8.82812L4.96094 81.0059V88.0005C4.96094 88.4888 4.97314 88.7891 4.99756 88.9014C5.06104 89.1455 5.19775 89.3457 5.40771 89.502C5.62256 89.6533 5.95703 89.729 6.41113 89.729V90H3.0127V89.729H3.11523C3.33496 89.7339 3.54004 89.6997 3.73047 89.6265C3.9209 89.5483 4.06494 89.4458 4.1626 89.3188C4.26025 89.1919 4.33594 89.0137 4.38965 88.7842C4.39941 88.7305 4.4043 88.4814 4.4043 88.0371V81.7529C4.4043 81.25 4.37744 80.9375 4.32373 80.8154C4.27002 80.6885 4.16016 80.5786 3.99414 80.4858C3.82812 80.3882 3.60596 80.3394 3.32764 80.3394H3.0127V80.0684H7.07031L9.86084 86.6162ZM23.9966 83.1519V88.5132C23.9966 89.0356 24.0454 89.3628 24.1431 89.4946C24.2407 89.6216 24.4385 89.7021 24.7363 89.7363V90H21.9458V89.0845C21.6187 89.4751 21.2915 89.7607 20.9644 89.9414C20.6372 90.1172 20.271 90.2051 19.8657 90.2051C19.48 90.2051 19.1357 90.0879 18.833 89.8535C18.5352 89.6143 18.335 89.3359 18.2324 89.0186C18.1299 88.7012 18.0786 88.147 18.0786 87.356V84.6387C18.0786 84.1211 18.0298 83.7988 17.9321 83.6719C17.8394 83.5449 17.6416 83.4619 17.3389 83.4229V83.1519H20.1294V87.832C20.1294 88.3203 20.1514 88.6353 20.1953 88.7769C20.2441 88.9185 20.3174 89.0259 20.415 89.0991C20.5176 89.1724 20.6348 89.209 20.7666 89.209C20.9424 89.209 21.1011 89.1626 21.2427 89.0698C21.438 88.9429 21.6724 88.6865 21.9458 88.3008V84.6387C21.9458 84.1211 21.897 83.7988 21.7993 83.6719C21.7065 83.5449 21.5088 83.4619 21.2061 83.4229V83.1519H23.9966ZM32.3901 80.0684V87.9492C32.3901 88.4814 32.4048 88.7964 32.4341 88.894C32.4731 89.0552 32.5464 89.1748 32.6538 89.2529C32.7661 89.3311 32.959 89.3799 33.2324 89.3994V89.6411L30.3394 90.2051V89.1211C29.9927 89.541 29.6826 89.8267 29.4092 89.978C29.1406 90.1294 28.8354 90.2051 28.4937 90.2051C27.6196 90.2051 26.9287 89.8145 26.4209 89.0332C26.0107 88.3984 25.8057 87.6196 25.8057 86.6968C25.8057 85.9595 25.9326 85.3003 26.1865 84.7192C26.4404 84.1333 26.7871 83.6914 27.2266 83.3936C27.6709 83.0957 28.147 82.9468 28.6548 82.9468C28.9819 82.9468 29.2725 83.0103 29.5264 83.1372C29.7803 83.2642 30.0513 83.4863 30.3394 83.8037V81.7383C30.3394 81.2158 30.3174 80.9009 30.2734 80.7935C30.2148 80.6519 30.127 80.5469 30.0098 80.4785C29.8926 80.4102 29.6729 80.376 29.3506 80.376V80.0684H32.3901ZM30.3394 84.7119C29.978 84.0186 29.5361 83.6719 29.0137 83.6719C28.833 83.6719 28.6841 83.7207 28.5669 83.8184C28.3862 83.9697 28.2373 84.2358 28.1201 84.6167C28.0078 84.9976 27.9517 85.5811 27.9517 86.3672C27.9517 87.2314 28.0151 87.8711 28.1421 88.2861C28.269 88.7012 28.4424 89.0015 28.6621 89.187C28.7744 89.2798 28.9282 89.3262 29.1235 89.3262C29.5532 89.3262 29.9585 88.9893 30.3394 88.3154V84.7119ZM37.8613 88.9893C37.0264 89.7266 36.2769 90.0952 35.6128 90.0952C35.2222 90.0952 34.8975 89.9683 34.6387 89.7144C34.3799 89.4556 34.2505 89.1333 34.2505 88.7476C34.2505 88.2251 34.4751 87.7563 34.9243 87.3413C35.3735 86.9214 36.3525 86.3647 37.8613 85.6714V84.9829C37.8613 84.4653 37.832 84.1406 37.7734 84.0088C37.7197 83.8721 37.6147 83.7549 37.4585 83.6572C37.3022 83.5547 37.1265 83.5034 36.9312 83.5034C36.6138 83.5034 36.3525 83.5742 36.1475 83.7158C36.0205 83.8037 35.957 83.9062 35.957 84.0234C35.957 84.126 36.0254 84.2529 36.1621 84.4043C36.3477 84.6143 36.4404 84.8169 36.4404 85.0122C36.4404 85.2515 36.3501 85.4565 36.1694 85.6274C35.9937 85.7935 35.7617 85.8765 35.4736 85.8765C35.166 85.8765 34.9072 85.7837 34.6973 85.5981C34.4922 85.4126 34.3896 85.1953 34.3896 84.9463C34.3896 84.5947 34.5288 84.2603 34.8071 83.9429C35.0854 83.6206 35.4736 83.374 35.9717 83.2031C36.4697 83.0322 36.9873 82.9468 37.5244 82.9468C38.1738 82.9468 38.6865 83.0859 39.0625 83.3643C39.4434 83.6377 39.6899 83.9355 39.8022 84.2578C39.8706 84.4629 39.9048 84.9341 39.9048 85.6714V88.3301C39.9048 88.6426 39.917 88.8403 39.9414 88.9233C39.9658 89.0015 40.0024 89.0601 40.0513 89.0991C40.1001 89.1382 40.1562 89.1577 40.2197 89.1577C40.3467 89.1577 40.4761 89.0674 40.6079 88.8867L40.8276 89.0625C40.5835 89.4238 40.3296 89.6875 40.0659 89.8535C39.8071 90.0146 39.5117 90.0952 39.1797 90.0952C38.7891 90.0952 38.4839 90.0049 38.2642 89.8242C38.0444 89.6387 37.9102 89.3604 37.8613 88.9893ZM37.8613 88.4546V86.1621C37.2705 86.5088 36.8311 86.8799 36.543 87.2754C36.3525 87.5391 36.2573 87.8052 36.2573 88.0737C36.2573 88.2983 36.3379 88.4961 36.499 88.667C36.6211 88.7988 36.792 88.8647 37.0117 88.8647C37.2559 88.8647 37.5391 88.728 37.8613 88.4546ZM44.2627 80.0684V88.5791C44.2627 89.0625 44.3188 89.3726 44.4312 89.5093C44.5435 89.6411 44.7632 89.7168 45.0903 89.7363V90H41.3916V89.7363C41.6943 89.7266 41.9189 89.6387 42.0654 89.4727C42.1631 89.3604 42.2119 89.0625 42.2119 88.5791V81.4893C42.2119 81.0107 42.1558 80.7056 42.0435 80.5737C41.9312 80.437 41.7139 80.3589 41.3916 80.3394V80.0684H44.2627ZM47.4048 79.834C47.7222 79.834 47.9907 79.9463 48.2104 80.1709C48.4302 80.3906 48.54 80.6567 48.54 80.9692C48.54 81.2817 48.4277 81.5479 48.2031 81.7676C47.9834 81.9873 47.7173 82.0972 47.4048 82.0972C47.0923 82.0972 46.8262 81.9873 46.6064 81.7676C46.3867 81.5479 46.2769 81.2817 46.2769 80.9692C46.2769 80.6567 46.3867 80.3906 46.6064 80.1709C46.8262 79.9463 47.0923 79.834 47.4048 79.834ZM48.4302 83.1519V88.5791C48.4302 89.0625 48.4863 89.3726 48.5986 89.5093C48.7109 89.6411 48.9307 89.7168 49.2578 89.7363V90H45.5591V89.7363C45.8618 89.7266 46.0864 89.6387 46.2329 89.4727C46.3306 89.3604 46.3794 89.0625 46.3794 88.5791V84.5801C46.3794 84.0967 46.3232 83.7891 46.2109 83.6572C46.0986 83.5205 45.8813 83.4424 45.5591 83.4229V83.1519H48.4302ZM53.0737 90.2783L50.8618 85.2026C50.5298 84.436 50.2832 83.9648 50.1221 83.7891C49.9658 83.6133 49.7754 83.4912 49.5508 83.4229V83.1519H53.1909V83.4229C52.9517 83.4326 52.7832 83.479 52.6855 83.562C52.5879 83.645 52.5391 83.7451 52.5391 83.8623C52.5391 84.0479 52.6611 84.4141 52.9053 84.9609L54.0771 87.6416L54.8755 85.5688C55.1636 84.8315 55.3076 84.3188 55.3076 84.0308C55.3076 83.8501 55.2466 83.7061 55.1245 83.5986C55.0073 83.4912 54.7974 83.4326 54.4946 83.4229V83.1519H56.7871V83.4229C56.5625 83.4473 56.3794 83.5352 56.2378 83.6865C56.0962 83.833 55.8594 84.3384 55.5273 85.2026L53.5718 90.2783C53.0786 91.5479 52.7124 92.3291 52.4731 92.6221C52.1362 93.0322 51.7139 93.2373 51.2061 93.2373C50.8008 93.2373 50.4712 93.1201 50.2173 92.8857C49.9683 92.6562 49.8438 92.3779 49.8438 92.0508C49.8438 91.7676 49.9292 91.5332 50.1001 91.3477C50.2759 91.1621 50.4907 91.0693 50.7446 91.0693C50.9888 91.0693 51.1841 91.1475 51.3306 91.3037C51.4819 91.46 51.5601 91.7017 51.5649 92.0288C51.5698 92.2144 51.5918 92.334 51.6309 92.3877C51.6699 92.4414 51.7261 92.4683 51.7993 92.4683C51.9165 92.4683 52.041 92.3975 52.1729 92.2559C52.3682 92.0508 52.5977 91.582 52.8613 90.8496L53.0737 90.2783ZM61.2109 88.9893C60.376 89.7266 59.6265 90.0952 58.9624 90.0952C58.5718 90.0952 58.2471 89.9683 57.9883 89.7144C57.7295 89.4556 57.6001 89.1333 57.6001 88.7476C57.6001 88.2251 57.8247 87.7563 58.2739 87.3413C58.7231 86.9214 59.7021 86.3647 61.2109 85.6714V84.9829C61.2109 84.4653 61.1816 84.1406 61.123 84.0088C61.0693 83.8721 60.9644 83.7549 60.8081 83.6572C60.6519 83.5547 60.4761 83.5034 60.2808 83.5034C59.9634 83.5034 59.7021 83.5742 59.4971 83.7158C59.3701 83.8037 59.3066 83.9062 59.3066 84.0234C59.3066 84.126 59.375 84.2529 59.5117 84.4043C59.6973 84.6143 59.79 84.8169 59.79 85.0122C59.79 85.2515 59.6997 85.4565 59.519 85.6274C59.3433 85.7935 59.1113 85.8765 58.8232 85.8765C58.5156 85.8765 58.2568 85.7837 58.0469 85.5981C57.8418 85.4126 57.7393 85.1953 57.7393 84.9463C57.7393 84.5947 57.8784 84.2603 58.1567 83.9429C58.4351 83.6206 58.8232 83.374 59.3213 83.2031C59.8193 83.0322 60.3369 82.9468 60.874 82.9468C61.5234 82.9468 62.0361 83.0859 62.4121 83.3643C62.793 83.6377 63.0396 83.9355 63.1519 84.2578C63.2202 84.4629 63.2544 84.9341 63.2544 85.6714V88.3301C63.2544 88.6426 63.2666 88.8403 63.291 88.9233C63.3154 89.0015 63.3521 89.0601 63.4009 89.0991C63.4497 89.1382 63.5059 89.1577 63.5693 89.1577C63.6963 89.1577 63.8257 89.0674 63.9575 88.8867L64.1772 89.0625C63.9331 89.4238 63.6792 89.6875 63.4155 89.8535C63.1567 90.0146 62.8613 90.0952 62.5293 90.0952C62.1387 90.0952 61.8335 90.0049 61.6138 89.8242C61.394 89.6387 61.2598 89.3604 61.2109 88.9893ZM61.2109 88.4546V86.1621C60.6201 86.5088 60.1807 86.8799 59.8926 87.2754C59.7021 87.5391 59.6069 87.8052 59.6069 88.0737C59.6069 88.2983 59.6875 88.4961 59.8486 88.667C59.9707 88.7988 60.1416 88.8647 60.3613 88.8647C60.6055 88.8647 60.8887 88.728 61.2109 88.4546ZM67.7734 83.1519V84.7046C68.2275 83.9966 68.6255 83.5278 68.9673 83.2983C69.3091 83.064 69.6387 82.9468 69.9561 82.9468C70.2295 82.9468 70.4468 83.0322 70.6079 83.2031C70.7739 83.3691 70.8569 83.606 70.8569 83.9136C70.8569 84.2407 70.7764 84.4946 70.6152 84.6753C70.459 84.856 70.2686 84.9463 70.0439 84.9463C69.7852 84.9463 69.5605 84.8633 69.3701 84.6973C69.1797 84.5312 69.0674 84.4385 69.0332 84.4189C68.9844 84.3896 68.9282 84.375 68.8647 84.375C68.7231 84.375 68.5889 84.4287 68.4619 84.5361C68.2617 84.7021 68.1104 84.939 68.0078 85.2466C67.8516 85.7202 67.7734 86.2427 67.7734 86.814V88.3887L67.7808 88.7988C67.7808 89.0771 67.7979 89.2554 67.832 89.3335C67.8906 89.4653 67.9761 89.563 68.0884 89.6265C68.2056 89.6851 68.4009 89.7217 68.6743 89.7363V90H64.9756V89.7363C65.2734 89.7119 65.4736 89.6313 65.5762 89.4946C65.6836 89.353 65.7373 88.9844 65.7373 88.3887V84.6021C65.7373 84.2114 65.7178 83.9624 65.6787 83.855C65.6299 83.7183 65.5591 83.6182 65.4663 83.5547C65.3735 83.4912 65.21 83.4473 64.9756 83.4229V83.1519H67.7734ZM84.5752 79.8413V83.2837H84.2896C84.0747 82.3853 83.6743 81.6968 83.0884 81.2183C82.5024 80.7397 81.8384 80.5005 81.0962 80.5005C80.4761 80.5005 79.9072 80.6787 79.3896 81.0352C78.8721 81.3916 78.4937 81.8579 78.2544 82.4341C77.9468 83.1714 77.793 83.9917 77.793 84.895C77.793 85.7837 77.9053 86.5942 78.1299 87.3267C78.3545 88.0542 78.7061 88.606 79.1846 88.9819C79.6631 89.353 80.2832 89.5386 81.0449 89.5386C81.6699 89.5386 82.2412 89.4019 82.7588 89.1284C83.2812 88.855 83.8306 88.3838 84.4067 87.7148V88.5718C83.8501 89.1528 83.269 89.5752 82.6636 89.8389C82.063 90.0977 81.3599 90.2271 80.5542 90.2271C79.4946 90.2271 78.5522 90.0146 77.7271 89.5898C76.9067 89.165 76.272 88.5547 75.8228 87.7588C75.3784 86.9629 75.1562 86.1157 75.1562 85.2173C75.1562 84.27 75.4028 83.3716 75.896 82.522C76.394 81.6724 77.063 81.0132 77.9028 80.5444C78.7476 80.0757 79.6436 79.8413 80.5908 79.8413C81.2891 79.8413 82.0264 79.9927 82.8027 80.2954C83.252 80.4712 83.5376 80.5591 83.6597 80.5591C83.8159 80.5591 83.9502 80.5029 84.0625 80.3906C84.1797 80.2734 84.2554 80.0903 84.2896 79.8413H84.5752ZM89.1382 82.9468C89.7339 82.9468 90.2881 83.1006 90.8008 83.4082C91.3135 83.7158 91.7017 84.1528 91.9653 84.7192C92.2339 85.2856 92.3682 85.9058 92.3682 86.5796C92.3682 87.5513 92.1216 88.3643 91.6284 89.0186C91.0327 89.8096 90.21 90.2051 89.1602 90.2051C88.1299 90.2051 87.3364 89.8438 86.7798 89.1211C86.2231 88.3984 85.9448 87.561 85.9448 86.6089C85.9448 85.6274 86.228 84.7729 86.7944 84.0454C87.3657 83.313 88.147 82.9468 89.1382 82.9468ZM89.1675 83.4668C88.9185 83.4668 88.7036 83.562 88.5229 83.7524C88.3472 83.938 88.23 84.3091 88.1714 84.8657C88.1177 85.4175 88.0908 86.1865 88.0908 87.1729C88.0908 87.6953 88.125 88.1836 88.1934 88.6377C88.2471 88.9844 88.3618 89.248 88.5376 89.4287C88.7134 89.6094 88.9136 89.6997 89.1382 89.6997C89.3579 89.6997 89.541 89.6387 89.6875 89.5166C89.8779 89.3506 90.0049 89.1187 90.0684 88.8208C90.166 88.3569 90.2148 87.4194 90.2148 86.0083C90.2148 85.1782 90.1685 84.6094 90.0757 84.3018C89.9829 83.9893 89.8462 83.7622 89.6655 83.6206C89.5386 83.5181 89.3726 83.4668 89.1675 83.4668ZM96.25 83.1519V84.0527C96.626 83.6426 96.9727 83.3569 97.29 83.1958C97.6123 83.0298 97.9639 82.9468 98.3447 82.9468C98.7842 82.9468 99.1528 83.0493 99.4507 83.2544C99.7485 83.4595 99.978 83.772 100.139 84.1919C100.53 83.7524 100.903 83.4351 101.26 83.2397C101.621 83.0444 101.997 82.9468 102.388 82.9468C102.861 82.9468 103.237 83.0566 103.516 83.2764C103.799 83.4912 103.994 83.7671 104.102 84.104C104.214 84.436 104.27 84.9683 104.27 85.7007V88.5059C104.27 89.0332 104.316 89.3604 104.409 89.4873C104.507 89.6143 104.707 89.6973 105.01 89.7363V90H101.472V89.7363C101.75 89.7119 101.956 89.6045 102.087 89.4141C102.175 89.2822 102.219 88.9795 102.219 88.5059V85.5615C102.219 84.9512 102.195 84.563 102.146 84.397C102.097 84.231 102.019 84.1089 101.912 84.0308C101.809 83.9478 101.687 83.9062 101.545 83.9062C101.335 83.9062 101.123 83.9844 100.908 84.1406C100.693 84.292 100.476 84.5215 100.256 84.8291V88.5059C100.256 88.999 100.298 89.3091 100.381 89.436C100.493 89.6167 100.708 89.7168 101.025 89.7363V90H97.4805V89.7363C97.6709 89.7266 97.8198 89.6802 97.9272 89.5972C98.0396 89.5093 98.1128 89.4067 98.147 89.2896C98.186 89.1675 98.2056 88.9062 98.2056 88.5059V85.5615C98.2056 84.9414 98.1812 84.5532 98.1323 84.397C98.0835 84.2407 98.0005 84.1187 97.8833 84.0308C97.771 83.9429 97.6489 83.8989 97.5171 83.8989C97.3218 83.8989 97.1436 83.9502 96.9824 84.0527C96.7529 84.2041 96.5088 84.4629 96.25 84.8291V88.5059C96.25 88.9893 96.2964 89.3091 96.3892 89.4653C96.4868 89.6167 96.687 89.707 96.9897 89.7363V90H93.4595V89.7363C93.7476 89.707 93.9526 89.6143 94.0747 89.458C94.1577 89.3506 94.1992 89.0332 94.1992 88.5059V84.6387C94.1992 84.1211 94.1504 83.7988 94.0527 83.6719C93.96 83.5449 93.7622 83.4619 93.4595 83.4229V83.1519H96.25ZM108.745 83.1519V84.0527C109.121 83.6426 109.468 83.3569 109.785 83.1958C110.107 83.0298 110.459 82.9468 110.84 82.9468C111.279 82.9468 111.648 83.0493 111.946 83.2544C112.244 83.4595 112.473 83.772 112.634 84.1919C113.025 83.7524 113.398 83.4351 113.755 83.2397C114.116 83.0444 114.492 82.9468 114.883 82.9468C115.356 82.9468 115.732 83.0566 116.011 83.2764C116.294 83.4912 116.489 83.7671 116.597 84.104C116.709 84.436 116.765 84.9683 116.765 85.7007V88.5059C116.765 89.0332 116.812 89.3604 116.904 89.4873C117.002 89.6143 117.202 89.6973 117.505 89.7363V90H113.967V89.7363C114.246 89.7119 114.451 89.6045 114.583 89.4141C114.67 89.2822 114.714 88.9795 114.714 88.5059V85.5615C114.714 84.9512 114.69 84.563 114.641 84.397C114.592 84.231 114.514 84.1089 114.407 84.0308C114.304 83.9478 114.182 83.9062 114.041 83.9062C113.831 83.9062 113.618 83.9844 113.403 84.1406C113.188 84.292 112.971 84.5215 112.751 84.8291V88.5059C112.751 88.999 112.793 89.3091 112.876 89.436C112.988 89.6167 113.203 89.7168 113.521 89.7363V90H109.976V89.7363C110.166 89.7266 110.315 89.6802 110.422 89.5972C110.535 89.5093 110.608 89.4067 110.642 89.2896C110.681 89.1675 110.701 88.9062 110.701 88.5059V85.5615C110.701 84.9414 110.676 84.5532 110.627 84.397C110.579 84.2407 110.496 84.1187 110.378 84.0308C110.266 83.9429 110.144 83.8989 110.012 83.8989C109.817 83.8989 109.639 83.9502 109.478 84.0527C109.248 84.2041 109.004 84.4629 108.745 84.8291V88.5059C108.745 88.9893 108.792 89.3091 108.884 89.4653C108.982 89.6167 109.182 89.707 109.485 89.7363V90H105.955V89.7363C106.243 89.707 106.448 89.6143 106.57 89.458C106.653 89.3506 106.694 89.0332 106.694 88.5059V84.6387C106.694 84.1211 106.646 83.7988 106.548 83.6719C106.455 83.5449 106.257 83.4619 105.955 83.4229V83.1519H108.745ZM125.012 83.1519V88.5132C125.012 89.0356 125.061 89.3628 125.159 89.4946C125.256 89.6216 125.454 89.7021 125.752 89.7363V90H122.961V89.0845C122.634 89.4751 122.307 89.7607 121.98 89.9414C121.653 90.1172 121.287 90.2051 120.881 90.2051C120.496 90.2051 120.151 90.0879 119.849 89.8535C119.551 89.6143 119.351 89.3359 119.248 89.0186C119.146 88.7012 119.094 88.147 119.094 87.356V84.6387C119.094 84.1211 119.045 83.7988 118.948 83.6719C118.855 83.5449 118.657 83.4619 118.354 83.4229V83.1519H121.145V87.832C121.145 88.3203 121.167 88.6353 121.211 88.7769C121.26 88.9185 121.333 89.0259 121.431 89.0991C121.533 89.1724 121.65 89.209 121.782 89.209C121.958 89.209 122.117 89.1626 122.258 89.0698C122.454 88.9429 122.688 88.6865 122.961 88.3008V84.6387C122.961 84.1211 122.913 83.7988 122.815 83.6719C122.722 83.5449 122.524 83.4619 122.222 83.4229V83.1519H125.012ZM129.546 83.1519V84.0381C129.897 83.6572 130.234 83.3813 130.557 83.2104C130.879 83.0347 131.226 82.9468 131.597 82.9468C132.041 82.9468 132.41 83.0713 132.703 83.3203C132.996 83.5645 133.191 83.8696 133.289 84.2358C133.367 84.5142 133.406 85.0488 133.406 85.8398V88.5059C133.406 89.0332 133.452 89.3628 133.545 89.4946C133.643 89.6216 133.843 89.7021 134.146 89.7363V90H130.681V89.7363C130.94 89.7021 131.125 89.5947 131.238 89.4141C131.316 89.292 131.355 88.9893 131.355 88.5059V85.459C131.355 84.8975 131.333 84.5435 131.289 84.397C131.245 84.2505 131.169 84.1382 131.062 84.0601C130.959 83.9771 130.845 83.9355 130.718 83.9355C130.298 83.9355 129.907 84.2358 129.546 84.8364V88.5059C129.546 89.0186 129.592 89.3433 129.685 89.48C129.783 89.6167 129.961 89.7021 130.22 89.7363V90H126.755V89.7363C127.043 89.707 127.249 89.6143 127.371 89.458C127.454 89.3506 127.495 89.0332 127.495 88.5059V84.6387C127.495 84.1211 127.446 83.7988 127.349 83.6719C127.256 83.5449 127.058 83.4619 126.755 83.4229V83.1519H129.546ZM136.746 79.834C137.063 79.834 137.332 79.9463 137.551 80.1709C137.771 80.3906 137.881 80.6567 137.881 80.9692C137.881 81.2817 137.769 81.5479 137.544 81.7676C137.324 81.9873 137.058 82.0972 136.746 82.0972C136.433 82.0972 136.167 81.9873 135.947 81.7676C135.728 81.5479 135.618 81.2817 135.618 80.9692C135.618 80.6567 135.728 80.3906 135.947 80.1709C136.167 79.9463 136.433 79.834 136.746 79.834ZM137.771 83.1519V88.5791C137.771 89.0625 137.827 89.3726 137.939 89.5093C138.052 89.6411 138.271 89.7168 138.599 89.7363V90H134.9V89.7363C135.203 89.7266 135.427 89.6387 135.574 89.4727C135.671 89.3604 135.72 89.0625 135.72 88.5791V84.5801C135.72 84.0967 135.664 83.7891 135.552 83.6572C135.439 83.5205 135.222 83.4424 134.9 83.4229V83.1519H137.771ZM141.99 80.647V83.1519H143.616V83.877H141.99V88.103C141.99 88.4985 142.007 88.7549 142.041 88.8721C142.08 88.9844 142.146 89.0771 142.239 89.1504C142.332 89.2188 142.417 89.2529 142.495 89.2529C142.812 89.2529 143.113 89.0112 143.396 88.5278L143.616 88.689C143.22 89.6265 142.578 90.0952 141.689 90.0952C141.255 90.0952 140.886 89.9756 140.583 89.7363C140.286 89.4922 140.095 89.2212 140.012 88.9233C139.963 88.7573 139.939 88.3081 139.939 87.5757V83.877H139.045V83.6206C139.661 83.186 140.183 82.7295 140.613 82.251C141.047 81.7725 141.426 81.2378 141.748 80.647H141.99ZM147.41 90.2783L145.198 85.2026C144.866 84.436 144.619 83.9648 144.458 83.7891C144.302 83.6133 144.111 83.4912 143.887 83.4229V83.1519H147.527V83.4229C147.288 83.4326 147.119 83.479 147.021 83.562C146.924 83.645 146.875 83.7451 146.875 83.8623C146.875 84.0479 146.997 84.4141 147.241 84.9609L148.413 87.6416L149.211 85.5688C149.5 84.8315 149.644 84.3188 149.644 84.0308C149.644 83.8501 149.583 83.7061 149.46 83.5986C149.343 83.4912 149.133 83.4326 148.831 83.4229V83.1519H151.123V83.4229C150.898 83.4473 150.715 83.5352 150.574 83.6865C150.432 83.833 150.195 84.3384 149.863 85.2026L147.908 90.2783C147.415 91.5479 147.048 92.3291 146.809 92.6221C146.472 93.0322 146.05 93.2373 145.542 93.2373C145.137 93.2373 144.807 93.1201 144.553 92.8857C144.304 92.6562 144.18 92.3779 144.18 92.0508C144.18 91.7676 144.265 91.5332 144.436 91.3477C144.612 91.1621 144.827 91.0693 145.081 91.0693C145.325 91.0693 145.52 91.1475 145.667 91.3037C145.818 91.46 145.896 91.7017 145.901 92.0288C145.906 92.2144 145.928 92.334 145.967 92.3877C146.006 92.4414 146.062 92.4683 146.135 92.4683C146.252 92.4683 146.377 92.3975 146.509 92.2559C146.704 92.0508 146.934 91.582 147.197 90.8496L147.41 90.2783ZM159.114 85.2246V88.3008C159.114 88.8086 159.141 89.126 159.194 89.2529C159.253 89.3799 159.363 89.4922 159.524 89.5898C159.69 89.6826 159.912 89.729 160.19 89.729H160.52V90H155.327V89.729H155.657C155.945 89.729 156.177 89.6777 156.353 89.5752C156.479 89.5068 156.577 89.3896 156.646 89.2236C156.699 89.1064 156.726 88.7988 156.726 88.3008V81.7676C156.726 81.2598 156.699 80.9424 156.646 80.8154C156.592 80.6885 156.482 80.5786 156.316 80.4858C156.155 80.3882 155.935 80.3394 155.657 80.3394H155.327V80.0684H160.52V80.3394H160.19C159.902 80.3394 159.67 80.3906 159.495 80.4932C159.368 80.5615 159.268 80.6787 159.194 80.8447C159.141 80.9619 159.114 81.2695 159.114 81.7676V84.5801H162.622V81.7676C162.622 81.2598 162.595 80.9424 162.542 80.8154C162.488 80.6885 162.378 80.5786 162.212 80.4858C162.046 80.3882 161.824 80.3394 161.545 80.3394H161.223V80.0684H166.409V80.3394H166.086C165.793 80.3394 165.562 80.3906 165.391 80.4932C165.264 80.5615 165.164 80.6787 165.09 80.8447C165.037 80.9619 165.01 81.2695 165.01 81.7676V88.3008C165.01 88.8086 165.037 89.126 165.09 89.2529C165.144 89.3799 165.254 89.4922 165.42 89.5898C165.586 89.6826 165.808 89.729 166.086 89.729H166.409V90H161.223V89.729H161.545C161.838 89.729 162.07 89.6777 162.241 89.5752C162.368 89.5068 162.468 89.3896 162.542 89.2236C162.595 89.1064 162.622 88.7988 162.622 88.3008V85.2246H159.114ZM173.806 83.1519V88.5132C173.806 89.0356 173.855 89.3628 173.953 89.4946C174.05 89.6216 174.248 89.7021 174.546 89.7363V90H171.755V89.0845C171.428 89.4751 171.101 89.7607 170.774 89.9414C170.447 90.1172 170.081 90.2051 169.675 90.2051C169.29 90.2051 168.945 90.0879 168.643 89.8535C168.345 89.6143 168.145 89.3359 168.042 89.0186C167.939 88.7012 167.888 88.147 167.888 87.356V84.6387C167.888 84.1211 167.839 83.7988 167.742 83.6719C167.649 83.5449 167.451 83.4619 167.148 83.4229V83.1519H169.939V87.832C169.939 88.3203 169.961 88.6353 170.005 88.7769C170.054 88.9185 170.127 89.0259 170.225 89.0991C170.327 89.1724 170.444 89.209 170.576 89.209C170.752 89.209 170.911 89.1626 171.052 89.0698C171.248 88.9429 171.482 88.6865 171.755 88.3008V84.6387C171.755 84.1211 171.707 83.7988 171.609 83.6719C171.516 83.5449 171.318 83.4619 171.016 83.4229V83.1519H173.806ZM178.193 80.0684V83.8403C178.77 83.2446 179.399 82.9468 180.083 82.9468C180.552 82.9468 180.994 83.0859 181.409 83.3643C181.824 83.6377 182.148 84.0283 182.383 84.5361C182.617 85.0439 182.734 85.6299 182.734 86.2939C182.734 87.041 182.585 87.7197 182.288 88.3301C181.99 88.9404 181.592 89.4067 181.094 89.729C180.596 90.0464 180.027 90.2051 179.387 90.2051C179.016 90.2051 178.687 90.1465 178.398 90.0293C178.11 89.9121 177.827 89.7217 177.549 89.458L176.414 90.1978H176.165V81.4893C176.165 81.0938 176.147 80.8496 176.113 80.7568C176.064 80.6201 175.986 80.52 175.879 80.4565C175.776 80.3882 175.601 80.3491 175.352 80.3394V80.0684H178.193ZM178.193 84.4922V87.5391C178.193 88.1592 178.208 88.5547 178.237 88.7256C178.286 89.0137 178.403 89.248 178.589 89.4287C178.774 89.6045 179.011 89.6924 179.299 89.6924C179.548 89.6924 179.761 89.6216 179.937 89.48C180.117 89.3384 180.266 89.0576 180.383 88.6377C180.505 88.2178 180.566 87.4609 180.566 86.3672C180.566 85.3174 180.435 84.5972 180.171 84.2065C179.98 83.9233 179.724 83.7817 179.402 83.7817C178.982 83.7817 178.579 84.0186 178.193 84.4922ZM191.772 87.312H187.502V85.7959H191.772V87.312ZM205.894 79.8413V83.2837H205.608C205.393 82.3853 204.993 81.6968 204.407 81.2183C203.821 80.7397 203.157 80.5005 202.415 80.5005C201.794 80.5005 201.226 80.6787 200.708 81.0352C200.19 81.3916 199.812 81.8579 199.573 82.4341C199.265 83.1714 199.111 83.9917 199.111 84.895C199.111 85.7837 199.224 86.5942 199.448 87.3267C199.673 88.0542 200.024 88.606 200.503 88.9819C200.981 89.353 201.602 89.5386 202.363 89.5386C202.988 89.5386 203.56 89.4019 204.077 89.1284C204.6 88.855 205.149 88.3838 205.725 87.7148V88.5718C205.168 89.1528 204.587 89.5752 203.982 89.8389C203.381 90.0977 202.678 90.2271 201.873 90.2271C200.813 90.2271 199.871 90.0146 199.045 89.5898C198.225 89.165 197.59 88.5547 197.141 87.7588C196.697 86.9629 196.475 86.1157 196.475 85.2173C196.475 84.27 196.721 83.3716 197.214 82.522C197.712 81.6724 198.381 81.0132 199.221 80.5444C200.066 80.0757 200.962 79.8413 201.909 79.8413C202.607 79.8413 203.345 79.9927 204.121 80.2954C204.57 80.4712 204.856 80.5591 204.978 80.5591C205.134 80.5591 205.269 80.5029 205.381 80.3906C205.498 80.2734 205.574 80.0903 205.608 79.8413H205.894ZM210.457 82.9468C211.052 82.9468 211.606 83.1006 212.119 83.4082C212.632 83.7158 213.02 84.1528 213.284 84.7192C213.552 85.2856 213.687 85.9058 213.687 86.5796C213.687 87.5513 213.44 88.3643 212.947 89.0186C212.351 89.8096 211.528 90.2051 210.479 90.2051C209.448 90.2051 208.655 89.8438 208.098 89.1211C207.542 88.3984 207.263 87.561 207.263 86.6089C207.263 85.6274 207.546 84.7729 208.113 84.0454C208.684 83.313 209.465 82.9468 210.457 82.9468ZM210.486 83.4668C210.237 83.4668 210.022 83.562 209.841 83.7524C209.666 83.938 209.548 84.3091 209.49 84.8657C209.436 85.4175 209.409 86.1865 209.409 87.1729C209.409 87.6953 209.443 88.1836 209.512 88.6377C209.565 88.9844 209.68 89.248 209.856 89.4287C210.032 89.6094 210.232 89.6997 210.457 89.6997C210.676 89.6997 210.859 89.6387 211.006 89.5166C211.196 89.3506 211.323 89.1187 211.387 88.8208C211.484 88.3569 211.533 87.4194 211.533 86.0083C211.533 85.1782 211.487 84.6094 211.394 84.3018C211.301 83.9893 211.165 83.7622 210.984 83.6206C210.857 83.5181 210.691 83.4668 210.486 83.4668ZM216.375 79.834C216.692 79.834 216.96 79.9463 217.18 80.1709C217.4 80.3906 217.51 80.6567 217.51 80.9692C217.51 81.2817 217.397 81.5479 217.173 81.7676C216.953 81.9873 216.687 82.0972 216.375 82.0972C216.062 82.0972 215.796 81.9873 215.576 81.7676C215.356 81.5479 215.247 81.2817 215.247 80.9692C215.247 80.6567 215.356 80.3906 215.576 80.1709C215.796 79.9463 216.062 79.834 216.375 79.834ZM217.4 83.1519V88.5791C217.4 89.0625 217.456 89.3726 217.568 89.5093C217.681 89.6411 217.9 89.7168 218.228 89.7363V90H214.529V89.7363C214.832 89.7266 215.056 89.6387 215.203 89.4727C215.3 89.3604 215.349 89.0625 215.349 88.5791V84.5801C215.349 84.0967 215.293 83.7891 215.181 83.6572C215.068 83.5205 214.851 83.4424 214.529 83.4229V83.1519H217.4ZM221.743 83.1519V84.0527C222.119 83.6426 222.466 83.3569 222.783 83.1958C223.105 83.0298 223.457 82.9468 223.838 82.9468C224.277 82.9468 224.646 83.0493 224.944 83.2544C225.242 83.4595 225.471 83.772 225.632 84.1919C226.023 83.7524 226.396 83.4351 226.753 83.2397C227.114 83.0444 227.49 82.9468 227.881 82.9468C228.354 82.9468 228.73 83.0566 229.009 83.2764C229.292 83.4912 229.487 83.7671 229.595 84.104C229.707 84.436 229.763 84.9683 229.763 85.7007V88.5059C229.763 89.0332 229.81 89.3604 229.902 89.4873C230 89.6143 230.2 89.6973 230.503 89.7363V90H226.965V89.7363C227.244 89.7119 227.449 89.6045 227.581 89.4141C227.668 89.2822 227.712 88.9795 227.712 88.5059V85.5615C227.712 84.9512 227.688 84.563 227.639 84.397C227.59 84.231 227.512 84.1089 227.405 84.0308C227.302 83.9478 227.18 83.9062 227.039 83.9062C226.829 83.9062 226.616 83.9844 226.401 84.1406C226.187 84.292 225.969 84.5215 225.75 84.8291V88.5059C225.75 88.999 225.791 89.3091 225.874 89.436C225.986 89.6167 226.201 89.7168 226.519 89.7363V90H222.974V89.7363C223.164 89.7266 223.313 89.6802 223.42 89.5972C223.533 89.5093 223.606 89.4067 223.64 89.2896C223.679 89.1675 223.699 88.9062 223.699 88.5059V85.5615C223.699 84.9414 223.674 84.5532 223.625 84.397C223.577 84.2407 223.494 84.1187 223.376 84.0308C223.264 83.9429 223.142 83.8989 223.01 83.8989C222.815 83.8989 222.637 83.9502 222.476 84.0527C222.246 84.2041 222.002 84.4629 221.743 84.8291V88.5059C221.743 88.9893 221.79 89.3091 221.882 89.4653C221.98 89.6167 222.18 89.707 222.483 89.7363V90H218.953V89.7363C219.241 89.707 219.446 89.6143 219.568 89.458C219.651 89.3506 219.692 89.0332 219.692 88.5059V84.6387C219.692 84.1211 219.644 83.7988 219.546 83.6719C219.453 83.5449 219.255 83.4619 218.953 83.4229V83.1519H221.743ZM234.048 80.0684V83.8403C234.624 83.2446 235.254 82.9468 235.938 82.9468C236.406 82.9468 236.848 83.0859 237.263 83.3643C237.678 83.6377 238.003 84.0283 238.237 84.5361C238.472 85.0439 238.589 85.6299 238.589 86.2939C238.589 87.041 238.44 87.7197 238.142 88.3301C237.844 88.9404 237.446 89.4067 236.948 89.729C236.45 90.0464 235.881 90.2051 235.242 90.2051C234.871 90.2051 234.541 90.1465 234.253 90.0293C233.965 89.9121 233.682 89.7217 233.403 89.458L232.268 90.1978H232.019V81.4893C232.019 81.0938 232.002 80.8496 231.968 80.7568C231.919 80.6201 231.841 80.52 231.733 80.4565C231.631 80.3882 231.455 80.3491 231.206 80.3394V80.0684H234.048ZM234.048 84.4922V87.5391C234.048 88.1592 234.062 88.5547 234.092 88.7256C234.141 89.0137 234.258 89.248 234.443 89.4287C234.629 89.6045 234.866 89.6924 235.154 89.6924C235.403 89.6924 235.615 89.6216 235.791 89.48C235.972 89.3384 236.121 89.0576 236.238 88.6377C236.36 88.2178 236.421 87.4609 236.421 86.3672C236.421 85.3174 236.289 84.5972 236.025 84.2065C235.835 83.9233 235.579 83.7817 235.256 83.7817C234.836 83.7817 234.434 84.0186 234.048 84.4922ZM243.525 88.9893C242.69 89.7266 241.941 90.0952 241.277 90.0952C240.886 90.0952 240.562 89.9683 240.303 89.7144C240.044 89.4556 239.915 89.1333 239.915 88.7476C239.915 88.2251 240.139 87.7563 240.588 87.3413C241.038 86.9214 242.017 86.3647 243.525 85.6714V84.9829C243.525 84.4653 243.496 84.1406 243.438 84.0088C243.384 83.8721 243.279 83.7549 243.123 83.6572C242.966 83.5547 242.791 83.5034 242.595 83.5034C242.278 83.5034 242.017 83.5742 241.812 83.7158C241.685 83.8037 241.621 83.9062 241.621 84.0234C241.621 84.126 241.689 84.2529 241.826 84.4043C242.012 84.6143 242.104 84.8169 242.104 85.0122C242.104 85.2515 242.014 85.4565 241.833 85.6274C241.658 85.7935 241.426 85.8765 241.138 85.8765C240.83 85.8765 240.571 85.7837 240.361 85.5981C240.156 85.4126 240.054 85.1953 240.054 84.9463C240.054 84.5947 240.193 84.2603 240.471 83.9429C240.75 83.6206 241.138 83.374 241.636 83.2031C242.134 83.0322 242.651 82.9468 243.188 82.9468C243.838 82.9468 244.351 83.0859 244.727 83.3643C245.107 83.6377 245.354 83.9355 245.466 84.2578C245.535 84.4629 245.569 84.9341 245.569 85.6714V88.3301C245.569 88.6426 245.581 88.8403 245.605 88.9233C245.63 89.0015 245.667 89.0601 245.715 89.0991C245.764 89.1382 245.82 89.1577 245.884 89.1577C246.011 89.1577 246.14 89.0674 246.272 88.8867L246.492 89.0625C246.248 89.4238 245.994 89.6875 245.73 89.8535C245.471 90.0146 245.176 90.0952 244.844 90.0952C244.453 90.0952 244.148 90.0049 243.928 89.8242C243.708 89.6387 243.574 89.3604 243.525 88.9893ZM243.525 88.4546V86.1621C242.935 86.5088 242.495 86.8799 242.207 87.2754C242.017 87.5391 241.921 87.8052 241.921 88.0737C241.921 88.2983 242.002 88.4961 242.163 88.667C242.285 88.7988 242.456 88.8647 242.676 88.8647C242.92 88.8647 243.203 88.728 243.525 88.4546ZM249.963 80.647V83.1519H251.589V83.877H249.963V88.103C249.963 88.4985 249.98 88.7549 250.015 88.8721C250.054 88.9844 250.12 89.0771 250.212 89.1504C250.305 89.2188 250.391 89.2529 250.469 89.2529C250.786 89.2529 251.086 89.0112 251.37 88.5278L251.589 88.689C251.194 89.6265 250.552 90.0952 249.663 90.0952C249.229 90.0952 248.86 89.9756 248.557 89.7363C248.259 89.4922 248.069 89.2212 247.986 88.9233C247.937 88.7573 247.913 88.3081 247.913 87.5757V83.877H247.019V83.6206C247.634 83.186 248.157 82.7295 248.586 82.251C249.021 81.7725 249.399 81.2378 249.722 80.647H249.963ZM255.471 82.9468C256.067 82.9468 256.621 83.1006 257.134 83.4082C257.646 83.7158 258.035 84.1528 258.298 84.7192C258.567 85.2856 258.701 85.9058 258.701 86.5796C258.701 87.5513 258.455 88.3643 257.961 89.0186C257.366 89.8096 256.543 90.2051 255.493 90.2051C254.463 90.2051 253.669 89.8438 253.113 89.1211C252.556 88.3984 252.278 87.561 252.278 86.6089C252.278 85.6274 252.561 84.7729 253.127 84.0454C253.699 83.313 254.48 82.9468 255.471 82.9468ZM255.5 83.4668C255.251 83.4668 255.037 83.562 254.856 83.7524C254.68 83.938 254.563 84.3091 254.504 84.8657C254.451 85.4175 254.424 86.1865 254.424 87.1729C254.424 87.6953 254.458 88.1836 254.526 88.6377C254.58 88.9844 254.695 89.248 254.871 89.4287C255.046 89.6094 255.247 89.6997 255.471 89.6997C255.691 89.6997 255.874 89.6387 256.021 89.5166C256.211 89.3506 256.338 89.1187 256.401 88.8208C256.499 88.3569 256.548 87.4194 256.548 86.0083C256.548 85.1782 256.501 84.6094 256.409 84.3018C256.316 83.9893 256.179 83.7622 255.999 83.6206C255.872 83.5181 255.706 83.4668 255.5 83.4668ZM262.583 83.1519V84.7046C263.037 83.9966 263.435 83.5278 263.777 83.2983C264.119 83.064 264.448 82.9468 264.766 82.9468C265.039 82.9468 265.256 83.0322 265.417 83.2031C265.583 83.3691 265.667 83.606 265.667 83.9136C265.667 84.2407 265.586 84.4946 265.425 84.6753C265.269 84.856 265.078 84.9463 264.854 84.9463C264.595 84.9463 264.37 84.8633 264.18 84.6973C263.989 84.5312 263.877 84.4385 263.843 84.4189C263.794 84.3896 263.738 84.375 263.674 84.375C263.533 84.375 263.398 84.4287 263.271 84.5361C263.071 84.7021 262.92 84.939 262.817 85.2466C262.661 85.7202 262.583 86.2427 262.583 86.814V88.3887L262.59 88.7988C262.59 89.0771 262.607 89.2554 262.642 89.3335C262.7 89.4653 262.786 89.563 262.898 89.6265C263.015 89.6851 263.21 89.7217 263.484 89.7363V90H259.785V89.7363C260.083 89.7119 260.283 89.6313 260.386 89.4946C260.493 89.353 260.547 88.9844 260.547 88.3887V84.6021C260.547 84.2114 260.527 83.9624 260.488 83.855C260.439 83.7183 260.369 83.6182 260.276 83.5547C260.183 83.4912 260.02 83.4473 259.785 83.4229V83.1519H262.583ZM271.929 86.3306H268.171C268.215 87.2388 268.457 87.9565 268.896 88.4839C269.233 88.8892 269.639 89.0918 270.112 89.0918C270.405 89.0918 270.671 89.0112 270.911 88.8501C271.15 88.6841 271.406 88.3887 271.68 87.9639L271.929 88.125C271.558 88.8818 271.147 89.4189 270.698 89.7363C270.249 90.0488 269.729 90.2051 269.138 90.2051C268.123 90.2051 267.354 89.8145 266.831 89.0332C266.411 88.4033 266.201 87.6221 266.201 86.6895C266.201 85.5469 266.509 84.6387 267.124 83.9648C267.744 83.2861 268.469 82.9468 269.299 82.9468C269.993 82.9468 270.593 83.2324 271.101 83.8037C271.614 84.3701 271.89 85.2124 271.929 86.3306ZM270.127 85.8398C270.127 85.0537 270.083 84.5142 269.995 84.2212C269.912 83.9282 269.78 83.7061 269.6 83.5547C269.497 83.4668 269.36 83.4229 269.189 83.4229C268.936 83.4229 268.728 83.5474 268.567 83.7964C268.279 84.231 268.135 84.8267 268.135 85.5835V85.8398H270.127Z" fill="white"/>
</svg>
