<svg width="40" height="40" viewBox="0 0 40 40" fill="none" xmlns="http://www.w3.org/2000/svg">
<circle cx="20" cy="20" r="20" fill="#FFF2D7"/>
<path opacity="0.9" d="M29 11.992V28.004C29 28.554 28.554 28.996 28.008 28.996H23.419V22.029H25.758L26.108 19.313H23.415V17.577C23.415 16.79 23.632 16.255 24.761 16.255H26.2V13.825C25.95 13.792 25.099 13.716 24.102 13.716C22.029 13.716 20.607 14.982 20.607 17.308V19.313H18.26V22.029H20.607V29H11.992C11.446 29 11 28.554 11 28.008V11.992C11 11.446 11.446 11 11.992 11H28.004C28.554 11 29 11.446 29 11.992Z" fill="#D13333"/>
</svg>
