<svg width="40" height="40" viewBox="0 0 40 40" fill="none" xmlns="http://www.w3.org/2000/svg">
<circle cx="20" cy="20" r="20" fill="#FFF2D7"/>
<path opacity="0.9" d="M20.002 15.384C17.448 15.384 15.388 17.444 15.388 19.998C15.388 22.552 17.448 24.612 20.002 24.612C22.556 24.612 24.616 22.552 24.616 19.998C24.616 17.444 22.556 15.384 20.002 15.384ZM20.002 22.998C18.352 22.998 17.002 21.652 17.002 19.998C17.002 18.344 18.348 16.998 20.002 16.998C21.656 16.998 23.002 18.344 23.002 19.998C23.002 21.652 21.652 22.998 20.002 22.998ZM25.881 15.195C25.881 15.794 25.399 16.271 24.805 16.271C24.206 16.271 23.729 15.79 23.729 15.195C23.729 14.601 24.21 14.119 24.805 14.119C25.399 14.119 25.881 14.601 25.881 15.195ZM28.937 16.288C28.868 14.846 28.539 13.569 27.483 12.517C26.431 11.465 25.154 11.136 23.713 11.063C22.227 10.979 17.773 10.979 16.288 11.063C14.85 11.132 13.573 11.461 12.517 12.513C11.461 13.565 11.136 14.842 11.063 16.283C10.979 17.769 10.979 22.223 11.063 23.708C11.132 25.15 11.461 26.427 12.517 27.479C13.573 28.531 14.846 28.86 16.287 28.933C17.773 29.017 22.227 29.017 23.712 28.933C25.154 28.864 26.431 28.535 27.483 27.479C28.535 26.427 28.864 25.15 28.937 23.709C29.021 22.223 29.021 17.773 28.937 16.288ZM27.017 25.303C26.704 26.09 26.097 26.696 25.307 27.013C24.122 27.483 21.311 27.375 20.002 27.375C18.692 27.375 15.878 27.479 14.697 27.013C13.91 26.7 13.304 26.093 12.987 25.303C12.517 24.118 12.625 21.307 12.625 19.998C12.625 18.688 12.521 15.874 12.987 14.693C13.3 13.906 13.907 13.3 14.697 12.983C15.882 12.513 18.693 12.621 20.002 12.621C21.312 12.621 24.126 12.517 25.307 12.983C26.094 13.296 26.7 13.903 27.017 14.693C27.487 15.878 27.379 18.689 27.379 19.998C27.379 21.308 27.487 24.122 27.017 25.303Z" fill="#D13333"/>
</svg>
