<svg width="40" height="40" viewBox="0 0 40 40" fill="none" xmlns="http://www.w3.org/2000/svg">
<circle cx="20" cy="20" r="20" fill="#FFF2D7"/>
<path d="M12 28C11.45 28 10.9793 27.8043 10.588 27.413C10.1967 27.0217 10.0007 26.5507 10 26V14C10 13.45 10.196 12.9793 10.588 12.588C10.98 12.1967 11.4507 12.0007 12 12H28C28.55 12 29.021 12.196 29.413 12.588C29.805 12.98 30.0007 13.4507 30 14V26C30 26.55 29.8043 27.021 29.413 27.413C29.0217 27.805 28.5507 28.0007 28 28H12ZM20 21L28 16V14L20 19L12 14V16L20 21Z" fill="#D13333"/>
</svg>
