<svg width="40" height="40" viewBox="0 0 40 40" fill="none" xmlns="http://www.w3.org/2000/svg">
<circle cx="20" cy="20" r="20" fill="#FFF2D7"/>
<path opacity="0.9" d="M27.15 16.643C27.161 16.803 27.161 16.963 27.161 17.123C27.161 22 23.45 27.62 16.665 27.62C14.575 27.62 12.633 27.015 11 25.964C11.297 25.999 11.582 26.01 11.89 26.01C13.615 26.01 15.203 25.427 16.47 24.434C14.849 24.4 13.49 23.337 13.022 21.875C13.25 21.91 13.478 21.932 13.718 21.932C14.05 21.932 14.381 21.887 14.689 21.807C13 21.463 11.731 19.978 11.731 18.186V18.14C12.222 18.414 12.793 18.585 13.398 18.608C12.405 17.945 11.754 16.815 11.754 15.536C11.754 14.85 11.936 14.222 12.256 13.674C14.072 15.912 16.802 17.374 19.863 17.534C19.806 17.26 19.772 16.974 19.772 16.689C19.772 14.656 21.416 13 23.46 13C24.522 13 25.481 13.445 26.155 14.165C26.989 14.005 27.788 13.697 28.496 13.275C28.222 14.131 27.64 14.85 26.875 15.307C27.617 15.227 28.337 15.022 28.999 14.737C28.496 15.467 27.87 16.118 27.15 16.643Z" fill="#D13333"/>
</svg>
