<svg width="38" height="16" viewBox="0 0 38 16" fill="none" xmlns="http://www.w3.org/2000/svg">
<path d="M15.7855 11.1957L13.9839 9.3941C14.2127 9.07953 14.37 8.75811 14.4558 8.42981C14.5416 8.10152 14.5845 7.76522 14.5845 7.42091C14.5845 7.0766 14.5416 6.74088 14.4558 6.41373C14.37 6.08658 14.2127 5.77887 13.9839 5.49062L15.7855 3.64611C16.2431 4.18946 16.5862 4.78999 16.815 5.44772C17.0438 6.10545 17.1582 6.76318 17.1582 7.42091C17.1582 8.07864 17.0438 8.72951 16.815 9.37351C16.5862 10.0175 16.2431 10.6249 15.7855 11.1957ZM19.4316 14.8847L17.5871 13.0402C18.3021 12.2395 18.8385 11.353 19.1966 10.3807C19.5546 9.4084 19.733 8.4218 19.7319 7.42091C19.7308 6.42002 19.5523 5.44086 19.1966 4.48343C18.8408 3.52601 18.3043 2.64636 17.5871 1.8445L19.4316 0C20.4039 1.05809 21.1263 2.2237 21.5987 3.49684C22.0711 4.76997 22.3068 6.078 22.3056 7.42091C22.3045 8.76382 22.0683 10.0793 21.597 11.3673C21.1257 12.6553 20.4039 13.8278 19.4316 14.8847ZM6.86327 9.13673C5.91957 9.13673 5.11199 8.801 4.44054 8.12954C3.76908 7.45809 3.43278 6.64994 3.43164 5.70509C3.43049 4.76025 3.76679 3.95267 4.44054 3.28236C5.11428 2.61205 5.92186 2.27575 6.86327 2.27346C7.80468 2.27117 8.61283 2.60747 9.28772 3.28236C9.96261 3.95725 10.2983 4.76483 10.2949 5.70509C10.2915 6.64536 9.95575 7.45351 9.28772 8.12954C8.6197 8.80558 7.81155 9.1413 6.86327 9.13673ZM0 16V15.0134C0 14.3271 0.18588 13.6979 0.557641 13.126C0.929401 12.5541 1.44415 12.1251 2.10188 11.8391C2.8454 11.5246 3.61065 11.2815 4.39764 11.1099C5.18463 10.9383 6.00651 10.8525 6.86327 10.8525C7.72004 10.8525 8.54248 10.9383 9.33062 11.1099C10.1187 11.2815 10.8834 11.5246 11.6247 11.8391C12.2824 12.1251 12.7971 12.5541 13.1689 13.126C13.5407 13.6979 13.7265 14.3271 13.7265 15.0134V16H0ZM30.8847 9.13673C29.941 9.13673 29.1334 8.801 28.462 8.12954C27.7905 7.45809 27.4542 6.64994 27.4531 5.70509C27.4519 4.76025 27.7882 3.95267 28.462 3.28236C29.1357 2.61205 29.9433 2.27575 30.8847 2.27346C31.8261 2.27117 32.6343 2.60747 33.3092 3.28236C33.9841 3.95725 34.3198 4.76483 34.3164 5.70509C34.3129 6.64536 33.9772 7.45351 33.3092 8.12954C32.6411 8.80558 31.833 9.1413 30.8847 9.13673ZM24.0214 16V15.0134C24.0214 14.3271 24.2073 13.6979 24.5791 13.126C24.9508 12.5541 25.4656 12.1251 26.1233 11.8391C26.8668 11.5246 27.6315 11.2815 28.4174 11.1099C29.2032 10.9383 30.0257 10.8525 30.8847 10.8525C31.7438 10.8525 32.5656 10.9383 33.3503 11.1099C34.135 11.2815 34.9003 11.5246 35.6461 11.8391C36.3038 12.1251 36.8186 12.5541 37.1903 13.126C37.5621 13.6979 37.748 14.3271 37.748 15.0134V16H24.0214Z" fill="#323232"/>
</svg>
